<?xml version="1.0" encoding="UTF-8"?>
<svg id="Layer_2" data-name="Layer 2" xmlns="http://www.w3.org/2000/svg" viewBox="0 0 2059.07 550.42">
  <defs>
    <style>
      .cls-1 {
        fill: #1c4847;
      }

      .cls-1, .cls-2 {
        stroke-width: 0px;
      }

      .cls-2, .cls-3 {
        fill: #dcffeb;
      }

      .cls-3 {
        stroke: #dcffeb;
        stroke-miterlimit: 10;
      }
    </style>
  </defs>
  <g id="Layer_1-2" data-name="Layer 1">
    <g>
      <path class="cls-2" d="M0,32.82v517.6h29.22V142.28c0-.64.01-1.29.02-1.93.51-19.81,8.77-37.62,21.74-50.71,11.96-11.97,27.97-19.9,45.77-21.56,31.41,3.53,56.05,35.49,56.05,74.2v299.67c-12.54,14.36-24.75,29-36.62,43.91,11.67-14.38,23.68-28.48,36.02-42.28.2-.23.4-.45.6-.68.1-.1.19-.2.28-.31,5.65-6.3,11.36-12.54,17.15-18.72,2.71-2.9,5.44-5.79,8.18-8.67,21.94-22.99,44.8-45.08,68.51-66.22.07-.07.15-.13.23-.2,26.59-23.71,54.25-46.21,82.87-67.41,14.17-10.51,28.58-20.7,43.21-30.56,7.6-5.12,15.26-10.16,22.98-15.1,7.49-4.81,15.04-9.52,22.64-14.14,15.16-9.25,30.53-18.14,46.1-26.68,15.73-8.63,31.66-16.89,47.78-24.78,2.56-1.26,5.13-2.5,7.7-3.74,22.29-10.75,44.92-20.76,67.85-30.02,7.5-3.03,15.05-5.98,22.62-8.84.51-.2,1.02-.39,1.53-.58,32.87-12.41,66.3-23.31,100.15-32.68,34.37-9.52,69.17-17.48,104.25-23.87,35.07-6.4,70.43-11.23,105.91-14.49,32.98-3.05,66.07-4.74,99.16-5.08l7.63.15,57.19,1.14c10.83-.13,21.57,1.16,32.32,2.19l17.28,1.67,14.99,1.44,32.28,3.1c10.7,1.43,21.31,3.58,31.97,5.33,8.87,1.64,17.78,3.1,26.68,4.59,12.42,2.1,24.83,4.25,37.12,6.99,22.54,4.99,44.9,10.69,67.07,17.04,33.72,9.65,67.01,20.81,99.81,33.27.08,0,.15.04.22.08.46.17.93.34,1.39.52,25.93,9.88,51.57,20.56,76.88,31.96,7.15,3.38,14.27,6.84,21.35,10.37,8.08,4.02,16.11,8.14,24.09,12.35,8.03,4.23,16.02,8.55,23.95,12.98,15.35,8.53,30.51,17.4,45.49,26.58,7.8,4.78,15.55,9.64,23.25,14.59,22.31,14.33,44.2,29.33,65.65,44.94,5.88,4.27,11.72,8.59,17.53,12.95,14.16,11.01,28.05,22.34,41.68,33.98,8,6.81,15.91,13.73,23.72,20.75.16.14.32.28.48.43,23.73,21.32,46.64,43.54,68.74,66.57,2.49,2.58,4.97,5.18,7.43,7.79,15.42,16.31,30.45,33.02,45.08,50.08-14.42-17.23-29.24-34.12-44.48-50.63-2.66-2.89-5.33-5.77-8.03-8.63V142.24c0-.64.01-1.28.02-1.92.99-37.94,30.55-68.97,68-72.27,14.72,1.69,27.91,9.61,37.79,21.54,11.2,13.51,18.15,32.05,18.15,52.65v408.18h54.45V32.82H0ZM298.87,301.34c-17.7,14.21-34.94,28.96-51.72,44.24v-203.3c0-.64.01-1.29.02-1.93.51-19.81,8.77-37.62,21.87-50.71,12.02-12.14,28.3-20.13,46.41-21.63,32.38,3.17,57.78,35.3,57.78,74.27v104.08c-25.56,17.25-50.4,35.57-74.36,54.98ZM518.57,162.53c-18.15,8.67-36.02,17.91-53.62,27.65v-47.9c0-.64.01-1.29.02-1.93.51-19.81,8.77-37.62,21.87-50.71,11.85-11.97,27.85-19.91,45.66-21.56,28.48,3.19,51.32,29.75,55.34,63.52-23.42,9.53-46.53,19.84-69.27,30.93ZM1526.54,156.4c-26-11.83-52.35-22.93-79.02-33.16,7.9-29.94,34-52.58,65.8-55.22,14.99,1.61,28.5,9.56,38.45,21.57,11.32,13.51,18.4,32.05,18.4,52.65v36.15c-14.38-7.63-28.93-14.96-43.63-21.99ZM1747.97,292.55c-27.62-20.96-55.99-40.92-85.11-59.71v-90.6c0-.64,0-1.28.02-1.92.99-38.04,30.59-69.13,68.17-72.3,14.94,1.63,28.32,9.57,38.26,21.57,11.33,13.51,18.41,32.05,18.41,52.65v183.47c-13-11.34-26.25-22.39-39.75-33.16Z"/>
      <g>
        <rect class="cls-1" x="1976.71" width="82.36" height="32.88"/>
        <rect class="cls-1" x="1894.34" width="82.36" height="32.88"/>
        <rect class="cls-1" x="1811.98" width="82.36" height="32.88"/>
        <rect class="cls-1" x="1729.62" width="82.36" height="32.88"/>
        <rect class="cls-1" x="1647.26" width="82.36" height="32.88"/>
        <rect class="cls-1" x="1564.89" width="82.36" height="32.88"/>
        <rect class="cls-1" x="1482.53" width="82.36" height="32.88"/>
        <rect class="cls-1" x="1400.17" width="82.36" height="32.88"/>
        <rect class="cls-1" x="1317.81" width="82.36" height="32.88"/>
        <rect class="cls-1" x="1235.44" width="82.36" height="32.88"/>
        <rect class="cls-1" x="1153.08" width="82.36" height="32.88"/>
        <rect class="cls-1" x="1070.72" width="82.36" height="32.88"/>
        <rect class="cls-1" x="988.36" width="82.36" height="32.88"/>
        <rect class="cls-1" x="905.99" width="82.36" height="32.88"/>
        <rect class="cls-1" x="823.63" width="82.36" height="32.88"/>
        <rect class="cls-1" x="741.27" width="82.36" height="32.88"/>
        <rect class="cls-1" x="658.91" width="82.36" height="32.88"/>
        <rect class="cls-1" x="576.54" width="82.36" height="32.88"/>
        <rect class="cls-1" x="494.18" width="82.36" height="32.88"/>
        <rect class="cls-1" x="411.82" width="82.36" height="32.88"/>
        <rect class="cls-1" x="329.45" width="82.36" height="32.88"/>
        <rect class="cls-1" x="247.09" width="82.36" height="32.88"/>
        <rect class="cls-1" x="164.73" width="82.36" height="32.88"/>
        <rect class="cls-1" x="82.37" width="82.36" height="32.88"/>
        <rect class="cls-1" x="0" width="82.36" height="32.88"/>
      </g>
      <path class="cls-2" d="M1888.69,424.01c15.24,16.51,30.06,33.4,44.48,50.63-14.63-17.06-29.66-33.77-45.08-50.08-2.46-2.61-4.94-5.21-7.43-7.79v-1.39c2.7,2.86,5.37,5.74,8.03,8.63Z"/>
      <path class="cls-1" d="M2029.85,142.28v408.14h-25.23V142.24c0-20.6-6.95-39.14-18.15-52.65-9.88-11.93-23.07-19.85-37.79-21.54,2.19-.2,4.4-.3,6.64-.3,20.59,0,39.26,8.37,52.77,21.89,13.39,13.51,21.76,32.05,21.76,52.64Z"/>
      <path class="cls-1" d="M1811.92,142.28v207.92c-.16-.15-.32-.29-.48-.43-7.81-7.02-15.72-13.94-23.72-20.75-13.63-11.64-27.52-22.97-41.68-33.98-5.81-4.36-11.65-8.68-17.53-12.95-21.45-15.61-43.34-30.61-65.65-44.94v-4.31c29.12,18.79,57.49,38.75,85.11,59.71,13.5,10.77,26.75,21.82,39.75,33.16v-183.47c0-20.6-7.08-39.14-18.41-52.65-9.94-12-23.32-19.94-38.26-21.57,2.09-.18,4.2-.27,6.34-.27,20.59,0,39.26,8.37,52.64,21.89,13.52,13.51,21.89,32.05,21.89,52.64Z"/>
      <path class="cls-1" d="M1594.12,142.28v53.7c-7.93-4.43-15.92-8.75-23.95-12.98-7.98-4.21-16.01-8.33-24.09-12.35-7.08-3.53-14.2-6.99-21.35-10.37-25.31-11.4-50.95-22.08-76.88-31.96-.46-.18-.93-.35-1.39-.52.22-1.1.46-2.2.74-3.28.09-.43.2-.86.32-1.28,26.67,10.23,53.02,21.33,79.02,33.16,14.7,7.03,29.25,14.36,43.63,21.99v-36.15c0-20.6-7.08-39.14-18.4-52.65-9.95-12.01-23.46-19.96-38.45-21.57,2.07-.18,4.16-.27,6.27-.27,20.59,0,39.26,8.37,52.64,21.89,13.52,13.51,21.89,32.05,21.89,52.64Z"/>
      <path class="cls-1" d="M178.41,142.28v272.92c-2.74,2.88-5.47,5.77-8.18,8.67-5.79,6.18-11.5,12.42-17.15,18.72-.09.11-.18.21-.28.31-.2.23-.4.45-.6.68-12.34,13.8-24.35,27.9-36.02,42.28,11.87-14.91,24.08-29.55,36.62-43.91V142.28c0-38.71-24.64-70.67-56.05-74.2,2.3-.22,4.64-.33,7-.33,41.2,0,74.66,33.47,74.66,74.53Z"/>
      <path class="cls-1" d="M396.21,142.28v93.43c-7.72,4.94-15.38,9.98-22.98,15.1-14.63,9.86-29.04,20.05-43.21,30.56-28.62,21.2-56.28,43.7-82.87,67.41v-3.2c16.78-15.28,34.02-30.03,51.72-44.24,23.96-19.41,48.8-37.73,74.36-54.98v-104.08c0-38.97-25.4-71.1-57.78-74.27,2.06-.17,4.13-.26,6.23-.26,41.2,0,74.53,33.47,74.53,74.53Z"/>
      <path class="cls-1" d="M512.73,170.11c-16.12,7.89-32.05,16.15-47.78,24.78v-4.71c17.6-9.74,35.47-18.98,53.62-27.65,22.74-11.09,45.85-21.4,69.27-30.93-4.02-33.77-26.86-60.33-55.34-63.52,2.3-.22,4.63-.33,6.98-.33,34.27,0,63.11,23.17,71.83,54.6.2.71.39,1.41.55,2.13.21.81.4,1.63.57,2.45-.51.19-1.02.38-1.53.58-7.57,2.86-15.12,5.81-22.62,8.84-22.93,9.26-45.56,19.27-67.85,30.02-2.57,1.24-5.14,2.48-7.7,3.74Z"/>
      <path class="cls-3" d="M1933.17,474.64c-14.63-17.06-29.66-33.77-45.08-50.08-2.46-2.61-4.94-5.21-7.43-7.79-22.1-23.03-45.01-45.25-68.74-66.57-.16-.15-.32-.29-.48-.43-7.81-7.02-15.72-13.94-23.72-20.75-13.63-11.64-27.52-22.97-41.68-33.98-5.81-4.36-11.65-8.68-17.53-12.95-21.45-15.61-43.34-30.61-65.65-44.94-7.7-4.95-15.45-9.81-23.25-14.59-14.98-9.18-30.14-18.05-45.49-26.58-7.93-4.43-15.92-8.75-23.95-12.98-7.98-4.21-16.01-8.33-24.09-12.35-7.08-3.53-14.2-6.99-21.35-10.37-25.31-11.4-50.95-22.08-76.88-31.96-.46-.18-.93-.35-1.39-.52-.07-.04-.14-.07-.22-.08-32.8-12.46-66.09-23.62-99.81-33.27-22.17-6.35-44.53-12.05-67.07-17.04-12.29-2.74-24.7-4.89-37.12-6.99-8.9-1.49-17.81-2.95-26.68-4.59-10.66-1.75-21.27-3.9-31.97-5.33l-32.28-3.1-14.99-1.44-17.28-1.67c-10.75-1.03-21.49-2.32-32.32-2.19l-57.19-1.14-7.63-.15c-33.09.34-66.18,2.03-99.16,5.08-35.48,3.26-70.84,8.09-105.91,14.49-35.08,6.39-69.88,14.35-104.25,23.87-33.85,9.37-67.28,20.27-100.15,32.68-.51.19-1.02.38-1.53.58-7.57,2.86-15.12,5.81-22.62,8.84-22.93,9.26-45.56,19.27-67.85,30.02-2.57,1.24-5.14,2.48-7.7,3.74-16.12,7.89-32.05,16.15-47.78,24.78-15.57,8.54-30.94,17.43-46.1,26.68-7.6,4.62-15.15,9.33-22.64,14.14-7.72,4.94-15.38,9.98-22.98,15.1-14.63,9.86-29.04,20.05-43.21,30.56-28.62,21.2-56.28,43.7-82.87,67.41-.08.07-.16.13-.23.2-23.71,21.14-46.57,43.23-68.51,66.22-2.74,2.88-5.47,5.77-8.18,8.67-5.79,6.18-11.5,12.42-17.15,18.72-.09.11-.18.21-.28.31-.2.23-.4.45-.6.68-12.34,13.8-24.35,27.9-36.02,42.28,11.87-14.91,24.08-29.55,36.62-43.91,8.39-9.59,16.92-19.05,25.61-28.37,21.96-23.6,44.88-46.31,68.74-68,16.78-15.28,34.02-30.03,51.72-44.24,23.96-19.41,48.8-37.73,74.36-54.98,7.59-5.14,15.26-10.17,22.98-15.11,2.86-1.84,5.73-3.65,8.61-5.46,19.7-12.44,39.73-24.35,60.13-35.61,17.6-9.74,35.47-18.98,53.62-27.65,22.74-11.09,45.85-21.4,69.27-30.93,7.79-3.18,15.61-6.26,23.47-9.25,130.76-49.91,270.6-75.95,410.55-77.97l65.17,1.55c10.88-.08,21.67,1.26,32.48,2.34l32.43,3.25,32.42,3.26c10.75,1.48,21.4,3.68,32.11,5.49,21.34,4.02,42.88,7.08,64.05,11.9,56.77,12.83,112.37,30.1,166.62,50.92.13.05.26.09.38.15,26.67,10.23,53.02,21.33,79.02,33.16,14.7,7.03,29.25,14.36,43.63,21.99,8.03,4.26,16.02,8.61,23.95,13.05,23.35,13.06,46.27,26.88,68.74,41.4,29.12,18.79,57.49,38.75,85.11,59.71,13.5,10.77,26.75,21.82,39.75,33.16,8.17,7.09,16.23,14.31,24.2,21.63,8.15,7.47,16.2,15.06,24.14,22.74.11.11.22.21.33.32l.03.03c15.12,14.62,29.86,29.61,44.24,44.95,2.7,2.86,5.37,5.74,8.03,8.63,15.24,16.51,30.06,33.4,44.48,50.63Z"/>
    </g>
  </g>
</svg>