<?xml version="1.0" encoding="UTF-8"?>
<svg id="Layer_2" data-name="Layer 2" xmlns="http://www.w3.org/2000/svg" xmlns:xlink="http://www.w3.org/1999/xlink" viewBox="0 0 655.25 547.39">
  <defs>
    <style>
      .cls-1 {
        fill: #1c4847;
      }

      .cls-1, .cls-2 {
        stroke-width: 0px;
      }

      .cls-2 {
        fill: none;
      }

      .cls-3 {
        clip-path: url(#clippath);
      }
    </style>
    <clipPath id="clippath">
      <rect class="cls-2" width="655.25" height="547.39"/>
    </clipPath>
  </defs>
  <g id="Layer_1-2" data-name="Layer 1">
    <g class="cls-3">
      <g>
        <path class="cls-1" d="M445.09,21.81c-.98-.06-1.94-.52-2.92-.73-3.42-.74-6.79-1.77-10.3-2.02-1.93-.57-3.83-1.2-5.79-1.7-16.57-4.22-32.84-9.41-49-14.99-.47-.17-.93-.36-1.41-.5-.64-.18-.91-.54-.66-1.04.13-.26.28-.58.46-.83h-39.92c-7.29,2.75-14.57,5.49-21.86,8.23-32.64,12.31-65.29,24.56-97.33,38.37-1.37.6-2.84.97-4.27,1.44-.55.54-1.25.96-1.89.41-.7-.6-.09-1.25.3-1.82,2.2-3.94,4.34-7.93,6.61-11.83,6.56-11.29,12.52-22.87,17.75-34.8h-13.97c-9.92,20.14-21.88,38.97-35.82,56.62-3.97,5.04-8.69,8.98-14.31,12.02-21.47,11.62-41.96,24.82-61.65,39.26-1.42,1.04-2.85,2.08-4.28,3.09-2.28,1.61-3.06,1.38-3.67-1-.19-.73-.37-1.47-.53-2.2-4.27-18.91-7.46-37.95-8.86-57.31-1.16-15.89-.31-31.65,1.51-47.41.12-1.02.22-2.04.31-3.07h-3.44c-3.22,13.44-5.56,27.04-6.69,40.81-1.95,23.42-.71,46.73,3.45,69.87.62,3.45,1.31,6.91,1.94,10.37.24,1.32-.15,2.47-1.22,3.35-1.16.96-2.31,1.94-3.47,2.89-19.44,16.01-37.93,33.03-54.99,51.56-.85.92-1.8,1.74-2.71,2.59-.51.47-1.75.27-1.9-.31-1.13-4.38-2.32-8.75-3.35-13.14-4.12-17.62-7.16-35.46-10.56-53.23-1.42-7.39-2.94-14.78-4.68-22.11-.76-3.22-1.31-6.39-1.47-9.66-.66-13.34-.28-26.67.71-39.96.95-12.79,1.98-25.56,3.74-38.28.22-1.58.43-3.16.64-4.75H0v547.39h96.78c-5.04-16.8-9.38-33.8-13.23-50.91-3.65-16.18-6.77-32.47-9.1-48.9-2.05-14.44-3.49-28.95-3.98-43.54-.55-16.65.33-33.17,3.65-49.52,2.55-12.61,6.33-24.82,11.9-36.46,12.09-25.28,30.82-43.74,56.43-55.22,10.13-4.53,20.66-7.83,31.53-10.06,14.06-2.89,28.29-4.47,42.66-4.63,8.55-.09,17.1-.04,25.65.01,3.01.02,6.03.22,9.04.33,2.92,1.62,4.9,4.29,7.18,6.6,10.28,10.41,21.5,19.69,33.65,27.84,1.02.69,2.19,1.15,3.29,1.72,4.03,3.74,8.95,6.07,13.67,8.71.2.11.48.16.71.12.23-.04.48-.17.64-.34.09-.1.11-.45.02-.53-4-3.65-8.24-7-12.99-9.64-.29-.4-.51-.89-.89-1.19-10.78-8.79-19.89-19.21-29.06-29.56-.17-.19-.31-.39-.46-.59-.15-.21-.34-.4-.42-.63-.06-.2-.01-.45.01-.68.03-.59.37-.88,1.01-.84,11.28.72,22.58,1.31,33.85,2.21,14.54,1.16,29.08,2.37,43.66,2.78,3.52.1,7.03.29,10.55.47,12.31.65,24.64.63,36.95.19.47-.02.94.14,1.41.22-.05-.18-.06-.52-.15-.54-4.15-.98-8.35-1.62-12.62-1.83-3.77-.18-7.54-.41-11.28-.86-9.74-1.16-19.47-2.33-29.17-3.74-11.93-1.73-23.85-3.66-35.75-5.57-10.68-1.7-21.33-3.54-31.99-5.25-7.95-1.27-15.91-2.43-23.86-3.62-11.2-1.68-22.43-2.92-33.7-3.9-4.76-.4-9.51-.89-14.27-1.39-.37-.04-.84-.39-1.02-.73-.28-.52.04-.93.59-1.2,3.82-1.89,7.66-3.76,11.46-5.72,1.77-.91,3.78-1.42,5.16-3,4.92-1.31,8.95-4.31,13.24-6.86.19-.11.3-.38.46-.58-.21.03-.44.02-.64.08-4.54,1.39-9.03,2.91-13.29,5.02-1.69.48-3.38.96-5.08,1.45-6.25,1.86-12.47,3.88-18.78,5.57-13.86,3.69-27.95,6.26-42.02,8.98-11.85,2.29-23.62,4.91-35,9.02-20.85,7.51-39.67,18.34-55.61,33.88-1.08,1.05-2.24,2.02-3.37,3.01-.72.62-2.28.2-2.49-.67-2.43-10.53-4.81-21.07-6.23-31.81-1.27-9.69.05-19.01,4.52-27.85,3.41-6.75,7.18-13.27,11.42-19.51,6.8-10.01,14.42-19.37,22.45-28.39,13.75-15.43,28.58-29.76,44.13-43.33,12.52-10.92,25.46-21.32,39.01-30.93,4.47-3.17,4.08-3.1,9.74-2.09.24.05.49.12.74.18,15.68,3.52,31.38,7.05,47.07,10.58,32.62,7.34,65.34,14.16,98.34,19.59,13.4,2.21,26.8,4.32,40.3,5.85,5.5.62,10.98,1.3,16.49,1.81,7.77.73,15.54,1.32,23.31,1.94.49.04.99-.14,1.48-.22,2.46.22,4.93.62,7.39.61,5.42-.02,10.83-.19,16.26-.3-.47-.16-.94-.3-1.42-.35-7.15-.72-14.31-1.35-21.47-1.99-.25-.02-.49.05-.74.08-.98-.19-1.96-.43-2.95-.56-16.18-2.1-32.34-4.34-48.43-7.12-21.54-3.71-42.95-7.95-64.25-12.81-32.31-7.37-64.36-15.75-96.14-25.15-1.92-.56-3.82-1.19-5.7-1.88-.19-.07-.35-1-.17-1.17.7-.69,1.49-1.32,2.32-1.83,21.22-13.04,43.3-24.4,66.02-34.55,25.68-11.48,51.92-21.57,78.22-31.49,7.28-2.74,14.63-5.33,21.86-8.18,2.51-.99,4.82-1.14,7.29-.17,1.16.46,2.4.72,3.59,1.1,11.74,3.71,23.61,6.93,35.64,9.53,8.83,1.9,17.65,3.88,26.7,4.5,5.49,1.21,11,1.97,16.59,1.97.56,0,1.11,0,1.67-.02-1.54-.63-3.16-1.02-4.89-1.13Z"/>
        <path class="cls-1" d="M642.33,0c-.71,5.17-2.45,10.05-5.56,14.56-4.35,6.31-10.59,9.81-17.86,11.7-4.65,1.21-9.37,1.68-13.36,1.53-9.41.02-17.77-1.63-26.05-3.74-1.63-.42-2.37-1.57-2.49-3.32-.32-4.83.44-9.54,1.95-14.08.81-2.44,1.83-4.66,3.06-6.65h60.3Z"/>
        <path class="cls-1" d="M453.93,353.8c-8.59-10.36-18.54-19.09-30.71-25.03-8.69-4.24-17.87-6.57-27.59-6.54-6.93.02-14.48,1.5-19.81,3.87-.99.44-1.37,1.65-.71,2.44,7.96,9.53,17.18,17.58,28,23.73,3.94,2.24,8.07,4.06,12.38,5.47,11.79,3.85,23.65,4.23,35.52.37,1.17-.38,2.28-1.02,3.34-1.68.27-.17.33-.88.26-1.3-.08-.47-.36-.94-.67-1.32Z"/>
        <path class="cls-1" d="M344.94,56.99c-2.24-.19-4.49-.33-6.73-.49-5.06-.09-10.03.72-14.95,1.69-4.19.83-8.2,2.3-11.95,4.42-7.3,4.12-12.31,10.14-15.15,18.02-1.55,4.31-2.07,8.77-2.13,13.31-.05,4.76.92,4.46,4.84,4.63,5.81.25,11.54-.45,17.2-1.55,6.19-1.2,12.1-3.32,17.25-7.11,10.44-7.68,14.34-18.26,13.52-30.88-.06-.91-1.06-1.97-1.93-2.04Z"/>
        <path class="cls-1" d="M406.6,69.64c-3.76.16-7.56.11-11.27.64-5.74.82-11.29,2.43-16.37,5.38-6.83,3.97-11.39,9.69-13.73,17.26-1.13,3.66-1.48,7.38-1.43,12.74.03.43.13,2.44.32,4.44.21,2.16,1.41,3.29,3.44,3.1,3.75-.35,7.54-.59,11.23-1.28,5.45-1.01,10.72-2.67,15.58-5.46,7.62-4.36,12.57-10.76,14.45-19.33,1.14-5.19.98-10.49,0-15.74-.14-.76-1.35-1.8-2.2-1.77Z"/>
        <path class="cls-1" d="M38.03,42.71c-2.16-.99-3.2-.57-3.9,1.69-.67,2.15-1.38,4.32-1.74,6.53-1.76,10.59-.06,20.51,6.3,29.34,6.35,8.82,15.06,14.56,25.02,18.58.77.31,2.26-.32,2.56-1.07,1.92-4.69,2.86-9.59,3.06-14.78-.2-9.83-3.67-18.48-10.42-25.79-5.88-6.36-13.04-10.92-20.86-14.51Z"/>
        <path class="cls-1" d="M69.76,24.15c.1,4.94-.74,9.6-2.58,14.08-.65,1.59-1.98,2.15-3.62,1.42-7.17-3.17-13.79-7.17-19.42-12.71-7.11-7-11.08-15.47-11.73-25.38-.04-.52-.06-1.04-.06-1.56h28.74c5.82,7.01,8.98,15.03,8.68,24.15Z"/>
        <path class="cls-1" d="M476.3,119.79c7.14.14,13.93-1.48,20.46-4.23,2.06-.87,4.03-2.03,5.89-3.28,4.5-3.03,7.58-7.19,9.54-12.26,1.2-3.11,1.58-6.32,1.75-9.57.21-4.02-.2-8.01-1.19-11.92-.41-1.62-1.57-2.42-3.33-2.36-5.81.19-11.45,1.38-16.93,3.22-2.36.79-4.65,1.9-6.81,3.15-6.37,3.69-10.62,9.13-12.38,16.31-.65,2.65-.76,5.44-1.11,8.16.25,4.97.57,7.12,1.89,11.12.32.98,1.19,1.64,2.21,1.66Z"/>
        <path class="cls-1" d="M326.37,169.88c8.6,8.59,19.25,12.42,31.17,13.19.91.06,1.79-.91,1.84-1.95.05-1,.09-2,.07-1.53.11-5.97-1.2-12.76-3.06-17.68-3.14-8.29-8.53-14.73-16.18-19.22-5.48-3.22-11.43-5.26-17.71-6.03-7.01-.86-7.06-.85-6.86,6.57.14,5.08,1.27,9.96,3.07,14.68,1.72,4.51,4.24,8.56,7.66,11.98Z"/>
        <path class="cls-1" d="M390.81,179.59c4.41,2.97,9.24,5.06,14.34,6.46,2.89.79,5.88,1.26,8.85,1.72,2.41.37,3.39-.52,3.39-2.73,0-.75,0-1.5,0-1.78-.17-1.98-.27-3.48-.42-4.98-1.08-10.36-4.93-19.44-12.85-26.42-8-7.05-17.5-10.58-28.13-11.1-1.24-.06-2.25,1.05-2.36,2.4-.33,4.05.27,8.05,1.06,11.96,2.07,10.27,7.33,18.56,16.11,24.48Z"/>
        <path class="cls-1" d="M653.97,63.7c-.41-1.34-1.39-2.01-2.74-2.17-7.04-.8-14.03-.45-20.88,1.33-2.63.68-5.25,1.78-7.6,3.14-6.05,3.52-9.32,8.93-9.88,15.91-.28,3.51-.19,7.03.6,10.47.67,2.92,1.39,3.47,3.95,3.66,2,.15,4,.25,6.58.4,2.68-.22,5.94-.39,9.17-.76,3.76-.43,7.35-1.59,10.69-3.37,5.34-2.84,8.94-7.1,10.48-13.06,1.36-5.24,1.2-10.41-.36-15.56Z"/>
        <path class="cls-1" d="M424.74,115.91c.27,1.16,1.68,1.97,2.94,1.79,6.76-.94,13.35-2.5,19.33-5.92,9.02-5.17,13.83-12.88,13.79-24.75.08-2.73-.44-6.69-1.79-10.54-.46-1.32-1.45-2.12-2.79-2.04-7.64.49-14.88,2.4-21.38,6.55-5.51,3.52-9.11,8.47-10.85,14.85-1.15,4.21-1.34,8.44-.83,12.7.3,2.48,1,4.91,1.58,7.35Z"/>
        <path class="cls-1" d="M114.14,60.67c3.65.81,7.47.84,9.96,1.09,6.81-.25,12.28-.88,17.5-2.9,10.82-4.2,18.48-11.8,23.64-22.07.6-1.2-.02-2.28-1.48-2.83-3.56-1.34-7.3-1.82-11.01-2.42-6.57-1.06-13.02-.24-19.33,1.65-10.07,3.01-17.58,9.42-23.36,18.01-5.58,8.29-4.35,7.6,4.08,9.46Z"/>
        <path class="cls-1" d="M155.69,0c-5.3,13.91-16.31,24.34-35.35,26.15-1.99.19-4.01.03-6.02.03,0,.12-.02.24-.03.37-2.72-.33-5.46-.64-8.18-1.01-.93-.12-1.6-1.4-1.32-2.31,1.11-3.61,2.61-7.05,4.54-10.3C112.53,7.48,116.49,3.19,121.13,0h34.56Z"/>
        <path class="cls-1" d="M525.64,207.75c-8.34-.53-16.53.47-24.51,2.89-5.33,1.62-10.18,4.21-14.21,8.17-5.03,4.94-7.88,10.92-8.38,17.96-.05.73.06,1.51.27,2.21.13.41.55.95.92,1.03,1.2.27,2.44.35,4.32.58,4.36-.55,9.38-.91,14.29-1.86,6.42-1.25,12.58-3.38,17.98-7.28,4.6-3.32,8-7.55,9.92-12.91,1.02-2.85,1.49-5.8,1.36-8.84-.04-.83-1.12-1.9-1.97-1.95Z"/>
        <path class="cls-1" d="M204.18,148.84c-4.39,5.9-7.76,12.31-9.89,19.37-2.3,7.62-2.84,15.31-.85,23.07,1.45,5.66,3.77,10.92,7.48,15.5.64.79,2.07.86,2.63.11,5.05-6.72,8.62-14.17,10.63-22.3.84-3.4,1.09-6.94,1.42-9.14-.17-10.25-2.88-19.41-8.75-26.47-.64-.77-2.12-.87-2.66-.14Z"/>
        <path class="cls-1" d="M253.66,134.26c-4.47,2.88-8.37,6.42-11.84,10.43-6.12,7.08-9.57,15.32-10.11,24.65-.36,6.07.57,12.02,3.06,17.64.37.84,1.78,1.21,2.58.65,6.91-4.79,12.71-10.62,16.9-17.96,3.43-6.02,5.11-12.51,5.31-19.41-.22-5.33-1.15-10.48-3.34-15.37-.4-.9-1.65-1.22-2.56-.63Z"/>
        <path class="cls-1" d="M556.36,70.3c-6.56.43-12.87,1.83-18.64,5.11-1.08.62-2.12,1.34-3.09,2.12-4.71,3.84-7.34,8.83-7.7,14.88-.16,2.73-.23,5.57.3,8.23,1.47,7.38,1.34,7.89,9.32,6.46,3.2-.58,6.38-1.29,9.39-2.59,9.46-4.08,14.49-11.14,14.48-21.58,0-3.79-.28-7.51-1.75-11.06-.37-.88-1.33-1.63-2.3-1.57Z"/>
        <path class="cls-1" d="M579.71,94.54c.85,1.36,2.17,1.81,3.88,1.29,3.86-1.18,7.41-2.97,10.6-5.45,5.51-4.28,8.1-9.99,8.18-16.89.12-3.83-.77-7.52-2.13-10.99-4.46-11.31-4.1-11.45-15.21-5.5-.88.47-1.68,1.09-2.46,1.71-6.94,5.42-9.69,12.55-8.32,21.18.83,5.22,2.62,10.15,5.46,14.66Z"/>
        <path class="cls-1" d="M270.85,284.98c-3.17-2.75-3.98-2.71-6.83.28-2.44,2.56-4.59,5.31-6.16,8.51-2.67,5.45-3.31,11.02-1.19,16.79,2.6,7.07,7.16,12.61,13.37,16.8.71.48,1.45.13,2.03-.37,3.28-2.82,5.83-6.22,7.82-10.05,1.64-3.16,2.71-6.48,2.62-10.49.25-3.5-.91-7.04-2.65-10.45-2.21-4.33-5.37-7.86-9.01-11.02Z"/>
        <path class="cls-1" d="M241.84,266.2c-6.5,1.39-12.44,3.95-17.36,8.55-2.23,2.09-4,4.54-5.11,7.39-3.03,7.78-1.85,15.3,1.71,22.58.25.5,1.36.98,1.93.85,2.2-.48,4.4-1.06,6.49-1.89,3.99-1.59,7.74-3.61,10.94-6.56,4.9-4.51,7.38-10.06,7.26-17.01,0-4.36-1.28-8.67-3.24-12.81-.31-.66-1.76-1.29-2.62-1.11Z"/>
        <path class="cls-1" d="M374.62,348.35c-2.04-8.24-6.86-14.39-14.29-18.45-5.36-2.93-11.15-4.42-17.23-4.81-3.92-.18-4.81.82-4.28,4.92.26,1.99.54,3.98,1.01,5.93,1.58,6.57,5.01,11.98,10.44,16.04,2.83,2.12,5.96,3.68,9.27,4.89,3.8,1.39,7.76,2,11.73,2.58,3.99.59,5.04-.43,4.57-4.46-.26-2.23-.67-4.46-1.22-6.64Z"/>
        <path class="cls-1" d="M411.4,299.37c1.48-.06,2.36-1.11,1.97-2.48-.82-2.88-1.5-5.84-2.66-8.59-3.7-8.79-10.1-14.79-19.18-17.82-5.28-1.76-10.69-2.6-16.27-2.24-.5.03-.99.16-1.48.24-.88.14-1.88,1.36-1.68,2.17.6,2.42,1.1,4.89,1.92,7.24,3.57,10.23,10.82,16.66,21.04,19.77,4.07,1.24,8.27,2.08,14.07,1.74-.23,0,1.02.04,2.27-.01Z"/>
        <path class="cls-1" d="M299.64,305.88c-.81-.28-2.04.33-2.42,1.28-.84,2.08-1.87,4.13-2.37,6.29-2.16,9.46-.27,17.86,6.93,24.74,4.6,4.39,9.97,7.49,15.96,9.54.87.3,2.06-.29,2.47-1.18,1.88-4.15,3.09-8.45,3.05-13.04.2-6.61-2.2-12.23-6.61-17.03-4.68-5.1-10.54-8.35-17.01-10.6Z"/>
        <path class="cls-1" d="M362.95,295.25c1.97-.2,3.95-.4,5.92-.62.62-.07.77-.46.85-1.06.31-2.36-.71-4.45-1.38-6.55-5.93-18.46-23.14-24.63-38.58-22.43-.61.09-1.41,1.07-1.33,1.6.39,2.73,1.02,5.39,1.99,7.99,3.68,9.87,10.7,16.12,20.66,19.16,3.84,1.17,7.79,1.89,11.86,1.92Z"/>
        <path class="cls-1" d="M456.28,281.67c-3.65-8.22-9.84-13.82-18.26-16.89-4.99-1.82-10.17-2.71-15.5-2.66-4.03.03-4.9,1.17-3.86,5.1.39,1.45.79,2.91,1.31,4.32,3.38,9.24,9.56,15.74,18.84,19.24,4.75,1.79,9.62,2.83,14.7,2.82.75,0,1.51,0,2.26,0,3.26-.05,4.07-.98,3.2-4.13-.73-2.65-1.57-5.3-2.68-7.8Z"/>
        <path class="cls-1" d="M503.04,264.15c-.55-.52-1.09-1.04-1.67-1.52-12.97-10.63-27.2-11.84-42.42-5.68-1.03.42-1.33,1.52-.71,2.41,7.88,11.34,18.72,17.13,33.85,17.44,1.69-.25,4.68-.63,7.64-1.15,3.18-.56,6.45-.98,9.02-3.22,1.01-.89-1.05-3.86-5.7-8.28Z"/>
        <path class="cls-1" d="M500.75,172.16c5.29,1.63,10.77,2.29,16.34,1.79,1.83-.16,2.8-1.35,2.33-2.98-1.19-4.12-2.98-7.97-5.35-11.54-4.62-6.94-10.99-11.53-18.93-14.02-3.87-1.22-7.82-1.67-13.16-1.67-.45.03-2.2.13-3.94.26-1.07.08-1.9,1.06-1.67,1.96,3.38,13.15,11.28,22.16,24.38,26.2Z"/>
        <path class="cls-1" d="M561.71,158.75c-8.07-18.21-25.44-23.27-39.15-21.94-.87.08-1.71,1.31-1.57,2.19.43,2.76,1.57,5.26,2.76,7.74,4.48,9.32,11.72,15.4,21.54,18.57,4.11,1.32,8.32,1.72,13.08,2.04,1-.06,2.5-.12,4-.23.99-.07,1.91-1.21,1.63-2.02-.73-2.13-1.37-4.3-2.28-6.35Z"/>
        <path class="cls-1" d="M598.13,133.13c-6.5-4.14-13.56-6.31-21.01-6.16-6.12-.02-11.71,1.13-17.01,3.61-.97.46-1.34,1.68-.74,2.47,3.36,4.43,7.4,8.12,12.14,11.02,7.26,4.43,15.13,6.47,23.63,5.81,4.76-.37,9.38-1.43,13.81-3.26,1.24-.51,1.66-2.02.84-3.03-3.32-4.13-7.21-7.61-11.68-10.46Z"/>
        <path class="cls-1" d="M430.47,148.87c-.41.21-.85.61-.98,1.03-.23.7-.22,1.47-.28,1.94.03,3.81.66,7.27,1.64,10.62,1.82,6.18,5.35,11.23,10.56,15.1,3.04,2.26,6.38,3.99,9.94,5.16,2.83.93,5.69,1.91,8.73,2.05,1.48.07,2.59-.7,2.5-2.05-.19-2.99-.19-6.03-.79-8.94-1.18-5.73-3.66-10.9-7.84-15.1-6.08-6.11-13.58-9.18-22.04-10.08-.47-.05-1.02.06-1.44.28Z"/>
        <path class="cls-1" d="M305.86,230.96c1.18.32,2.47.24,4.5.37,3.48-.43,7.77-.74,11.96-1.53,5.21-.99,10.18-2.77,14.61-5.83,3.81-2.64,6.8-5.98,8.67-10.23.9-2.06,1.8-4.16,1.76-6.51-.02-.93-.82-2.08-1.7-2.19-.25-.03-.5-.08-.75-.09-6.08-.42-12.05.44-17.95,1.75-3.19.71-6.23,1.92-9.11,3.54-3.57,2.01-6.62,4.57-8.98,7.91-2.36,3.34-4.06,6.97-4.19,11.13-.02.58.66,1.55,1.19,1.69Z"/>
        <path class="cls-1" d="M294.48,183.15c-8.56,1.34-15.53,5.29-20.52,12.5-1.03,1.48-.62,3.09.98,3.57,6.72,2.02,13.54,3.54,20.61,3.54,1.25,0,2.51.08,3.75-.01,4.27-.31,8.42-1.25,12.33-3.01,4.9-2.2,8.95-5.44,11.74-10.13.72-1.22.38-2.7-.86-3.06-3.36-.98-6.69-2.12-10.11-2.79-5.92-1.17-11.91-1.55-17.92-.61Z"/>
        <path class="cls-1" d="M349,237.75c.25,0,.5.11.74.09,7.81-.82,15.19-3.03,21.88-7.18,1.9-1.17,3.69-2.61,5.27-4.18,4.44-4.41,6.9-9.74,6.86-16.41-.03-.44-.07-1.19-.11-1.94-.09-1.37-1.12-2.37-2.42-2.24-7.56.72-14.72,2.75-21.29,6.64-3.49,2.07-6.43,4.76-8.66,8.17-3.11,4.77-4.58,9.95-3.83,15.67.07.5,1.05,1.36,1.56,1.37Z"/>
        <path class="cls-1" d="M438.97,236.14c5.99-.86,11.81-2.35,17.21-5.12,2.43-1.25,4.8-2.77,6.89-4.53,5.25-4.43,8-10.17,8-17.11,0-.5,0-1,0-1.5,0-.25-.03-.5-.05-.75-.12-1.78-1.22-2.85-2.9-2.67-7.06.72-13.77,2.61-19.96,6.16-2.4,1.38-4.56,3.1-6.42,5.18-4.6,5.14-6.51,11.17-5.87,18.02.16,1.71,1.28,2.6,3.1,2.34Z"/>
        <path class="cls-1" d="M423.03,211.78c-.06-.41-.35-2.39-.7-4.36-.15-.83-1.49-1.75-2.28-1.59-8.54,1.75-16.27,5.14-22.43,11.51-2.84,2.94-4.81,6.43-5.8,10.43-1.04,4.21-1.21,8.43.18,12.62.31.94,1.45,1.6,2.36,1.35,4.61-1.29,9.07-2.94,13.29-5.23,3.34-1.81,6.38-4,9-6.76,4.35-4.59,6.65-9.98,6.37-17.96Z"/>
        <path class="cls-1" d="M441.03,53.77c1.19-.1,3.69-.3,6.18-.52.91-.08,1.6-1.43,1.22-2.28-.21-.45-.33-.96-.59-1.37-8.82-13.71-21.26-20.92-37.69-20.79-2.98.02-5.97.55-8.94.94-.27.04-.68.77-.63,1.13.1.71.36,1.45.73,2.07,5.8,9.69,14.12,16.07,25.01,19.19,4.4,1.26,8.87,1.59,14.7,1.62Z"/>
        <path class="cls-1" d="M499.17,62.84c.91-.07,3.16-.22,5.4-.4.24-.02.58-.06.7-.22.28-.38.68-.86.64-1.26-.08-.72-.32-1.49-.71-2.1-9.01-14.31-22.07-21.39-38.9-21.59-2.73-.03-5.53-.09-8,1.45-.24,3.06,1.98,4.96,3.56,7.04,5.78,7.63,13.37,12.7,22.59,15.35,4.39,1.26,8.84,1.7,14.72,1.73Z"/>
        <path class="cls-1" d="M558.62,0c-.3.98-.65,1.95-1.03,2.91-2.46,6.19-7.04,10.19-13.18,12.52-3.89,1.48-6.65,1.88-11.77,1.82-1,0-2,.04-2.99,0-3.17-.14-4.25-1.17-3.86-4.06.36-2.72.73-5.48,1.55-8.08.57-1.82,1.33-3.53,2.29-5.11h29Z"/>
        <path class="cls-1" d="M506.27,3.4c-3.51.07-7.05.36-10.52.02-5.1-.5-9.83-1.62-14.18-3.41h25.64c.1.19.16.41.27.61.72,1.33.14,2.76-1.21,2.78Z"/>
        <path class="cls-1" d="M566.62,44.78c-6.33-5.16-13.43-8.88-21.45-10.43-9.81-1.89-18.96-.04-27.16,5.85-.19.14-.4.37-.44.6-.09.46-.28,1.17-.06,1.37,1.48,1.34,2.95,2.71,4.61,3.81,7.48,4.95,15.56,8.08,24.03,7.86,7.9,0,14.52-2.01,20.54-6.01,1.13-.75,1.11-2.09-.07-3.05Z"/>
        <path class="cls-1" d="M631.8,115.25c-5.09-2.93-10.52-4.71-16.47-4.54-5.43,0-9.55,1.02-14.45,3.55-1.2.62-1.38,2.08-.35,3.06,1.09,1.04,2.16,2.11,3.33,3.04,8.53,6.79,18.06,9.56,28.88,7.12,2.71-.61,5.32-1.43,7.71-2.87.93-.56,1.03-1.57.22-2.45-2.58-2.78-5.58-5.05-8.86-6.93Z"/>
        <path class="cls-1" d="M434.03,133.46c-.12-.17-.25-.49-.37-.49-.77.01-1.54.03-2.31.05.7.24,1.4.53,2.11.74.15.04.38-.19.57-.3Z"/>
        <path class="cls-1" d="M456.45,24.97c.38-.13.9-.7.87-1.02-.04-.37-.59-.95-.96-.98-1.49-.13-3-.18-4.49-.09-.63.04-1.26.05-1.89.07.98.41,1.93.91,2.85,1.51,1.07.7,2.36.92,3.61.51Z"/>
      </g>
    </g>
  </g>
</svg>