<?xml version="1.0" encoding="UTF-8"?>
<svg id="Layer_2" data-name="Layer 2" xmlns="http://www.w3.org/2000/svg" viewBox="0 0 115.99 131.58">
  <defs>
    <style>
      .cls-1 {
        fill: #dcffeb;
        stroke-width: 0px;
      }
    </style>
  </defs>
  <g id="Layer_2-2" data-name="Layer 2">
    <g id="Layer_1-2" data-name="Layer 1-2">
      <g>
        <path class="cls-1" d="M83.38,48.32c-.34.09-.69.14-1.04.17-.24.02-.48.04-.72.08-.26.04-.56-.05-.76.14-.19.18-.22.48-.31.72-.34.89-.67,1.78-1.01,2.66-.56,1.44-1.24,2.83-2.02,4.17-.2.34-.39.69-.58,1.04-.03.05-.09.11-.03.16s.12,0,.17-.04c.13-.04.25-.07.37-.13,2.81-1.21,5.68-2.29,8.55-3.37,2.66-1,5.33-1.99,7.96-3.05.65-.26,1.3-.54,1.96-.8.14-.05.21-.15.25-.29.07-.3.14-.6.21-.9.2-.79.46-1.56.81-2.3.04-.08.1-.14.16-.2.01,0,.04-.02.06-.02.01,0,.03.04.03.06,0,.09,0,.18-.04.26-.32.92-.52,1.87-.72,2.82v.07c0,.07.06.14.11.12.1-.03.21-.06.31-.11,1.66-.73,3.29-1.5,4.86-2.4.11-.06.24-.11.36-.16.06.05.11.09.17.14-.09.09-.18.2-.27.28-1.27,1.08-2.64,2-4.08,2.82-1.75.99-3.59,1.79-5.48,2.48-.39.14-.78.29-1.17.45-.03,0-.05.06-.07.1-.02.04,0,.07.06.09.04,0,.08.03.12.04,1.42.49,2.85.95,4.3,1.32.17.04.34.1.51.15,0,.06,0,.11-.01.17-.79-.05-1.57-.23-2.34-.4-1.06-.23-2.1-.51-3.13-.84-.11-.03-.21-.06-.32-.1-.22-.09-.42-.07-.64,0-.64.25-1.28.48-1.92.72-2.31.87-4.61,1.76-6.87,2.76-2,.89-3.94,1.89-5.8,3.03-.07.05-.14.1-.2.16-.02.02,0,.1.01.1.17.06.33.12.5.17,2.79.83,5.61,1.56,8.44,2.21,1.87.43,3.75.8,5.64,1.13,1.41.24,2.83.44,4.25.63.09.01.17.03.26.05v.17s-.09.02-.13.02c-.68-.05-1.37-.11-2.05-.17-.48-.04-.97-.1-1.45-.16-1.19-.13-2.36-.32-3.54-.51-2.9-.48-5.77-1.08-8.64-1.72-1.38-.31-2.76-.62-4.13-.93-.02,0-.04,0-.06-.02-.5-.09-.46-.1-.86.18-1.19.84-2.33,1.76-3.43,2.72-1.37,1.19-2.67,2.45-3.88,3.81-.71.79-1.37,1.61-1.97,2.49-.37.55-.7,1.12-1,1.71-.39.78-.51,1.59-.4,2.45.12.94.33,1.87.55,2.79.02.08.16.11.22.06.1-.09.2-.17.3-.26,1.4-1.37,3.05-2.32,4.88-2.98,1-.36,2.03-.59,3.07-.79,1.24-.24,2.47-.46,3.69-.79.55-.15,1.1-.32,1.65-.49.15-.04.3-.09.45-.13,0,.07.01.14.02.21-.12.14-.3.18-.45.26-.33.17-.67.34-1.01.5-.05.02-.08.06-.05.11.02.03.06.06.09.06.42.04.83.09,1.25.12.99.08,1.98.19,2.96.34.7.1,1.4.21,2.09.32.94.15,1.87.31,2.81.46,1.05.17,2.09.34,3.14.49.85.12,1.71.23,2.56.33.33.04.66.06.99.08.38.02.74.07,1.11.16,0,0,0,.03.01.05-.04,0-.08-.02-.12-.02-1.08.04-2.16.04-3.25-.02-.31-.02-.62-.03-.93-.04-1.28-.04-2.56-.14-3.83-.24-.99-.08-1.98-.13-2.97-.19-.06,0-.09.02-.09.07v.06s.02.04.04.05c.01.02.03.04.04.05.81.91,1.61,1.82,2.55,2.6.03.03.05.07.08.1-.06.05-.12.1-.18.15-.1-.05-.2-.09-.29-.15-1.07-.72-2.05-1.53-2.96-2.45-.2-.2-.37-.44-.63-.58-.26-.01-.53-.03-.79-.03h-2.25c-1.26.01-2.51.15-3.75.41-.95.2-1.88.48-2.77.88-2.25,1.01-3.89,2.63-4.96,4.85-.49,1.02-.82,2.09-1.05,3.2-.29,1.44-.37,2.89-.32,4.35.04,1.28.17,2.56.35,3.82.2,1.44.48,2.87.8,4.29.34,1.51.72,3,1.17,4.48.18.61.12.56.76.59.42.02.84.03,1.26.04,1.08.03,2.16.13,3.23.29.85.13,1.69.34,2.52.57.72.2,1.45.39,2.19.53.82.15,1.65.28,2.49.35,1.78.17,3.57.19,5.36.18.91,0,1.81.02,2.71.08.77.06,1.53.17,2.27.42v.19c-.24-.03-.48-.05-.72-.09-1.8-.28-3.61-.27-5.42-.2-1.19.05-2.38.1-3.57.14-1.28.04-2.56,0-3.83-.17-.26-.03-.53-.05-.79-.06-.04,0-.07.03-.11.05-.04.02-.01.12.05.17.08.07.16.15.25.22.46.31.91.63,1.38.92.66.41,1.37.71,2.14.84.13.02.26.06.39.08.67.1,1.27.35,1.83.73.7.48.46.43,1.4.41,1.46-.04,2.91-.08,4.37-.13.82-.03,1.63,0,2.45.06.62.04,1.22.18,1.82.31,1.18.27,2.36.28,3.55.13.68-.09,1.36-.18,2.04-.19.69-.01,1.37.07,2.04.19.46.08.91.18,1.37.25s.92.15,1.38.18c.37.03.75,0,1.12-.01.55-.02,1.1-.06,1.65-.07.24,0,.48.04.72.06v.04c-1.11.22-2.22.35-3.35.28-.7-.04-1.41-.1-2.11-.16-.66-.05-1.32-.11-1.98-.16h-.33c-1.19.02-2.38.09-3.56.25-.09.01-.17.04-.25.08-.03.01-.05.06-.07.1.37.08.73.15,1.1.25.64.16,1.26.39,1.87.66.44.2.88.4,1.32.62.5.25,1.03.4,1.57.5.3.06.61.1.91.15.46.08.9.19,1.32.42v.2c-1.23-.23-2.46-.43-3.68-.72-.6-.14-1.18-.33-1.74-.6-.3-.15-.61-.26-.92-.34-.74-.2-1.48-.41-2.22-.61-.21-.06-.42-.11-.64-.16-.03,0-.06.05-.1.08h.02s0-.09,0-.09c-.06,0-.11.01-.16.03,0,0,0,.07.01.1-.05.04-.09.07-.14.11-.11-.03-.21-.05-.32-.08-.95-.27-1.9-.35-2.88-.2-.03,0-.05.06-.07.09,0,.01.01.04.02.05.05.04.1.09.15.13.14.1.29.2.44.3.76.55,1.39,1.22,1.75,2.11.13.31.35.5.66.6.23.07.47.14.71.16.42.04.84.07,1.25.07.88,0,1.76-.04,2.64-.15.48-.06.97-.07,1.45-.06.98.03,1.8.39,2.46,1.11.18.2.35.39.52.6.73.91,1.63,1.6,2.68,2.11.12.06.23.13.35.19v.21c-.68-.09-1.33-.29-1.96-.57-.48-.21-.87-.52-1.18-.94-.13-.18-.26-.36-.39-.53-.12-.16-.24-.32-.37-.47-.54-.65-1.25-.96-2.08-1.02-.42-.03-.84-.02-1.26.04-.55.08-1.09.16-1.64.24-.44.06-.87.14-1.31.18-.94.1-1.85-.04-2.7-.46-.67-.33-1.2-.81-1.57-1.47-.03-.06-.06-.12-.09-.18-.37-.74-.94-1.27-1.64-1.68-.06-.03-.11-.07-.17-.1-.73-.37-.61-.34-1.32-.25-.73.09-1.45.12-2.18,0-.48-.08-.94-.24-1.38-.46-.16-.08-.32-.16-.46-.26-.29-.19-.59-.28-.93-.26-.73.04-1.46.06-2.18.08-.08,0-.16.11-.15.18,0,.04.01.09.03.13.16.57.47,1.04.95,1.4.12.09.25.18.38.26s.27.15.39.25c.66.49,1.42.8,2.19,1.07,1.42.5,2.88.84,4.38,1,.75.08,1.49.16,2.22.37.28.08.55.16.82.26.7.25,1.3.64,1.8,1.2.03.03.06.07.09.1.2.2.35.45.6.61.28.03.57.06.85.07.66.03,1.32.12,1.96.31.25.07.52.13.74.29-.05.04-.11.08-.16.12-.37-.07-.73-.14-1.1-.21-.5-.09-1-.12-1.51-.09-.06,0-.08.03-.08.08,0,.02,0,.05.01.06.1.09.2.17.31.25.38.26.77.52,1.14.79.29.2.57.42.84.64.74.6,1.11,1.4,1.22,2.34.04.31.07.61.08.92.01.49.09.96.26,1.42-.06,0-.13,0-.19.01-.44-.38-.65-.88-.8-1.42-.06-.23-.09-.48-.13-.72-.02-.09-.02-.18-.03-.26-.11-.73-.42-1.34-1.02-1.79-.65-.49-1.29-1-1.94-1.5-.28-.21-.57-.42-.85-.63-.11-.08-.24-.11-.37-.1-.44.03-.88.05-1.32.09-1.54.13-3.09.12-4.64.07-.68-.02-1.37-.06-2.04-.21-.08-.02-.17.1-.14.17.03.08.07.17.13.22.15.13.31.25.49.34.31.16.64.31.97.43.6.23,1.2.44,1.81.65.54.19,1.08.38,1.62.59.33.13.65.28.96.44.28.14.52.33.73.56.5.54.5,1.26.08,1.82-.18.23-.38.43-.62.59-.2.13-.42.25-.63.36-.05.03-.13.02-.19.03-.06-.1,0-.16.07-.22.39-.42.5-.92.49-1.47,0-.3-.11-.56-.32-.78-.19-.19-.4-.34-.63-.47-.46-.27-.95-.46-1.46-.62-.74-.24-1.48-.45-2.22-.68-.48-.15-.96-.32-1.45-.48-.77-.25-1.29-.74-1.56-1.51-.06-.17-.14-.32-.21-.49-.28-.69-.8-1.09-1.52-1.24-1.01-.21-2.02-.17-3.02.06-.3.07-.59.18-.86.34-.19.11-.37.24-.52.41-.3.33-.36.71-.17,1.1.09.18.2.34.32.5.14.2.3.38.46.57.15.19.32.37.45.57.43.65.23.52.99.56.07,0,.13,0,.2.01.77.06,1.46.32,2.04.85.16.15.33.29.49.45.66.64,1.46.98,2.36,1.09.53.07,1.05.11,1.58.13.53.01,1.06.07,1.58.18.83.17,1.61.49,2.3.97.19.13.39.19.61.15-.07.12-.1.22.02.34.18.18.4.33.5.58-.01.07-.02.15-.04.22-.53-.27-1.06-.54-1.59-.81-.66-.33-1.35-.52-2.09-.6-.64-.07-1.27-.11-1.91-.12-.42-.01-.84-.05-1.25-.08-.12,0-.2.07-.19.2.01.15.03.31.04.46.04.6-.05,1.19-.21,1.77-.13.47-.28.93-.41,1.39-.07.25-.14.51-.21.76-.1.33-.05.66.06.97.04.13.09.25.14.37.19.41.28.84.31,1.28.07,1.12-.33,2.03-1.29,2.65-.09.06-.2.09-.3,0h.01c.51-.52.66-1.17.6-1.88-.02-.26-.08-.52-.13-.78-.07-.32-.15-.64-.24-.96-.18-.7-.18-1.4,0-2.09.13-.49.26-.98.38-1.47.07-.28.13-.56.17-.84.09-.69-.06-1.31-.53-1.84-.22-.25-.42-.51-.63-.77-.11-.14-.22-.27-.34-.41-.46-.57-1.07-.91-1.77-1.09-.13-.03-.26-.05-.39-.08-.58-.13-.51-.11-.77.34-.21.36-.5.67-.77.99-.21.25-.43.51-.63.77-.19.25-.31.53-.4.83-.1.37-.04.7.14,1.02.06.11.13.23.19.34-.05,0-.11,0-.16.01-.57-.2-.99-.57-1.3-1.07-.26-.43-.28-.88-.03-1.32.13-.23.29-.44.47-.64.23-.27.49-.51.73-.77.18-.19.38-.37.49-.62.02-.05,0-.09-.04-.11-.1-.03-.21-.07-.32-.08-.35-.02-.7-.09-1.05-.16-.26-.05-.51-.14-.75-.26-.18-.09-.34-.21-.48-.35-.35-.34-.46-.75-.31-1.21.1-.31.23-.62.36-.93.18-.43.28-.88.29-1.35,0-.33,0-.66-.1-.99-.13-.45-.34-.86-.67-1.21-.37-.39-.35-.35-.8-.35-.77,0-1.55-.03-2.31-.16-.12-.02-.19.06-.18.2.02.13.04.26.06.39.01.09.02.18.03.26.02.49-.13.92-.48,1.26-.17.17-.37.31-.57.46-.21.16-.44.29-.66.45-.14.1-.28.22-.41.34-.37.36-.48.82-.24,1.33.09.2.21.39.32.58.1.17.2.34.3.51.27.47.3.97.16,1.47-.09.34-.24.66-.37.99-.13.31-.28.6-.41.9-.13.28-.22.58-.26.89-.09.64.12,1.17.6,1.6.22.19.46.34.72.47.34.16.69.3,1.05.4.62.18,1.23.34,1.85.53.38.12.75.25,1.12.4.52.21.97.53,1.34.95.8.87,1.12,1.89.92,3.06-.1.59-.34,1.14-.8,1.56-.06,0-.12,0-.18,0,.12-.4.31-.78.39-1.19.09-.49.09-.96-.03-1.44-.19-.75-.62-1.31-1.27-1.71-.32-.2-.67-.34-1.04-.42-.56-.12-1.12-.26-1.68-.38-.5-.11-.98-.26-1.46-.43-.4-.14-.76-.36-1.07-.65-.18-.17-.35-.34-.53-.5s-.37-.32-.56-.47c-.17-.14-.37-.24-.59-.3-.36-.11-.7-.06-.98.21-.09.09-.19.19-.27.29-.11.14-.22.28-.3.44-.42.75-.9,1.47-1.28,2.24-.27.54-.62,1.02-1.04,1.44-.22.22-.44.44-.64.67-.17.2-.33.42-.46.64-.16.27-.22.57-.16.89.04.24.09.48.13.72.03.19.08.39.03.59,0,0-.03.03-.04.03h-.06c-.09-.12-.2-.24-.27-.37-.48-.95-.44-1.87.17-2.76.14-.2.31-.37.47-.55.18-.19.37-.38.56-.57.3-.3.51-.66.66-1.06.2-.56.42-1.11.64-1.67.06-.14.11-.29.17-.43.27-.67.72-1.21,1.32-1.62.2-.14.4-.27.6-.41.57-.38.98-.89,1.22-1.53.15-.39.29-.79.33-1.21.06-.68-.12-1.27-.6-1.76-.15-.16-.31-.31-.46-.47s-.32-.33-.36-.55c-.05-.27-.24-.35-.46-.4-.47-.11-.95-.22-1.42-.32-.58-.12-1.17-.24-1.75-.35-.04,0-.08.01-.13.03-.04.01-.05.11-.02.18.03.06.05.12.08.18.09.13.18.25.27.37.08.11.17.21.25.31.71.91.62,2.12-.16,2.97-.29.31-.63.55-1.01.74-.3.14-.6.28-.9.41-.05.02-.04.11.02.15.13.08.26.16.39.25.17.11.33.22.49.34.2.15.36.33.48.54.19.35.25.7.1,1.08-.14.34-.35.61-.66.81h-.06s-.08-.02-.08-.08c0-.11,0-.22.03-.33.05-.19.11-.38.17-.57.07-.21.02-.39-.09-.57-.12-.19-.28-.34-.46-.47-.29-.2-.59-.39-.89-.58-.42-.26-.37-.29-.92-.09-.27.1-.54.2-.8.31-.3.13-.59.3-.85.51-.57.45-1.05.96-1.01,1.76,0,0-.02.02-.03.02-.02,0-.04-.01-.06-.03-.16-.19-.23-.43-.26-.67-.09-.68.12-1.26.6-1.75.2-.21.43-.38.69-.51.29-.15.6-.28.9-.42.08-.04.16-.07.24-.1.06-.03.09-.12.05-.16-.18-.22-.36-.44-.56-.65-.27-.29-.55-.57-.83-.85-.16-.16-.31-.32-.48-.46-.15-.13-.32-.24-.49-.34-.34-.2-.7-.25-1.09-.18-.33.06-.65.14-.95.29-.24.12-.48.23-.7.37-.82.55-1.72.89-2.7,1.04-.06,0-.13.03-.19.06-.03.02-.06.07-.06.11s.02.09.04.12c.08.18.18.35.26.54.14.32.12.64,0,.97-.09.25-.22.48-.38.7-.17.23-.35.45-.52.69-.17.23-.34.46-.49.71-.35.56-.39,1.17-.2,1.78.1.31.25.61.4.91.17.33.37.65.56.98.17.31.33.62.45.96.29.8.22,1.56-.17,2.3-.2.37-.42.72-.79.96-.04-.04-.08-.09-.12-.13,0-.04,0-.09.02-.13.32-.73.26-1.46.02-2.19-.11-.31-.24-.61-.38-.91-.17-.36-.36-.7-.54-1.06-.2-.42-.38-.84-.49-1.29-.11-.48-.11-.96.03-1.44.09-.32.22-.62.37-.92.16-.32.32-.63.47-.95.12-.26.24-.52.32-.79.16-.5.14-1-.1-1.48-.06-.12-.18-.19-.32-.17-.65.09-1.31.17-1.96.32-.41.09-.81.23-1.18.41-.32.15-.61.35-.86.61-.53.56-.63,1.26-.31,1.95.12.26.3.48.47.72.03.05.03.12.04.18h0c-.71-.37-.84-.49-1.4-1.27-.06.03-.13.04-.17.09-.37.32-.8.55-1.23.77-.43.22-.87.43-1.31.64-.44.21-.86.44-1.27.71-.31.21-.61.44-.86.72-.41.44-.61.96-.58,1.57.03.69.11,1.36.43,1.99-.04.04-.09.08-.13.12-.18-.05-.28-.2-.4-.33-.48-.52-.76-1.13-.83-1.83-.06-.61.1-1.18.43-1.7.2-.32.46-.59.77-.81.32-.23.65-.45.99-.65.47-.29.95-.55,1.43-.83.46-.27.91-.54,1.32-.87.24-.19.47-.4.62-.68.05-.1.09-.2.07-.31,0-.06-.07-.13-.13-.12-.3.05-.6.14-.91.17-1.19.14-2.37.13-3.56.03-.77-.06-1.53-.15-2.29-.32-.06-.01-.13-.02-.2-.01-.06.01-.14.04-.16.08-.17.41-.33.81-.49,1.23-.05.14-.09.3-.12.45-.08.37,0,.7.2,1.01.07.11.16.21.24.32,0,.06,0,.12-.02.17-.33-.06-.61-.23-.88-.42-.22-.15-.4-.34-.54-.56-.23-.37-.33-.76-.2-1.19.06-.19.12-.37.2-.55.05-.12.11-.24.16-.35.05-.03.1-.07.05-.13-.02-.02-.07-.02-.1-.02-.02,0-.03.02-.05.02-.25,0-.47.1-.69.19-.14.06-.29.11-.43.16-.05-.04-.09-.09-.14-.13.18-.24.45-.35.7-.48.2-.09.41-.16.62-.23.41-.14.4-.16.23-.56-.11-.26-.26-.51-.39-.76-.25-.49-.48-.99-.57-1.54-.03-.17-.1-.28-.28-.32-.3-.06-.6-.14-.9-.19-.15-.03-.31-.02-.46-.01-.46.03-.85.2-1.17.54-.22.22-.39.48-.53.76-.16.32-.29.64-.44.96-.12.26-.24.52-.36.78-.22.45-.55.8-.98,1.05-.26.16-.54.29-.82.42-.4.18-.81.33-1.25.4h.01s0-.08.03-.1c.11-.08.22-.15.33-.22,1.07-.68,1.88-1.6,2.48-2.7.11-.19.2-.39.3-.59.23-.48.48-.94.78-1.38.02-.03.02-.09,0-.12-.01-.03-.06-.05-.09-.06-.04-.01-.09,0-.13,0-1.15.08-2.28.23-3.38.6-.75.26-1.51.48-2.24.79-.01,0-.05-.01-.06-.03v-.06c.06-.07.11-.14.18-.19.38-.31.8-.55,1.24-.76.88-.42,1.81-.7,2.76-.88.83-.16,1.66-.24,2.5-.26.71-.02,1.41-.09,2.11-.16,1.06-.11,2.07-.41,2.99-.99.39-.25.8-.47,1.24-.63.15-.06.26-.16.33-.31.43-.86,1.04-1.58,1.76-2.22.16-.15.32-.3.48-.46.04-.04.06-.11.09-.17.02-.05,0-.08-.04-.11-.11-.09-.24-.11-.37-.09-.9.1-1.79.27-2.63.63-.53.23-1.04.47-1.57.71-.48.21-.97.43-1.46.63-.29.12-.56.26-.8.46-.52.43-1.11.71-1.75.91-.53.16-1.05.33-1.59.47-.36.09-.7.26-1.08.3-.06-.05-.12-.09-.18-.14.43-.35.92-.6,1.47-.73.26-.06.51-.14.77-.21.37-.1.69-.28.99-.52.35-.27.7-.55,1.05-.81.66-.49,1.37-.88,2.17-1.1.08-.02.16-.07.23-.11.02,0,.03-.03.04-.05,0-.01-.02-.04-.03-.04-.12-.05-.24-.12-.37-.15-.41-.09-.82-.18-1.23-.25-.35-.06-.7-.1-1.05-.13-.49-.04-.97-.04-1.45.03-.5.06-1.01.14-1.51.18-.51.04-1.01.04-1.52.05-.33,0-.66-.03-.98-.13-.28-.09-.56-.08-.85-.04-.68.09-1.35.22-2.01.41-.38.11-.76.25-1.1.44-1.14.64-2.32,1.18-3.49,1.75-.57.28-1.14.57-1.71.87-.22.11-.42.24-.63.36-.39.24-.65.59-.79,1.03-.05.17-.1.34-.14.51-.17.68-.56,1.19-1.17,1.53-.04-.05-.07-.1-.11-.15.19-.38.25-.8.28-1.22.02-.27.06-.53.15-.78.17-.47.43-.86.84-1.16.29-.21.58-.4.9-.55.52-.25,1.04-.49,1.56-.73.3-.14.6-.27.9-.41.53-.24,1.02-.52,1.49-.86.04-.03.07-.05.11-.08.91-.7,1.96-1.1,3.07-1.34.91-.19,1.83-.32,2.75-.4,2.07-.19,4.12-.47,6.14-.98.3-.08.6-.14.9-.22.49-.13.98-.28,1.44-.49.34-.15.7-.28,1.04-.43.26-.12.52-.24.77-.39.49-.3.81-.74.99-1.29.06-.17-.11-.36-.3-.33-.13.02-.26.05-.39.08-.41.1-.81.2-1.22.29-.1.02-.2.06-.3-.01.06-.11.19-.11.28-.15.2-.09.42-.14.63-.21.02,0,.04-.04.04-.05-.02-.03-.05-.07-.07-.07-.22.02-.44.04-.66.08-.59.11-1.14.33-1.7.54-.54.2-1.07.41-1.62.57-1,.3-2.04.37-3.08.34-.97-.02-1.94-.09-2.91-.15-1.13-.07-2.25-.1-3.38-.03-.53.03-1.05.13-1.57.2v-.21c.12-.05.24-.11.37-.14.6-.15,1.21-.25,1.83-.3.97-.08,1.94-.07,2.91-.03s1.94.05,2.92.05c.73,0,1.45-.09,2.17-.22.59-.11,1.15-.29,1.7-.53.28-.12.57-.24.85-.38.94-.46,1.94-.72,2.98-.83,1.15-.12,2.25-.43,3.32-.88.61-.26,1.22-.51,1.81-.82.35-.18.74-.3,1.12-.4.96-.27,1.93-.45,2.94-.47.64-.01,1.28-.04,1.92-.09.46-.04.92-.12,1.38-.18.31-.04.61-.09.92-.11.22-.01.37-.11.52-.26.37-.38.7-.8,1.01-1.23.76-1.07,1.34-2.23,1.83-3.44.59-1.48,1.01-3.01,1.33-4.57.21-1,.36-2,.49-3.01.09-.68.13-1.36.19-2.04.17-1.9.16-3.8.1-5.7-.04-1.28-.15-2.56-.38-3.82-.17-.94-.43-1.85-.82-2.72-.61-1.36-1.49-2.5-2.72-3.36-1-.7-2.12-1.07-3.34-1.14-1.27-.07-2.51.13-3.72.49-1.19.35-2.33.82-3.45,1.34-1.4.65-2.77,1.38-4.13,2.11-1.36.74-2.71,1.48-4.12,2.13-.16.07-.31.18-.49.18-.05-.04-.1-.08-.14-.12.07-.05.13-.11.21-.16.9-.55,1.77-1.15,2.62-1.77.55-.4,1.07-.85,1.57-1.31.03-.03.07-.06.08-.1,0-.04,0-.08,0-.12,0-.01-.03-.03-.05-.03-.06,0-.13-.01-.2,0-.48.07-.96.13-1.43.22-1.08.2-2.17.33-3.27.44-.06,0-.13,0-.2-.01,0-.07,0-.14-.02-.21.48-.1.95-.2,1.43-.29,1.3-.25,2.59-.53,3.85-.93,1.48-.47,2.88-1.11,4.18-1.95.42-.28.86-.55,1.29-.8,1.33-.78,2.76-1.26,4.28-1.5.39-.06.79-.09,1.18-.14.22-.03.44-.06.65-.09.05,0,.08-.04.07-.09,0-.04-.02-.08-.05-.11-.08-.07-.17-.14-.26-.2-.95-.64-1.9-1.29-2.85-1.92-.48-.32-.49-.31-1.02-.44-1.16-.27-2.32-.55-3.48-.82-2.25-.53-4.5-1.1-6.74-1.68-1.98-.52-3.96-1.06-5.92-1.65-.08-.03-.17-.04-.25-.08-.17-.07-.34-.06-.51.02-.3.14-.61.25-.92.38-.43.18-.87.31-1.33.39-.65.11-1.3.24-1.96.27v-.17c.36-.1.72-.2,1.08-.3.75-.21,1.47-.47,2.16-.82.03-.02.05-.07.07-.1.03-.05,0-.08-.05-.1-.17-.05-.34-.11-.5-.16-.69-.22-1.39-.44-2.08-.66-.27-.09-.54-.18-.81-.28-.06-.02-.12-.06-.17-.1-.03-.02-.03-.08-.03-.12,0-.06.08-.12.13-.11.17.04.34.08.51.13.57.17,1.14.34,1.71.51,2.77.81,5.58,1.5,8.4,2.1,1.68.36,3.37.68,5.07.98.56.1,1.14.14,1.71.21.03,0,.06-.04.08-.07v-.06c-.08-.07-.17-.14-.26-.2-.89-.65-1.81-1.26-2.77-1.81-1.97-1.14-3.91-2.32-5.81-3.57-1.97-1.3-3.88-2.69-5.65-4.26-1.69-1.5-3.19-3.17-4.46-5.05-.07-.11-.12-.23-.19-.35.05-.05.09-.1.14-.16.05.04.11.08.15.13,1.4,1.63,2.99,3.07,4.65,4.42,2.19,1.79,4.5,3.43,6.86,4.99,3.26,2.16,6.62,4.16,10.02,6.09,3.15,1.79,6.35,3.48,9.55,5.17.35.19.7.38,1.05.56.25.13.51.26.77.38.2.09.31,0,.28-.19-.02-.13-.04-.26-.06-.39-.2-1.08-.4-2.17-.61-3.25-.24-1.26-.47-2.52-.71-3.77-.07-.39-.16-.78-.25-1.17-.02-.11-.06-.21-.09-.32-.04-.14-.15-.22-.28-.26-.08-.02-.17-.05-.26-.07-1.01-.25-1.98-.61-2.92-1.07-.79-.39-1.59-.78-2.41-1.11-1.31-.53-2.59-1.13-3.83-1.8-1.5-.81-2.94-1.7-4.32-2.7-.1-.08-.23-.14-.27-.27,0-.03,0-.09.02-.12s.08-.06.11-.05c.18.08.36.16.53.26,1.29.73,2.6,1.41,3.96,2.01,1.47.65,2.95,1.29,4.47,1.84,1.33.48,2.69.85,4.07,1.16.19.04.39.08.58.12.05,0,.12-.08.1-.13-.04-.1-.08-.21-.12-.3-1.74-3.6-3.23-7.31-4.64-11.05-.37-.97-.73-1.94-1.1-2.91-.04-.1-.08-.21-.12-.31-.07-.2-.18-.34-.38-.43-.42-.19-.83-.41-1.25-.62-2.47-1.24-4.92-2.5-7.33-3.86-1.98-1.11-3.93-2.29-5.8-3.59-1.25-.87-2.47-1.79-3.6-2.82-.16-.15-.34-.28-.46-.47.02-.09.03-.17.05-.26.11.07.22.14.33.22,1.38,1.07,2.83,2.03,4.32,2.93,2.59,1.56,5.28,2.94,8.01,4.23,1.74.82,3.49,1.59,5.27,2.32.14.06.28.12.43.17.04,0,.08,0,.12,0s.06-.11.04-.18c-.05-.15-.09-.29-.15-.44-.74-2.05-1.42-4.13-2.05-6.22-.57-1.92-1.09-3.86-1.53-5.82-.02-.11-.05-.22-.09-.32-.03-.08-.08-.16-.15-.21-.17-.14-.36-.26-.54-.39-1.17-.83-2.3-1.72-3.35-2.69-.22-.21-.47-.4-.64-.67.05-.04.1-.09.15-.13.13.09.26.17.37.26,1.12.92,2.31,1.76,3.51,2.57.07.05.15.08.23.11.05.02.09,0,.09-.06,0-.13,0-.26-.02-.39-.14-.8-.3-1.6-.43-2.4-.13-.82-.24-1.65-.35-2.48-.03-.26-.12-.52-.08-.78h.19c.09.41.2.81.28,1.22.67,3.26,1.49,6.48,2.43,9.67.03.1.08.21.13.3,0,.02.09.02.11,0,.08-.08.15-.16.21-.25.62-.88,1.22-1.78,1.76-2.71.05-.09.12-.18.18-.27.1,0,.2.02.3.03-.1.22-.19.45-.3.66-.5.99-1.09,1.92-1.71,2.83-.44.65-.38.43-.16,1.14,1.11,3.56,2.38,7.07,3.85,10.5.07.16.16.31.24.47.02.05.07.05.11,0,.06-.06.12-.12.17-.2.81-1.19,1.57-2.4,2.24-3.67.81-1.53,1.39-3.15,1.84-4.81.1-.38.18-.77.28-1.16.06-.23.13-.46.23-.68-.05.53-.08,1.05-.15,1.58-.26,1.94-.78,3.8-1.54,5.6-.33.77-.7,1.53-1.12,2.25-.39.67-.8,1.32-1.2,1.98-.07.11-.14.22-.21.34-.04.08-.05.17,0,.25.03.08.07.16.1.24,1.63,3.58,3.49,7.04,5.61,10.36.05.07.11.13.17.19,0,0,.06,0,.06,0,.02-.04.05-.07.05-.12.07-.41.14-.83.2-1.24.16-1.12.39-2.22.65-3.31.65-2.77,1.49-5.49,2.38-8.2,1.28-3.88,2.68-7.71,4.08-11.55.53-1.45,1.06-2.9,1.59-4.35.05-.12.09-.25.12-.38.01-.06,0-.14-.04-.19-.09-.12-.2-.24-.3-.35-.69-.77-1.38-1.56-2.02-2.37-.08-.1-.14-.22-.21-.33.05-.06.1-.11.15-.17.08.07.17.14.25.21.72.71,1.43,1.43,2.14,2.15.06.06.13.11.2.17.04.04.15.02.17-.03.05-.12.1-.24.14-.37.19-.61.37-1.22.56-1.83.05-.15.1-.29.15-.44h.19c-.08.7-.26,1.39-.42,2.07-.62,2.71-1.45,5.36-2.38,7.98-.44,1.25-.89,2.49-1.32,3.74-.07.19-.24.38-.08.61.23.02.35-.16.5-.28.44-.37.87-.75,1.29-1.14,1.81-1.66,3.61-3.32,5.41-4.97.59-.54,1.18-1.07,1.77-1.6.13-.12.27-.22.41-.33.11.01.23.02.34.03-.1.23-.29.38-.46.56-1.3,1.44-2.67,2.83-4.06,4.18-1.76,1.71-3.52,3.41-5.28,5.12-.51.5-.5.5-.73,1.22-.53,1.73-.95,3.49-1.31,5.27-.23,1.17-.45,2.34-.63,3.52-.18,1.13-.31,2.27-.46,3.41-.15,1.12-.24,2.24-.33,3.36-.09,1.17-.12,2.34-.06,3.51,0,.29.06.57.13.85.15.64.29,1.29.41,1.94.3,1.56.57,3.13.93,4.67.09.39.19.77.29,1.15,0,.05.12.07.17.03.08-.07.16-.15.24-.23,1.5-1.63,3.12-3.12,4.83-4.53.1-.08.2-.17.31-.25.09-.08.13-.18.11-.29-.05-.3-.12-.61-.17-.91-.37-2.03-.47-4.08-.3-6.14.11-1.32.34-2.63.67-3.91.03-.13.09-.25.13-.37.03-.08-.02.02.06-.02.04-.02.08,0,.08.06-.02.31-.04.61-.08.92-.16,1.38-.23,2.77-.13,4.16.12,1.7.4,3.37.78,5.03.01.06.03.13.05.19.05.21.12.23.32.09.13-.09.25-.18.38-.27,1.73-1.27,3.53-2.43,5.42-3.45.49-.27.91-.61,1.26-1.06,1.35-1.71,2.48-3.54,3.4-5.51.53-1.14,1.01-2.31,1.45-3.48.28-.72.54-1.45.84-2.16.12-.28.12-.55.04-.83-.23-.78-.41-1.58-.56-2.38-.35-1.9-.45-3.81-.19-5.74,0-.02.01-.04.02-.06h.18c.01.2.03.4.03.59.02.62.04,1.23.12,1.85.13,1.1.36,2.18.63,3.25.11.43.23.85.35,1.27,0,.02.03.05.03.05.04,0,.09-.02.11-.05.05-.07.09-.15.12-.23.26-.61.51-1.22.77-1.83.8-1.89,1.9-3.58,3.24-5.13.06-.07.13-.11.2-.17.11,0,.22.02.33.02-.02.06-.04.13-.08.18-1.4,2.23-2.51,4.61-3.48,7.05-.42,1.07-.81,2.14-1.22,3.22-.02.05.04.14.09.14.04,0,.09.02.13,0,.57-.03,1.15-.02,1.72-.11.13-.02.26,0,.39,0v.24ZM46.3,111.38c-.4-.02-.79-.04-1.19-.05h-.46s-.13.09-.12.14c.02.09.02.18.06.25.1.2.22.38.33.57s.24.37.34.57c.15.29.09.56-.15.78-.25.23-.55.37-.87.47-.49.14-.99.24-1.49.28-1.03.09-2.07.17-3.1.27-.48.05-.97.1-1.44.23-.09.02-.15.08-.18.17-.04.15-.09.3-.14.44-.18.48-.39.94-.72,1.33-.67.79-1.48,1.24-2.56,1.06-.02,0-.04-.01-.07-.01-.15-.02-.24.09-.2.25.07.3.18.59.31.87.17.38.35.76.47,1.17.03.13.12.18.24.19.81.07,1.63.15,2.44.19.71.04,1.41.04,2.12.04.49,0,.97-.09,1.43-.24.53-.18.93-.51,1.17-1.01.09-.18.18-.35.25-.54.28-.73.8-1.14,1.56-1.28.35-.07.69-.16,1.03-.24.65-.15,1.18-.48,1.56-1.04.14-.2.29-.39.45-.57.32-.37.73-.57,1.2-.63.2-.03.4-.04.59-.04.26,0,.53,0,.79.02.49.03.97.06,1.45.09.17,0,.26-.09.18-.24-.07-.14-.13-.28-.19-.42-.14-.34-.07-.65.14-.93.09-.12.2-.23.31-.35.12-.13.26-.24.37-.38.11-.13.22-.27.31-.42.11-.18.08-.4-.07-.55-.09-.1-.19-.19-.3-.26-.17-.1-.35-.19-.53-.27-.34-.15-.7-.28-1.04-.43-.13-.05-.25-.05-.39-.01-1.28.39-2.59.54-3.92.54h.03ZM88.91,115.48c.46-.01,1.21-.03,1.96-.05.15,0,.31-.01.46-.03.03,0,.06-.05.08-.09,0-.01,0-.04-.02-.06-.43-.46-.94-.8-1.52-1.03-.47-.19-.97-.31-1.47-.39-.59-.1-1.18-.18-1.76-.29-1.71-.34-3.4-.76-5.07-1.26-.73-.22-1.39-.56-2-1.01-.36-.26-.69-.55-.97-.89-.36-.43-.63-.9-.73-1.46-.01-.09-.03-.17-.05-.26-.04-.16-.1-.21-.28-.22-.62-.03-1.23-.07-1.85-.14-1.06-.12-2.1-.3-3.12-.57-1.12-.29-2.17-.73-3.13-1.4-.25-.18-.51-.35-.77-.51-.28-.17-.57-.33-.86-.49-.08-.04-.16-.08-.24-.11-.14-.06-.26-.02-.37.06-.07.05-.14.11-.2.17-.22.21-.25.46-.16.73.05.14.13.28.22.41.42.63.93,1.18,1.55,1.62.4.28.81.53,1.25.75.53.27,1.07.53,1.6.79.82.39,1.62.8,2.35,1.34.11.08.23.12.37.12.42,0,.84,0,1.26-.01.4,0,.79.05,1.18.13.4.08.76.24,1.08.48.14.11.28.21.41.33.48.43,1.05.65,1.66.76.35.06.7.1,1.05.15.46.06.92.13,1.37.25.47.12.84.37,1.14.75.09.12.19.25.28.37.27.37.63.61,1.07.75s.9.23,1.36.26c.86.06,1.72.1,2.87.06h0ZM39.43,109.83v-.02c.62.05,1.23.1,1.85.14.22.02.44.03.66.04.12,0,.22-.02.29-.13.33-.52.82-.86,1.34-1.16.48-.27.99-.49,1.5-.7.78-.3,1.58-.55,2.38-.8.72-.22,1.43-.44,2.14-.68.63-.21,1.25-.45,1.83-.77.15-.09.3-.19.45-.28.02-.01.03-.05.03-.06-.02-.03-.04-.07-.07-.08-.26-.08-.52-.1-.78-.06-.5.09-1,.17-1.5.27-.85.16-1.69.35-2.55.36h-1.26c-.95,0-1.89-.13-2.84-.22-.84-.07-1.67-.1-2.51-.12-.13,0-.27,0-.4.02-.08.01-.17.05-.24.1-.33.25-.53.59-.62.99-.09.38-.31.68-.58.94-.32.31-.69.55-1.08.76-.78.42-1.6.73-2.46.95-.86.22-1.73.37-2.59.53-.04,0-.09.02-.13.03-.02,0-.04.02-.06.03.02.03.04.09.07.1.62.14,1.25.28,1.87.42.59.13,1.18.12,1.77-.05.23-.06.47-.13.7-.21.78-.28,1.58-.38,2.41-.36h.4l-.02.02ZM64.01,108.5c-.27.01-.56.01-.84.05-.42.05-.82.17-1.15.46-.35.31-.46.69-.32,1.13.06.21.16.41.29.59.09.12.19.25.28.36.21.26.21.72-.03.98-.09.1-.19.18-.28.28-.04.05-.07.12-.07.17,0,.15.03.31.05.46.03.2.02.39,0,.59-.03.22-.1.43-.19.63-.04.08-.07.16-.11.24-.02.05.02.15.07.17.4.2.83.3,1.25.4.75.18,1.5.34,2.25.51.11.03.22.02.3-.07.4-.44.89-.79,1.35-1.16.26-.21.51-.42.75-.65.14-.14.26-.3.36-.47.21-.37.21-.76,0-1.13-.13-.24-.3-.43-.5-.61-.25-.21-.51-.43-.77-.62-.5-.38-.9-.84-1.13-1.43-.08-.2-.2-.39-.32-.58-.08-.14-.22-.22-.38-.23-.29-.02-.57-.05-.87-.07h0ZM59.6,112.03s-.05-.08-.08-.11c-.15-.16-.34-.27-.56-.35-.41-.15-.83-.15-1.24-.07-1.02.19-1.91.66-2.75,1.25-.38.27-.58.66-.63,1.12-.02.15-.02.31-.04.46l-.06.66c-.02.22-.09.43-.21.62-.12.2-.1.25.04.4.25.26.55.45.87.6.26.12.53.21.79.33.28.12.57.24.84.39.49.26.91.62,1.21,1.1.23.37.48.74.71,1.12.32.53.29.53.87.25.32-.15.62-.35.88-.58.2-.18.37-.38.49-.62.16-.34.16-.68-.02-1.01-.12-.22-.28-.39-.45-.57-.18-.19-.37-.38-.55-.58-.24-.28-.36-.6-.35-.97,0-.2.06-.4,0-.59-.05-.2-.29-.25-.42-.41-.07-.09-.15-.16-.21-.25-.29-.4-.29-.96.03-1.36.12-.15.28-.28.42-.42.11-.1.24-.2.35-.3.03-.02.03-.08.04-.12h.02ZM57.66,106.37c-.89,0-1.68.3-2.39.83-.34.25-.63.55-.92.85-.24.26-.48.52-.72.78-.41.44-.86.83-1.37,1.14-.07.05-.15.1-.22.15-.05.04-.04.12.02.16.13.08.26.17.4.23.58.28,1.15.55,1.73.83.11.05.21.04.31-.02.44-.27.9-.47,1.39-.62.23-.07.47-.12.7-.18.51-.13,1.02-.29,1.49-.53.38-.19.73-.41,1.02-.72.2-.21.34-.45.45-.73.24-.64.03-1.5-.75-1.92-.36-.19-.75-.25-1.15-.26h0ZM43.14,105.16c.52-.02,1.05-.05,1.58-.06.55-.01,1.1-.1,1.64-.18,1.41-.22,2.71-.76,3.98-1.35,0,0,.03-.04.02-.05-.03-.03-.06-.08-.09-.08-.31,0-.62-.02-.92-.01-.7.02-1.41.05-2.11.07-.97.03-1.93.18-2.87.43-.62.17-1.23.33-1.85.51-.3.08-.59.17-.88.28-.21.07-.41.17-.61.25,0,0-.02.03-.03.05,0,.05.02.07.08.07.68.02,1.36.04,2.05.07h0ZM51.16,116.21v-.02c-.44.01-.88.03-1.32.04-.27,0-.52.08-.77.18-.46.19-.64.6-.5,1.08.12.38.31.73.54,1.05.07.1.16.15.28.13.76-.12,1.51-.3,2.23-.59.12-.05.25-.1.36-.17.15-.09.3-.19.43-.31.35-.3.48-.76.21-1.25-.05-.08-.12-.13-.21-.13h-1.26,0ZM39.94,113.93h0c.42-.03.84-.06,1.25-.08.51-.03,1-.14,1.49-.27.17-.05.33-.13.48-.21.21-.12.26-.37.1-.56-.11-.14-.24-.26-.35-.39-.16-.18-.34-.35-.47-.55-.29-.45-.27-.36-.69-.26-.49.12-.96.31-1.41.56-.56.31-1.06.71-1.46,1.22-.12.15-.27.29-.29.5,0,.09.06.1.54.08.26,0,.53-.02.79-.03h.02ZM71.26,104.8c-.22.01-.44.02-.66.03,0,0-.02.04-.02.06,0,.08.05.11.1.15,1,.68,2.05,1.29,3.17,1.76.26.11.54.19.82.26.51.13,1.04.19,1.56.25.26.03.53.02.79.03.02,0,.05-.01.05-.02,0-.04.02-.09,0-.12-.18-.23-.41-.4-.64-.56-.43-.31-.91-.54-1.39-.75-.43-.18-.85-.35-1.28-.54-.8-.35-1.63-.54-2.5-.56h0ZM45.33,110.11h0c.75-.05,1.5-.08,2.25-.14.57-.04,1.14-.12,1.7-.28.06-.02.13-.06.15-.11.12-.31.23-.62.34-.93.03-.08-.05-.24-.14-.27-.08-.03-.17-.06-.25-.07-.36-.03-.7.05-1.05.1-.79.11-1.55.32-2.28.66-.32.15-.62.33-.9.56-.1.08-.19.18-.28.28-.02.03-.02.08-.02.12,0,.06.03.08.09.08h.4-.01ZM46.22,118.64h-.33c-1,.08-1.54.48-1.87,1.41,0,.02,0,.05,0,.07,0,.04.03.08.04.12,0,0,.04,0,.06-.01.92-.59,1.94-.93,3.01-1.12.11-.02.21-.06.32-.09.02,0,.05-.03.05-.04-.02-.03-.03-.07-.06-.09-.39-.18-.8-.24-1.22-.24h0ZM74.69,116.66s-.08.04-.1.08c-.04.1-.09.2-.11.31-.05.24.05.44.24.57.39.27.82.41,1.29.45.05,0,.1-.1.07-.15-.05-.09-.1-.2-.17-.28-.34-.38-.74-.68-1.16-.96-.02-.01-.04,0-.06-.01h0ZM76.12,112.88c-.01-.14-.04-.25-.13-.33-.22-.19-.49-.3-.79-.31-.07,0-.14.06-.11.11.19.37.35.76.41,1.18,0,.02.02.05.03.06.04.01.09.03.11.02.18-.13.31-.31.41-.51.04-.08.05-.17.06-.22h0ZM35.29,116.56c.23,0,.53-.09.74-.21.24-.13.4-.33.47-.6,0-.04,0-.09-.02-.11-.02-.02-.09-.04-.11-.02l-1.08.84s-.02.04-.02.06c0,.01,0,.03.02.04ZM29.39,110.43c-.46.01-.85.13-1.25.15-.06,0-.13.03-.19.06-.01,0-.01.03-.02.05.48,0,.96-.02,1.45-.26h.01ZM88.88,108.33c-.44-.04-.81-.09-1.19-.03-.03,0-.06.06-.06.09s.03.1.06.1c.32.04.61,0,1.2-.16h0ZM29.85,110.32s0,.03-.01.03c-.05,0-.06-.02-.03-.05,0,0,.03,0,.04.01h0ZM62.41,38.71s-.04-.03-.05-.02c-.02,0-.03.03-.05.04l.04.05s.03-.04.05-.06h0Z"/>
        <path class="cls-1" d="M27.47,96.38c-.6,0-1.16-.07-1.71-.28-1.54-.58-2.43-1.69-2.72-3.3-.12-.69-.1-1.37.08-2.03.42-1.56,1.44-2.56,2.98-3,1.02-.29,2.06-.27,3.06.1,1.67.62,2.6,1.84,2.79,3.6.07.6.04,1.19-.12,1.77-.43,1.53-1.44,2.49-2.94,2.95-.47.14-.95.18-1.42.18h0ZM30,91.98c-.01-.15-.02-.35-.05-.54-.17-.89-.66-1.52-1.52-1.85-.51-.19-1.04-.21-1.56-.1-.83.18-1.43.65-1.75,1.46-.28.71-.26,1.42.02,2.12.25.63.7,1.05,1.33,1.3.44.17.9.2,1.37.14,1.02-.12,1.7-.67,2.03-1.64.1-.27.11-.56.13-.9h0Z"/>
        <path class="cls-1" d="M97.38,91.97v-3.64c0-.15.02-.31.04-.46,0-.03.05-.08.09-.09.06-.02.13-.03.19-.03,1.06,0,2.12-.02,3.18,0,.66.01,1.32.13,1.93.41,1.4.65,2.17,1.75,2.34,3.28.06.53.05,1.06-.07,1.58-.38,1.61-1.41,2.6-2.99,3.03-.38.1-.78.16-1.18.16h-3.18c-.07,0-.13-.01-.2-.02-.08,0-.12-.07-.13-.13-.02-.17-.02-.35-.02-.53v-3.57h0ZM100.26,89.54h0c-.18.01-.35.01-.53.01-.09,0-.18.01-.26.02-.08,0-.16.09-.16.18v3.44c0,.39-.06.79.05,1.18.03.09.25.1,1.23.09h.07c.29,0,.58-.05.85-.12.72-.21,1.25-.65,1.52-1.36.22-.6.23-1.22.04-1.82-.29-.91-.95-1.41-1.87-1.56-.3-.05-.62-.04-.92-.05h-.02Z"/>
        <path class="cls-1" d="M34.44,91.97v-3.71c0-.13.02-.26.04-.39,0-.03.05-.07.09-.09.06-.02.13-.03.19-.03h3.38c.33,0,.66.05.98.14,1.21.33,1.93,1.14,2.08,2.45.04.37,0,.75-.08,1.12-.16.65-.5,1.17-1.04,1.56-.11.08-.22.14-.33.23-.05.04-.09.1-.05.17.1.17.19.35.29.52.36.61.72,1.21,1.08,1.82.06.09.1.2.15.29.02.05-.03.15-.08.15-.04,0-.09.02-.13.02h-1.65c-.18,0-.29-.08-.37-.22-.34-.59-.68-1.19-1.02-1.78-.1-.17-.2-.34-.31-.51-.05-.08-.13-.12-.22-.12h-.86c-.14,0-.23.1-.24.26v1.59c0,.2,0,.4,0,.59,0,.09-.08.18-.16.18-.2,0-.4.01-.6.01-1.05,0-1.07,0-1.1-.09-.1-.34-.04-.7-.04-1.05v-3.11h.01ZM36.34,90.69h0v1.06c0,.12.09.21.21.21h1.39c.22,0,.44-.06.64-.15.39-.18.62-.49.66-.92.05-.49-.04-.92-.48-1.22-.05-.04-.11-.07-.17-.1-.18-.09-.37-.13-.57-.14h-1.45c-.12,0-.21.09-.21.2v1.06h-.02Z"/>
        <path class="cls-1" d="M70.82,91.95v-3.58c0-.15,0-.31.03-.46,0-.05.08-.09.12-.14.01-.01.04-.02.06-.02h1.52c.12,0,.2.09.21.21v2.45c0,.13,0,.26.01.4,0,.09.08.17.17.17.07,0,.13.01.2.01h2.65c.16,0,.26-.09.26-.23v-2.45c0-.13.01-.26.02-.4,0-.08.09-.16.18-.16h1.52c.08,0,.17.08.17.17s.02.18.02.26v7.81c0,.12-.08.2-.21.2h-1.46c-.15,0-.23-.08-.23-.25v-2.32c0-.2,0-.4-.01-.6,0-.11-.1-.21-.21-.22h-2.85c-.12,0-.21.09-.22.2,0,.18-.01.35-.01.53v2.12c0,.13,0,.27-.02.4,0,.05-.08.09-.13.13-.01.01-.04.01-.06.01h-1.52c-.11,0-.2-.09-.2-.22v-4.04.02Z"/>
        <path class="cls-1" d="M19.91,90.93h-.66c-.14,0-.26-.03-.32-.18-.03-.08-.08-.16-.13-.23-.42-.66-1.04-1-1.81-1.07-.31-.03-.62-.02-.92.06-.97.27-1.54.92-1.73,1.89-.11.52-.08,1.06.11,1.57.34.91.98,1.44,1.96,1.55.38.04.75.03,1.12-.09.57-.17,1.02-.51,1.34-1.02.07-.11.13-.23.2-.34.03-.05.11-.09.17-.09h1.65c.09,0,.16.1.14.18-.01.04-.02.08-.04.13-.42,1.42-1.33,2.37-2.72,2.84-1.03.35-2.09.35-3.12,0-1.3-.44-2.17-1.32-2.59-2.63-.33-1.04-.34-2.09.02-3.12.51-1.45,1.53-2.33,3.03-2.68.93-.21,1.85-.17,2.74.17,1.33.5,2.19,1.45,2.59,2.81.04.12-.03.22-.15.23h-.86l-.02.02Z"/>
        <path class="cls-1" d="M89.13,91.96v-3.57c0-.15.01-.31.02-.46,0-.08.09-.16.18-.16.15,0,.31-.01.46-.01h4.43c.11,0,.22.01.33.02.08,0,.12.08.12.14v1.32c0,.08-.1.16-.18.16-.15,0-.31,0-.46.01h-2.32c-.15,0-.31,0-.46.01-.09,0-.18.08-.18.16v1.39c0,.06.11.16.19.16.18,0,.35.01.53.01h2.05c.13,0,.26,0,.39.02.07,0,.12.06.12.13v1.26c0,.11-.09.19-.22.2h-2.65c-.11,0-.22,0-.33.03-.03,0-.06.06-.09.09-.01.02-.01.04-.01.06v1.46c0,.08.09.17.17.17.18,0,.35.01.53.02h2.52c.13,0,.27,0,.4.02.06,0,.13.05.13.13v1.32c0,.07-.1.16-.18.16h-4.96c-.13,0-.26-.01-.39-.02-.08,0-.12-.07-.13-.13-.02-.17-.02-.35-.02-.53v-3.57h0Z"/>
        <path class="cls-1" d="M80.91,91.96v-3.58c0-.15,0-.31.03-.46,0-.05.07-.11.12-.14.06-.03.13-.03.19-.03h4.9c.07,0,.13,0,.19.03.03.01.07.05.08.09.02.04.03.08.03.13v1.19c0,.12-.09.2-.21.2h-1.72c-.51,0-1.02.01-1.52.02-.08,0-.11.07-.14.12-.01.02,0,.04,0,.06v1.26c0,.17.07.25.23.26h2.58c.13,0,.26.02.39.04.05,0,.08.04.08.09v1.32c0,.08-.09.15-.18.15-.15,0-.31.01-.46.01h-2.12c-.13,0-.27,0-.4.03-.05,0-.12.09-.12.13-.01.46-.02.93-.02,1.39,0,.24.1.27.28.27h1.99c.2,0,.4-.01.6,0,.28.02.57-.07.84.07.09.28.04.57.05.85v.53c0,.09-.08.17-.16.18h-5.03c-.11,0-.22-.01-.33-.02-.08,0-.12-.07-.13-.13-.02-.17-.02-.35-.02-.53v-3.58l-.02.05Z"/>
        <path class="cls-1" d="M43.85,91.99v-3.51c0-.18,0-.35,0-.53,0-.11.09-.19.22-.2h4.77c.13,0,.27,0,.39.03.05,0,.1.07.14.12.02.03.02.08.02.13v1.13c0,.15-.1.24-.25.24h-3.18c-.12,0-.21.1-.22.2v1.06c0,.45.02.46.5.47h2.45c.09,0,.18,0,.26.03.04,0,.06.06.09.09,0,.02,0,.04,0,.06v1.19c0,.15-.09.23-.26.23h-2.52c-.13,0-.27,0-.39.03-.05,0-.13.08-.13.12-.02.29-.02.57-.02.86,0,.9-.1.82.8.82h2.45c.13,0,.26.01.39.03.08,0,.13.08.13.13,0,.37.02.75.02,1.12,0,.29-.06.35-.35.35h-5.03c-.07,0-.13,0-.19-.03-.04-.01-.08-.06-.09-.09-.02-.15-.03-.31-.03-.46v-3.64.02Z"/>
        <path class="cls-1" d="M61.52,5.73c0,1.43-.44,2.56-1.24,3.55-.4.5-.87.94-1.4,1.3-.11.07-.21.06-.28-.06-.67-1.06-1.1-2.21-1.13-3.48-.02-.76.12-1.49.42-2.19.49-1.12,1.25-2.02,2.23-2.73.1-.07.22-.05.28.06.53.9.91,1.86,1.07,2.9.04.26.04.53.05.65Z"/>
        <path class="cls-1" d="M47.36,10.52c0,1.86-.72,3.38-2.05,4.63-.58.55-1.24.99-1.95,1.34-.06.03-.13.05-.19.05-.04,0-.08-.03-.11-.06-.12-.14-.12-.33-.16-.5-.33-1.32-.29-2.62.23-3.89.39-.96,1-1.76,1.76-2.45.56-.51,1.17-.93,1.85-1.27.06-.03.12-.04.19-.06.05-.02.09,0,.11.05.18.41.23.85.29,1.28.03.28.04.57.05.86l-.02.02Z"/>
        <path class="cls-1" d="M42.29,7.83c-.02,1.23-.4,2.34-1.07,3.36,0,.02-.03.03-.04.05-.05.06-.16.08-.24.02-.77-.53-1.44-1.16-1.96-1.95-.77-1.19-.99-2.48-.73-3.87.16-.81.46-1.56.88-2.27.03-.06.07-.11.11-.16.05-.07.16-.08.24-.02.74.53,1.39,1.16,1.9,1.92.59.88.92,1.85.91,2.93h0Z"/>
        <path class="cls-1" d="M68.7,6.38c.02,1.21-.31,2.22-.92,3.15-.04.05-.08.11-.12.16-.08.1-.18.11-.28.02-.85-.71-1.59-1.52-2.13-2.5-.56-1.01-.8-2.09-.69-3.25.1-.98.43-1.88.99-2.7.09-.13.19-.14.33-.02.68.6,1.29,1.26,1.79,2.02.41.63.72,1.31.9,2.04.09.39.11.78.13,1.08Z"/>
        <path class="cls-1" d="M35.11,11.75c0-.83.17-1.62.5-2.38.04-.09.14-.14.21-.1.93.42,1.78.96,2.49,1.7,1.01,1.06,1.49,2.32,1.43,3.78-.03.71-.19,1.4-.47,2.05,0,.02-.02.04-.03.06-.06.13-.14.17-.26.12-.88-.38-1.68-.88-2.36-1.56-1.02-1.02-1.52-2.24-1.51-3.68h0Z"/>
        <path class="cls-1" d="M19.84,18.33c0-.74.16-1.44.41-2.13.24-.64.54-1.25.94-1.81.06-.08.15-.1.23-.05l.06.03c.55.41,1.04.89,1.44,1.45.63.89.94,1.89.91,2.98-.01.44-.09.87-.21,1.3-.22.82-.58,1.57-1.07,2.26-.02.04-.05.07-.08.1-.06.07-.16.1-.23.05-1.19-.82-2.03-1.89-2.31-3.33-.06-.28-.06-.57-.08-.85h-.01Z"/>
        <path class="cls-1" d="M12.85,49.76c0,.74-.16,1.45-.42,2.13,0,.02-.02.04-.03.06-.03.06-.16.12-.23.1-1.01-.31-1.92-.77-2.67-1.53-.69-.7-1.08-1.54-1.19-2.52-.11-.94.04-1.85.34-2.74.01-.04.04-.08.06-.12.04-.08.14-.13.22-.1.78.25,1.52.6,2.17,1.1,1.18.91,1.75,2.12,1.75,3.61h0Z"/>
        <path class="cls-1" d="M4.91,52.4c.86,0,1.55.08,2.22.33,1.07.41,1.91,1.08,2.47,2.09.06.11.02.22-.1.26-1.33.51-2.69.86-4.12.81-1.1-.04-2.13-.32-3.05-.96-.48-.33-.88-.73-1.21-1.21-.05-.07-.09-.15-.11-.24,0-.03,0-.09.04-.11.07-.05.14-.1.22-.13.84-.34,1.7-.6,2.6-.75.39-.06.79-.08,1.04-.1h0Z"/>
        <path class="cls-1" d="M5.36,50.84c-.85.03-1.68-.08-2.47-.37-1.53-.56-2.48-1.64-2.81-3.24-.04-.17-.06-.35-.08-.52,0-.08.07-.18.15-.19,1.15-.19,2.29-.18,3.41.12.23.06.46.14.69.24,1.36.58,2.15,1.64,2.47,3.07.1.9.21.81-.7.9-.22.02-.44,0-.66,0h0Z"/>
        <path class="cls-1" d="M73.66,10.26c-.02-.91.25-1.79.75-2.59.28-.45.62-.86,1.03-1.2.34-.29.35-.35.64.08.41.63.76,1.29,1,2.01.18.55.31,1.1.33,1.68.04,1.3-.4,2.42-1.26,3.39-.16.18-.34.35-.52.51-.38.33-.39.29-.65-.08-.44-.64-.8-1.32-1.05-2.06-.18-.55-.28-1.11-.28-1.73h.01Z"/>
        <path class="cls-1" d="M29.66,10.63c0-1.23.34-2.26.89-3.24.1-.17.19-.18.38-.06.5.33.96.7,1.36,1.15.54.59.96,1.27,1.16,2.05.15.58.21,1.16.13,1.77-.1.82-.36,1.59-.75,2.31-.04.08-.09.15-.14.23-.09.15-.2.18-.33.1-.17-.11-.33-.21-.49-.33-.4-.28-.76-.61-1.07-.98-.76-.89-1.17-1.91-1.15-2.99h.01Z"/>
        <path class="cls-1" d="M94.52,23.33c-.03,1.54-.7,2.74-1.96,3.62-.1.07-.23.06-.29-.03-.71-1.02-1.25-2.13-1.42-3.37-.19-1.39.2-2.61,1.13-3.66.13-.15.27-.29.42-.42.57-.48.53-.46.9.14.35.59.66,1.19.87,1.85.2.61.35,1.23.34,1.88h.01Z"/>
        <path class="cls-1" d="M18.8,26.22c0,.59-.08,1.06-.22,1.53-.32,1.12-.91,2.09-1.71,2.95-.08.09-.2.08-.29,0l-.05-.05c-.75-.79-1.24-1.71-1.39-2.79-.08-.53-.04-1.05.07-1.58.28-1.35.94-2.5,1.85-3.53.07-.07.15-.07.22,0,.95.98,1.51,2.28,1.51,3.46h.01Z"/>
        <path class="cls-1" d="M6.54,59.22c1.1,0,2.04.27,2.89.84.2.14.4.28.55.48.04.05.03.13-.02.17-.02,0-.03.03-.05.05-1.11.82-2.32,1.45-3.68,1.74-1.2.25-2.37.16-3.5-.35-.4-.18-.78-.4-1.11-.7-.07-.06-.08-.18,0-.23.02,0,.03-.03.05-.04,1.03-.77,2.14-1.4,3.4-1.73.51-.13,1.03-.23,1.49-.22h0Z"/>
        <path class="cls-1" d="M67.97,44.78c.03-.31.04-.62.1-.92.23-1.21.89-2.14,1.93-2.8.58-.37,1.21-.62,1.88-.78.15-.03.25.03.29.19.23.89.29,1.78.05,2.68-.23.88-.72,1.6-1.42,2.17s-1.5.92-2.36,1.15c-.04,0-.09,0-.13,0s-.08-.04-.11-.07-.04-.08-.05-.12c-.13-.58-.16-.89-.18-1.51h0Z"/>
        <path class="cls-1" d="M84.45,28c-.51-.05-1.05-.04-1.56-.19-.14-.04-.2-.12-.17-.23.26-1.03.74-1.93,1.57-2.62.57-.48,1.24-.75,1.97-.88.93-.17,1.84-.08,2.75.16.02,0,.04.01.06.02.07.02.13.15.11.22-.11.41-.24.8-.43,1.18-.56,1.11-1.45,1.81-2.64,2.14-.54.15-1.09.18-1.65.21h-.01Z"/>
        <path class="cls-1" d="M95.93,28.46c.67-.02,1.32.1,1.95.3.16.05.23.16.19.3-.11.38-.24.76-.43,1.11-.6,1.13-1.56,1.77-2.8,2.01-1.02.2-2.02.08-3.02-.16-.12-.03-.19-.13-.16-.24.12-.47.3-.92.55-1.34.71-1.22,1.8-1.84,3.19-1.97.18-.02.35,0,.53,0h0Z"/>
        <path class="cls-1" d="M100.54,23.15c-.01.57-.04,1.05-.2,1.52-.24.74-.68,1.33-1.34,1.74-.17.1-.34.2-.52.28-.78.32-1.6.47-2.45.43-.13,0-.2-.07-.22-.2-.13-.8-.05-1.58.21-2.34s.74-1.35,1.44-1.74c.85-.47,1.78-.62,2.74-.56.04,0,.09.01.13.04.05.04.12.08.13.13.04.26.06.52.07.7h0Z"/>
        <path class="cls-1" d="M111.63,55.64c-.83,0-1.56-.14-2.29-.33-.14-.04-.21-.14-.22-.29-.03-.42.04-.84.17-1.24.31-.94.98-1.49,1.93-1.72.47-.11.96-.16,1.44-.11.64.06,1.27.15,1.89.33.06.02.13.03.19.06.09.04.14.1.15.2.03.7-.12,1.36-.52,1.94-.38.55-.93.86-1.57,1.03-.41.11-.82.15-1.17.13Z"/>
        <path class="cls-1" d="M97.59,40.06c0,.35-.02.7-.11,1.05-.19.71-.56,1.29-1.13,1.75-.7.57-1.52.89-2.41,1.02-.11.02-.2-.05-.24-.18-.07-.3-.17-.6-.2-.9-.08-.64-.1-1.27.05-1.91.19-.78.61-1.41,1.25-1.9.63-.48,1.35-.74,2.13-.86h.13c.12,0,.21.05.25.17.18.57.29,1.16.28,1.76Z"/>
        <path class="cls-1" d="M99.62,32.61c-.79,0-.78.03-.82-.67-.04-.58.04-1.15.21-1.7.28-.9.85-1.54,1.71-1.91.79-.34,1.61-.44,2.46-.35.12.01.21.09.23.2.13.73.1,1.45-.13,2.16-.24.75-.7,1.31-1.39,1.7-.53.3-1.1.45-1.69.53-.22.03-.44.03-.58.04Z"/>
        <path class="cls-1" d="M87.53,15.72c.03-.84.26-1.53.75-2.14.21-.26.44-.49.71-.69.54-.39.51-.36.86.14.44.64.81,1.31,1.01,2.07.26.96.21,1.88-.29,2.75-.34.59-.8,1.05-1.38,1.4-.02.01-.04.03-.06.03-.04,0-.09,0-.12-.02-.05-.04-.1-.09-.14-.14-.36-.5-.67-1.03-.92-1.6-.26-.59-.39-1.21-.42-1.8Z"/>
        <path class="cls-1" d="M104.06,32.67c.67,0,1.32.15,1.95.35.04,0,.08.04.12.05.13.05.18.14.15.26-.09.36-.21.72-.38,1.06-.53,1.02-1.38,1.59-2.5,1.76-.98.15-1.94.04-2.88-.25-.15-.05-.21-.15-.17-.3.16-.65.43-1.25.87-1.77.55-.65,1.28-1,2.12-1.12.24-.03.48-.03.73-.04h-.01Z"/>
        <path class="cls-1" d="M110.16,37.77c-.01,1.02-.42,1.83-1.25,2.43-.4.28-.83.49-1.31.61-.11.03-.24-.02-.28-.12-.38-.76-.63-1.55-.71-2.4-.04-.4.02-.8.13-1.18.16-.54.47-1,.91-1.35.43-.35.93-.6,1.47-.73.16-.04.26,0,.33.14.27.53.48,1.09.61,1.68.06.3.12.61.11.92h-.01Z"/>
        <path class="cls-1" d="M11.65,31.47c0,.53-.1,1-.25,1.46-.05.14-.14.2-.3.19-.73-.07-1.43-.26-2.06-.64-.83-.5-1.3-1.23-1.4-2.19-.07-.65.01-1.27.2-1.89.04-.14.15-.2.31-.18.66.09,1.3.25,1.89.56.67.35,1.17.86,1.42,1.58.13.38.21.76.19,1.13v-.02Z"/>
        <path class="cls-1" d="M14.24,73.85c-1.2,0-2.25-.38-3.16-1.16-.07-.06-.12-.13-.18-.19-.04-.04-.03-.13.03-.17.67-.47,1.4-.82,2.18-1.08.77-.25,1.55-.34,2.35-.24,1,.12,1.85.55,2.55,1.27.11.11.09.22-.06.32-.86.55-1.78.97-2.79,1.16-.3.06-.61.06-.92.1h0Z"/>
        <path class="cls-1" d="M93.19,81.5c.85,0,1.66.2,2.42.57,1.07.52,1.94,1.29,2.7,2.2.03.03.05.07.06.12,0,.04,0,.1-.02.11-.09.06-.19.11-.29.15-1.04.34-2.08.31-3.12-.03-.38-.12-.74-.28-1.09-.48-.95-.54-1.76-1.25-2.46-2.08-.06-.07-.02-.18.06-.21.47-.21,1.13-.34,1.74-.34h0Z"/>
        <path class="cls-1" d="M20.55,76.79c1.11.02,2,.31,2.79.88.07.05.13.11.2.17.04.04.05.14,0,.18-.07.06-.13.12-.2.17-.77.57-1.59,1.02-2.53,1.24-1.47.35-2.84.09-4.09-.77-.04-.02-.07-.06-.1-.08-.05-.04-.06-.14-.02-.18.02-.02.03-.04.04-.05.86-.68,1.8-1.19,2.86-1.44.39-.09.78-.11,1.04-.12h0Z"/>
        <path class="cls-1" d="M6.95,33.75c.44,0,.85.03,1.26.13,1.26.33,2.08,1.11,2.47,2.35.03.11-.03.22-.15.25-.19.05-.38.1-.58.13-.83.15-1.66.23-2.5.07-.62-.12-1.18-.35-1.68-.75-.53-.43-.9-.97-1.11-1.62-.03-.11.03-.22.15-.25.71-.19,1.42-.33,2.14-.32h0Z"/>
        <path class="cls-1" d="M84.83,9.14c-.01,1.13-.4,2.01-1.17,2.72-.21.19-.45.35-.69.51-.1.07-.21.04-.28-.07-.41-.69-.7-1.42-.83-2.21-.14-.91.04-1.76.53-2.53.33-.53.77-.96,1.32-1.27.09-.05.17-.03.22.06.52.89.85,1.83.89,2.79h.01Z"/>
        <path class="cls-1" d="M52.01,10.91c0,1.39-.46,2.45-1.34,3.34-.44.44-.95.79-1.5,1.06-.08.04-.17.06-.25.08-.05.01-.09,0-.11-.05-.24-.65-.32-1.32-.25-2.01.11-1.05.56-1.94,1.29-2.69.48-.49,1.04-.89,1.66-1.19.04-.02.08-.03.12-.05.04-.02.15.04.16.08.17.51.2,1.03.22,1.42h0Z"/>
        <path class="cls-1" d="M50.3,22.04c.03-.42.11-.83.24-1.23.28-.88.78-1.63,1.5-2.21.78-.64,1.68-1.04,2.67-1.23.09-.02.16.05.16.16,0,1.16-.34,2.22-1.08,3.12-.84,1.04-1.95,1.62-3.25,1.87-.04,0-.09,0-.13-.01-.04-.02-.09-.05-.09-.08-.02-.13-.02-.26-.03-.39h0Z"/>
        <path class="cls-1" d="M51.6,3.08c.03,1.4-.41,2.47-1.28,3.36-.5.51-1.07.91-1.72,1.19-.08.03-.19-.01-.22-.09-.23-.7-.31-1.42-.2-2.15.14-.97.58-1.79,1.26-2.49.46-.48,1-.87,1.59-1.17.06-.03.12-.05.18-.07.08-.03.18.03.21.12.13.47.19.95.19,1.29h0Z"/>
        <path class="cls-1" d="M63.25,12.22c0,1.45-.58,2.6-1.73,3.47-.39.29-.81.53-1.27.7-.11.04-.22-.02-.26-.14,0-.04-.04-.08-.04-.12-.1-.47-.18-.95-.17-1.44.02-1.04.37-1.94,1.06-2.71.55-.62,1.23-1.07,2-1.37.07-.03.19.03.21.11.14.46.2.92.2,1.5Z"/>
        <path class="cls-1" d="M25.52,40.52c.73.03,1.4.16,2.04.4.46.17.88.41,1.25.73.79.69,1.2,1.56,1.28,2.59v.2c0,.08-.09.17-.17.16-.91-.03-1.79-.19-2.62-.59-1.09-.54-1.78-1.42-2.07-2.6-.06-.26-.1-.52-.07-.79,0-.03.05-.09.08-.09.11-.02.22-.02.29-.02h-.01Z"/>
        <path class="cls-1" d="M38.35,44.53c-.75.02-1.47-.15-2.17-.45-.06-.03-.12-.06-.17-.1-.06-.03-.09-.12-.06-.17.03-.04.05-.08.08-.11.57-.62,1.22-1.16,1.99-1.52,1.47-.71,2.94-.7,4.4,0,.06.03.12.07.16.11.03.03.03.08.03.12,0,.02-.02.04-.03.06-.6.69-1.32,1.24-2.15,1.62-.65.29-1.34.44-2.07.43h-.01Z"/>
        <path class="cls-1" d="M33.39,42.16c-.7,0-1.36-.15-2-.41-.04-.02-.08-.03-.12-.05-.12-.05-.16-.18-.08-.27.84-.94,1.81-1.68,3.05-2.02,1.16-.32,2.27-.2,3.35.3.04.02.08.04.12.06.08.04.11.17.06.23-.92,1.07-2.05,1.81-3.45,2.08-.3.06-.61.05-.92.08h0Z"/>
        <path class="cls-1" d="M23.7,56.04c-.54.02-1.08-.07-1.6-.27-.9-.35-1.57-.96-1.97-1.84-.05-.11,0-.22.11-.27.7-.27,1.43-.45,2.18-.48,1.2-.05,2.26.29,3.11,1.18.29.31.53.65.69,1.04.03.07-.02.19-.1.22-.66.23-1.73.46-2.41.43h-.01Z"/>
        <path class="cls-1" d="M88.15,58.16c.2,0,.39.03.59.04.08,0,.16.1.17.18.07,1.11-.27,2.04-1.19,2.71-.45.33-.97.52-1.52.62-.5.1-1,.16-1.51.14-.34,0-.43,0-.43-.41s.05-.79.19-1.17c.25-.69.69-1.22,1.33-1.58.33-.19.68-.31,1.05-.39.43-.09.87-.16,1.31-.15h.01Z"/>
        <path class="cls-1" d="M2.79,41.71c.58,0,1.14.08,1.69.27,1.4.48,2.19,1.65,2.14,3.13,0,.13-.07.21-.19.22-.8.04-1.58,0-2.34-.29-1.32-.49-2.11-1.64-2.1-3.05,0-.19.08-.27.28-.28h.53-.01Z"/>
        <path class="cls-1" d="M42.53,77.14c0,.49-.08.83-.2,1.16-.25.65-.66,1.19-1.18,1.65-.07.07-.16.07-.24,0-.43-.36-.79-.77-1.07-1.25-.19-.33-.32-.67-.39-1.05-.08-.45-.03-.88.11-1.3.23-.71.66-1.29,1.23-1.77.07-.06.17-.06.24,0,.7.57,1.24,1.25,1.44,2.16.04.17.05.35.06.39h0Z"/>
        <path class="cls-1" d="M23.55,64.33c-.03,1.22-.49,2.22-1.47,2.96-.64.49-1.36.81-2.15.97-.12.02-.21-.04-.23-.17,0-.02,0-.04-.01-.06-.15-1.49.3-2.73,1.53-3.64.61-.45,1.3-.72,2.04-.89.09-.02.18.04.21.12.07.23.08.48.08.72h0Z"/>
        <path class="cls-1" d="M41.41,34.76c-.04.92-.37,1.72-.94,2.43,0,.02-.03.03-.05.04-.04,0-.08.02-.12.02s-.08-.03-.12-.05c-.45-.33-.84-.72-1.15-1.18-.41-.6-.62-1.26-.58-1.99.02-.33.1-.65.21-.97.17-.48.41-.92.74-1.32.06-.07.17-.08.24-.04.51.36.95.78,1.29,1.31.34.54.5,1.12.49,1.75h-.01Z"/>
        <path class="cls-1" d="M90.39,62.48c0-.47.03-.8.13-1.12.21-.66.61-1.17,1.21-1.52.45-.26.93-.4,1.44-.47.33-.05.66-.04.99-.06.08,0,.18.09.19.16.09.46.1.93,0,1.38-.16.75-.6,1.31-1.27,1.7-.43.24-.89.39-1.37.48-.32.06-.66.08-.99.11-.18.02-.28-.08-.3-.27-.02-.18-.03-.35-.03-.39Z"/>
        <path class="cls-1" d="M73.36,35.7c-.78-.04-1.59-.21-2.35-.59-.17-.09-.2-.18-.08-.3.89-.93,1.98-1.46,3.27-1.53.83-.05,1.62.12,2.39.43.78.31.75.34.14.84-.88.72-1.89,1.1-3.03,1.16h-.34Z"/>
        <path class="cls-1" d="M14.09,26.09c-.03.78-.33,1.53-.8,2.22-.01.02-.03.04-.05.04-.04.02-.08.03-.12.04-.02,0-.04,0-.06-.01-.45-.2-.85-.47-1.19-.83-.58-.62-.79-1.36-.68-2.2.1-.71.36-1.36.74-1.97.06-.1.19-.14.29-.09.42.21.8.47,1.12.81.52.54.76,1.18.74,1.98h.01Z"/>
        <path class="cls-1" d="M70.21,36.64c.86,0,1.61.14,2.33.45.09.04.12.15.06.22-.01.02-.02.04-.04.05-.67.76-1.47,1.32-2.45,1.62-.94.28-1.87.27-2.81.03-.26-.06-.5-.16-.75-.25-.11-.04-.13-.17-.05-.27.72-.89,1.61-1.49,2.73-1.75.35-.08.7-.09.98-.11h0Z"/>
        <path class="cls-1" d="M62.14,18.94c0-.47.1-.92.3-1.35,0-.03.07-.05.1-.06.04,0,.09.01.13.03.59.26,1.12.6,1.6,1.03.26.24.5.5.68.8.6.96.69,1.98.28,3.03-.05.14-.13.18-.25.13-.68-.29-1.29-.67-1.81-1.19-.48-.48-.81-1.04-.94-1.71-.05-.24-.06-.48-.1-.72h0Z"/>
        <path class="cls-1" d="M52.18,37.52c-.02.41-.08.84-.25,1.26-.05.13-.18.18-.32.13-.5-.19-.97-.44-1.39-.76-.6-.45-1.04-1.02-1.24-1.75-.16-.59-.14-1.18-.02-1.77.03-.15.09-.3.13-.44.03-.08.14-.14.21-.12.61.22,1.16.54,1.66.95.24.2.45.43.63.68.39.54.56,1.14.59,1.84v-.02Z"/>
        <path class="cls-1" d="M47.72,23.94c0,.39-.09.82-.26,1.23-.03.08-.14.13-.22.11-.83-.28-1.58-.69-2.14-1.37-.65-.78-.81-1.69-.64-2.67.04-.21.12-.42.19-.63.03-.09.13-.13.22-.11.81.27,1.53.68,2.1,1.33.52.59.77,1.28.76,2.11h0Z"/>
        <path class="cls-1" d="M15.05,43.29c.4,0,.79.02,1.18.13,1.07.29,1.75.97,2.07,2.02.04.12.06.26.07.39,0,.03-.03.09-.06.1-.12.05-.25.1-.38.12-.68.11-1.35.17-2.04.05-.74-.12-1.38-.43-1.88-1.01-.31-.35-.52-.76-.64-1.22-.02-.06-.02-.13-.03-.2,0-.07.07-.19.13-.21.51-.13,1.04-.19,1.57-.19v.02Z"/>
        <path class="cls-1" d="M34.28,31.76c0-.34.05-.71.19-1.07.22-.58.55-1.1.99-1.55.08-.08.2-.08.29,0,.37.33.68.69.92,1.12.43.77.51,1.59.24,2.43-.21.66-.56,1.24-1.04,1.75-.09.09-.18.09-.28,0-.36-.33-.67-.7-.91-1.13-.26-.47-.4-.98-.4-1.55Z"/>
        <path class="cls-1" d="M76.13,30.01c1.49.01,2.56.41,3.54,1.1.14.1.12.2-.03.3-1.04.65-2.16.99-3.39.9-1.06-.08-2.02-.43-2.88-1.05-.1-.07-.09-.2,0-.27.02-.01.04-.03.05-.04.9-.62,1.88-.96,2.7-.94h0Z"/>
        <path class="cls-1" d="M39.49,57.5c-1.21-.03-2.24-.48-3.08-1.39-.11-.13-.1-.23.07-.31.79-.41,1.61-.71,2.51-.75,1.29-.07,2.37.37,3.23,1.34.04.05.08.11.1.17,0,.03,0,.08,0,.11,0,.02-.03.04-.04.05-.85.49-1.77.77-2.78.79h0Z"/>
        <path class="cls-1" d="M64.53,60.49c-.02.46-.1.89-.27,1.3-.03.07-.16.12-.23.09-.87-.35-1.64-.86-2.2-1.63-.56-.78-.71-1.65-.55-2.58.03-.19.09-.38.15-.57.06-.2.15-.24.34-.15.69.32,1.32.72,1.83,1.27.59.64.9,1.4.92,2.26h0Z"/>
        <path class="cls-1" d="M64.57,55.32c0,.43-.06.84-.23,1.24-.06.14-.17.19-.32.13-.63-.28-1.21-.63-1.71-1.12-.62-.61-.97-1.36-1.03-2.23-.03-.53.05-1.05.27-1.55.02-.05.12-.09.17-.07.8.34,1.52.8,2.08,1.48.51.61.79,1.32.76,2.12h.01Z"/>
        <path class="cls-1" d="M54.33,41.62s-.12,0-.23-.02c-.05,0-.11-.1-.11-.15.06-.46.18-.9.38-1.33.51-1.09,1.37-1.75,2.5-2.09.49-.15.99-.21,1.5-.21.17,0,.25.09.23.24-.21,1.64-1.34,2.94-2.94,3.38-.4.11-.82.18-1.33.18Z"/>
        <path class="cls-1" d="M99.91,62.6c.03-.24.04-.48.1-.72.15-.63.53-1.11,1.09-1.43.19-.11.39-.21.6-.28.48-.16.98-.27,1.49-.28.15,0,.26.07.29.21.09.34.12.69.1,1.05-.01.29-.05.57-.15.84-.17.45-.44.81-.84,1.08-.16.11-.34.21-.52.29-.57.24-1.17.38-1.8.37-.09,0-.17-.06-.19-.15-.12-.35-.14-.54-.17-.98Z"/>
        <path class="cls-1" d="M74.08,19.82c.01-.88.36-1.62.96-2.25.04-.04.14-.05.18-.02.02.01.04.02.06.04.48.46.9.97,1.21,1.56.25.47.4.97.41,1.51,0,.89-.33,1.62-.94,2.25-.07.07-.17.08-.24.02-.58-.52-1.06-1.11-1.37-1.83-.2-.48-.26-.78-.26-1.28h0Z"/>
        <path class="cls-1" d="M35.97,54.49c-1.67,0-2.75-.53-3.55-1.63-.04-.05-.07-.11-.1-.17-.05-.09-.03-.19.05-.22.82-.34,1.68-.57,2.58-.52,1.32.07,2.37.65,3.06,1.8.06.1.02.23-.09.27-.73.28-1.47.47-1.94.46h-.01Z"/>
        <path class="cls-1" d="M90.01,68.97v.13c0,.09-.08.18-.16.17-1.05-.07-1.98-.4-2.74-1.16-.3-.3-.52-.66-.67-1.05-.16-.41-.26-.84-.27-1.29-.02-.65-.01-.65.6-.58.55.07,1.07.25,1.56.53.67.39,1.14.96,1.42,1.69.16.43.28,1.03.27,1.55h0Z"/>
        <path class="cls-1" d="M95.1,69.29v.16c0,.19-.09.27-.3.24-.26-.04-.52-.08-.78-.15-.45-.12-.87-.31-1.26-.57-.77-.52-1.23-1.25-1.42-2.15-.07-.34-.12-.69-.09-1.05,0-.12.1-.22.21-.21.93.05,1.77.36,2.47.98.69.61,1.03,1.41,1.13,2.32.01.13.02.26.04.44h0Z"/>
        <path class="cls-1" d="M27.7,27.55c-.02-.31.05-.62.14-.91.24-.78.67-1.43,1.27-1.99.06-.06.17-.05.23.02.56.59.95,1.27,1.05,2.09.05.43,0,.84-.13,1.24-.23.73-.66,1.34-1.22,1.87-.07.07-.18.07-.24.02-.6-.56-.97-1.25-1.09-2.07-.01-.09,0-.18-.01-.26h0Z"/>
        <path class="cls-1" d="M68.99,23.28c-.13,0-.26-.01-.4-.02-.12,0-.22-.1-.2-.21.15-.95.55-1.76,1.32-2.37.42-.34.91-.55,1.43-.65.5-.1,1-.15,1.51-.07.17.03.24.11.21.26-.06.3-.14.6-.25.89-.34.83-.92,1.44-1.76,1.8-.6.26-1.22.36-1.87.38h.01Z"/>
        <path class="cls-1" d="M56.69,35.4c-.2-.02-.48-.04-.77-.06-.17-.02-.24-.12-.18-.26.24-.6.57-1.14,1.03-1.6.56-.56,1.24-.9,2.02-1.05.64-.13,1.27-.11,1.9.03.08.02.14.12.11.2-.63,1.63-1.81,2.56-3.57,2.72-.15,0-.31,0-.55.03h0Z"/>
        <path class="cls-1" d="M68.52,27.39c-.52.03-.95-.05-1.39-.15-.08-.02-.13-.13-.1-.21.47-1.14,1.23-1.97,2.44-2.34.53-.16,1.08-.23,1.63-.15.3.04.62.05.91.18.11.05.15.14.11.26,0,.02-.01.04-.02.06-.15.34-.34.67-.57.96-.69.87-1.61,1.27-2.68,1.38-.13.01-.26,0-.32,0h-.01Z"/>
        <path class="cls-1" d="M69.73,15.07c-.92,0-.97-.03-.67-.84.11-.29.24-.57.41-.82.34-.51.78-.89,1.33-1.15.83-.39,1.69-.44,2.58-.31.11.02.19.14.16.25-.06.21-.12.42-.2.63-.45,1.16-1.3,1.85-2.5,2.13-.39.09-.78.14-1.11.12h0Z"/>
        <path class="cls-1" d="M22.54,72.48s0,.14-.03.25c-.01.06-.06.12-.13.13-.04,0-.09.02-.13.01-.62-.03-1.22-.15-1.8-.4-.86-.37-1.45-.99-1.7-1.9-.07-.27-.11-.56-.13-.85-.03-.55.05-.58.55-.5.35.05.7.08,1.04.2.27.1.54.19.79.32.97.53,1.47,1.35,1.53,2.46v.27h0Z"/>
        <path class="cls-1" d="M19.55,50.05c1.03,0,1.89.36,2.59,1.13.04.05.08.11.11.16.03.04,0,.15-.04.18-.69.41-1.42.7-2.21.84-.51.09-1.01.09-1.51-.02-.75-.17-1.4-.52-1.91-1.11-.07-.08-.08-.18,0-.23.91-.57,1.9-.93,2.99-.95h-.02Z"/>
        <path class="cls-1" d="M42.81,50.55c-.03.79-.29,1.51-.77,2.14-.05.07-.16.09-.23.04-.64-.42-1.15-.96-1.48-1.66-.32-.69-.35-1.41-.12-2.13.08-.23.17-.46.28-.67.44-.77.41-.76,1.08-.2.29.24.54.52.75.84.31.47.51,1.1.49,1.63h0Z"/>
        <path class="cls-1" d="M72.37,15.7c.2.02.44.04.68.07.08,0,.16.12.14.19-.04.17-.07.35-.12.51-.43,1.28-1.32,2.04-2.64,2.33-.57.12-1.13.15-1.71.08-.11-.01-.19-.13-.17-.23.09-.37.21-.72.39-1.05.58-1.1,1.51-1.69,2.72-1.85.22-.03.44-.03.71-.04h0Z"/>
        <path class="cls-1" d="M37.68,78.61c0,.57-.16,1.13-.49,1.64-.4.63-.93,1.11-1.57,1.48-.11.06-.22.03-.28-.08-.28-.54-.43-1.11-.45-1.71-.02-.63.15-1.22.49-1.76.4-.63.93-1.11,1.58-1.47.11-.06.22-.03.28.08.28.56.45,1.15.44,1.82Z"/>
        <path class="cls-1" d="M79.18,28.76c-1.06,0-1.99-.29-2.85-.85-.05-.03-.05-.13,0-.17.62-.66,1.37-1.1,2.27-1.27.95-.18,1.84,0,2.7.41.22.1.43.23.63.36.15.09.17.21.05.32-.79.77-1.73,1.21-2.81,1.21h.01Z"/>
        <path class="cls-1" d="M63.5,14.77c.03-.52.17-1.07.46-1.57.06-.11.18-.15.27-.09.6.38,1.13.83,1.55,1.41.22.31.39.64.49,1,.25.88.09,1.7-.38,2.47-.05.08-.15.12-.22.08-.66-.38-1.22-.86-1.64-1.5-.35-.52-.54-1.11-.53-1.8Z"/>
        <path class="cls-1" d="M47.49,52.28c0,.47-.09.91-.29,1.34-.2.42-.44.81-.77,1.14-.07.07-.16.08-.23,0-.02,0-.04-.03-.05-.04-.31-.29-.58-.61-.8-.96-.21-.34-.36-.7-.45-1.09-.09-.42-.09-.83,0-1.24.16-.68.49-1.26.99-1.76.07-.07.18-.07.24-.02.49.42.88.92,1.13,1.52.16.36.21.68.22,1.09h0Z"/>
        <path class="cls-1" d="M72.75,4.07c-.02,1.02-.42,1.84-1.26,2.43-.4.28-.84.48-1.31.62-.06.02-.13.02-.2.03s-.19-.07-.21-.14c-.19-.72-.24-1.44,0-2.16.18-.56.51-1.02.98-1.38.46-.36.99-.58,1.55-.71.14-.03.26.05.29.2.08.37.16.73.16,1.11h0Z"/>
        <path class="cls-1" d="M49.76,27.01c.03-.17.06-.5.14-.82.2-.82.68-1.47,1.36-1.96.58-.42,1.24-.66,1.94-.79h.13c.08,0,.18.08.18.15,0,1.36-.43,2.5-1.58,3.3-.59.41-1.25.63-1.95.75-.11.02-.21-.07-.22-.19v-.44Z"/>
        <path class="cls-1" d="M13.6,59.91c-.81,0-1.57-.19-2.23-.68-.05-.04-.06-.12-.01-.17.02-.02.03-.04.04-.05.85-.73,1.8-1.27,2.91-1.46,1.02-.17,1.97.03,2.82.63.07.05.1.18.04.23-.7.62-1.49,1.08-2.4,1.34-.38.11-.78.16-1.17.15h0Z"/>
        <path class="cls-1" d="M98.24,34.54c0,1.25-.49,2.03-1.43,2.53-.37.2-.77.32-1.19.39-.15.03-.25-.05-.29-.19-.15-.51-.19-1.04-.16-1.57.06-.82.43-1.47,1.13-1.92.45-.29.95-.45,1.48-.53.11,0,.21.06.25.17.13.42.22.85.21,1.12Z"/>
        <path class="cls-1" d="M25.03,66.12c-.02-.92.3-1.69.89-2.37.47-.54,1.05-.94,1.7-1.22.14-.06.27,0,.3.15.16.6.23,1.21.09,1.83-.13.62-.41,1.16-.83,1.63-.49.55-1.08.96-1.75,1.27-.02,0-.04,0-.06.02-.04.01-.15-.04-.16-.08-.15-.4-.19-.81-.18-1.22h0Z"/>
        <path class="cls-1" d="M32.4,22.74c-.34,0-.66-.06-.98-.13-.92-.22-1.63-.74-2.08-1.59-.04-.07,0-.19.08-.22.69-.3,1.42-.49,2.17-.5,1.28-.01,2.3.5,3,1.59.02.04.04.08.06.12.08.14.05.23-.13.29-.42.14-.83.28-1.27.34-.28.04-.57.07-.85.11h0Z"/>
        <path class="cls-1" d="M15.71,42.27c-.5,0-.89-.02-1.28-.13-.89-.26-1.5-.82-1.84-1.67-.2-.5-.21-.55.34-.65.39-.07.78-.14,1.18-.18.49-.04.97.03,1.43.18.81.27,1.35.81,1.67,1.59.04.1.07.21.1.31.06.19,0,.3-.19.34-.49.12-.99.21-1.4.2h-.01Z"/>
        <path class="cls-1" d="M113.25,61.67c-.23,0-.4-.02-.58-.04-.22-.02-.29-.07-.35-.32-.07-.3-.08-.61-.05-.92.05-.61.34-1.09.87-1.4.21-.12.44-.22.67-.28.6-.16,1.22-.19,1.83-.12.12,0,.21.07.24.19.14.45.15.91.03,1.37-.14.52-.45.9-.92,1.15-.29.16-.61.26-.94.3-.28.03-.57.05-.81.07h.01Z"/>
        <path class="cls-1" d="M53.02,31.59c-.02.77-.27,1.46-.73,2.08-.06.07-.16.09-.23.04-.47-.33-.89-.73-1.21-1.2-.23-.33-.39-.69-.49-1.08-.14-.58-.08-1.14.12-1.69.13-.35.3-.69.54-.98.05-.07.17-.09.24-.04.62.41,1.12.92,1.46,1.59.2.4.31.82.31,1.27h-.01Z"/>
        <path class="cls-1" d="M14.61,67.22h-.13c-.05,0-.12-.1-.11-.15.48-1.61,1.46-2.75,3.06-3.31.44-.15.9-.23,1.36-.27h.13c.14,0,.22.08.19.2-.01.06-.02.13-.05.19-.54,1.63-1.64,2.69-3.29,3.16-.34.1-.69.16-1.18.18h.02Z"/>
        <path class="cls-1" d="M65.48,50.43c0,.61-.16,1.18-.49,1.69-.04.07-.16.11-.23.07-.66-.37-1.23-.86-1.64-1.5-.52-.81-.61-1.69-.34-2.6.06-.19.13-.37.21-.56.15-.34.23-.35.54-.15.41.27.78.58,1.1.95.37.42.64.89.77,1.44.05.22.08.43.08.66Z"/>
        <path class="cls-1" d="M53.93,9.82c0-.13.02-.26.03-.39,0-.12.11-.19.24-.16.72.14,1.41.37,2.02.78.54.37.95.84,1.21,1.45.24.56.3,1.15.24,1.75,0,.07-.12.14-.2.13-.36-.03-.69-.16-1.02-.28-.46-.17-.89-.39-1.27-.69-.83-.66-1.25-1.52-1.25-2.58h0Z"/>
        <path class="cls-1" d="M72.13,8.66c0,.4-.08.79-.22,1.17-.27.74-.76,1.29-1.45,1.65-.6.32-1.24.46-1.91.48-.08,0-.16-.08-.16-.17-.02-.31-.02-.62.04-.92.21-1.1.82-1.89,1.86-2.33.53-.23,1.08-.38,1.67-.36.09,0,.17.08.17.16v.33h0Z"/>
        <path class="cls-1" d="M76.86,16.54c0-.39.09-.75.24-1.1.23-.54.59-.98,1.07-1.32.08-.05.17-.04.23.03.51.62.89,1.31,1.05,2.11.12.59.04,1.14-.21,1.67-.23.49-.58.88-1.03,1.19-.07.05-.19.03-.24-.03-.47-.57-.85-1.18-1.01-1.91-.05-.21-.07-.43-.11-.65h0Z"/>
        <path class="cls-1" d="M29.31,16.62c1.41,0,2.38.51,3.05,1.57.03.05.06.12.08.18,0,.03,0,.09-.03.11-.07.05-.15.09-.23.12-.56.21-1.14.34-1.73.4-.6.07-1.19,0-1.75-.22-.53-.2-.98-.51-1.31-.97-.44-.6-.43-.58.24-.83.6-.22,1.22-.36,1.7-.36h-.02Z"/>
        <path class="cls-1" d="M102.04,39.25c.02-.24.03-.49.08-.72.15-.68.54-1.2,1.15-1.54.23-.13.48-.24.73-.3.92-.21.87-.29,1.06.67.09.44.09.87-.02,1.31-.15.64-.51,1.11-1.06,1.46-.46.29-.96.43-1.49.51-.12.02-.23-.05-.26-.15-.12-.4-.19-.81-.2-1.24h0Z"/>
        <path class="cls-1" d="M31.91,72.12c-.01.1-.02.2-.04.31s-.12.18-.24.17c-.64-.09-1.26-.26-1.82-.57-.62-.34-1.09-.81-1.35-1.49-.19-.5-.27-1.02-.19-1.56.02-.12.12-.21.22-.2.66.07,1.31.23,1.89.56,1.06.61,1.51,1.56,1.53,2.77h0Z"/>
        <path class="cls-1" d="M4.05,56.83c.7.02,1.35.16,1.93.58.05.04.06.13.02.18-.01.02-.03.04-.04.05-.79.69-1.66,1.25-2.69,1.51-.95.24-1.88.18-2.78-.26-.08-.04-.15-.09-.22-.14-.05-.04-.08-.13-.04-.17.01-.02.02-.04.04-.05.73-.66,1.54-1.19,2.48-1.49.42-.14.85-.22,1.3-.21Z"/>
        <path class="cls-1" d="M80.51,7.56c0,.51-.1,1.01-.35,1.46-.04.07-.16.1-.23.06-.66-.42-1.24-.91-1.7-1.55-.45-.62-.71-1.31-.67-2.1.02-.45.14-.87.35-1.26.06-.11.17-.14.28-.07.53.33,1.01.71,1.42,1.18.2.23.38.49.53.76.26.47.39.98.39,1.52h-.02Z"/>
        <path class="cls-1" d="M98.91,60.84c0,1.04-.42,1.72-1.21,2.17-.52.3-1.1.44-1.7.52-.11.02-.23-.06-.26-.16-.05-.21-.11-.43-.14-.65-.05-.37-.03-.75.07-1.12.15-.56.47-1,.95-1.3.57-.36,1.21-.53,1.88-.58.12,0,.2.06.24.18.12.34.16.69.16.93h.01Z"/>
        <path class="cls-1" d="M69.34,58.62c-.22-.02-.55-.03-.88-.1-.74-.16-.85-.1-.36-.83.51-.75,1.17-1.32,2.05-1.58.55-.17,1.12-.24,1.7-.15.33.05.65.09.97.21.13.05.18.14.13.25-.45.9-1.13,1.57-2.08,1.94-.46.18-.94.23-1.54.25h.01Z"/>
        <path class="cls-1" d="M86.96,44.34c0-.81.24-1.43.74-1.95.34-.35.74-.62,1.2-.8.1-.04.23,0,.28.11.28.56.46,1.15.49,1.77.04.79-.21,1.48-.78,2.03-.32.31-.69.54-1.11.71-.11.04-.25,0-.29-.08-.32-.59-.52-1.22-.53-1.8h0Z"/>
        <path class="cls-1" d="M30.33,48.46c.46,0,.85.02,1.23.14.99.3,1.69.93,2.08,1.88.05.13,0,.24-.09.27-.95.29-1.91.38-2.87.1-1.01-.3-1.72-.95-2.11-1.94-.02-.06,0-.14.06-.17.06-.02.12-.06.18-.07.51-.13,1.03-.23,1.51-.21h.01Z"/>
        <path class="cls-1" d="M18.96,21.79c-.01.15-.02.31-.03.46s-.11.25-.25.25c-.18,0-.35,0-.53-.02-.35-.03-.7-.11-1.03-.22-1.08-.38-1.63-1.16-1.72-2.28-.02-.22,0-.44.03-.66.02-.18.12-.26.32-.26.51,0,1.01.1,1.49.26.17.05.33.13.48.22.76.42,1.14,1.07,1.23,1.92.01.11,0,.22,0,.33h.01Z"/>
        <path class="cls-1" d="M30.98,29.56c0-.3.08-.68.24-1.05.26-.6.65-1.1,1.14-1.52.07-.06.18-.06.24,0,.37.39.63.84.79,1.36.2.64.15,1.26-.1,1.88-.26.65-.66,1.19-1.18,1.65-.07.06-.18.07-.24,0-.56-.63-.91-1.35-.9-2.31h0Z"/>
        <path class="cls-1" d="M78.49,44.28c-.62-.09-1.2-.28-1.75-.57-.8-.43-1.41-1.05-1.76-1.9-.12-.29-.2-.58-.24-.89-.05-.39,0-.46.36-.39.68.13,1.32.34,1.92.69.78.47,1.35,1.12,1.64,2,.1.29.15.6.18.9,0,.11-.1.2-.22.18-.04,0-.09-.02-.13-.02Z"/>
        <path class="cls-1" d="M68.48,55.53c-.24-.03-.48-.06-.72-.09-.08,0-.14-.12-.12-.2.1-.32.23-.62.4-.9.62-1.05,1.54-1.61,2.74-1.73.33-.03.66,0,.99,0,.11,0,.21.04.32.07.09.02.15.11.13.19-.41,1.38-1.4,2.44-3.21,2.61-.17.02-.35,0-.53,0v.05Z"/>
        <path class="cls-1" d="M27.42,72.51c0,.53-.05.59-.56.5-.52-.09-1.02-.24-1.5-.49-1.18-.62-1.6-1.78-1.48-2.86.02-.15.12-.23.26-.23.38,0,.74.1,1.1.22.23.07.46.16.67.28.93.49,1.41,1.29,1.51,2.33v.26h0Z"/>
        <path class="cls-1" d="M100.96,74.33c-.17-.02-.27-.03-.38-.05-.03,0-.07-.05-.08-.09-.02-.06-.03-.13-.02-.19.04-.62.29-1.14.74-1.58.35-.35.78-.58,1.25-.72.7-.21,1.42-.3,2.15-.25.07,0,.17.1.17.17.01.27-.03.53-.12.78-.17.47-.47.84-.87,1.13-.47.34-1.01.53-1.58.64-.43.08-.87.12-1.25.16h0Z"/>
        <path class="cls-1" d="M21.66,36.78c0,.63-.16,1.22-.51,1.75-.41.64-.95,1.15-1.61,1.54-.08.05-.18.02-.22-.06-.4-.81-.49-1.64-.18-2.49.07-.19.15-.37.25-.54.41-.72.99-1.28,1.7-1.72.08-.05.19-.02.23.06.21.44.33.97.34,1.47h0Z"/>
        <path class="cls-1" d="M23.37,40.13c0,.64-.19,1.22-.53,1.75-.3.47-.68.87-1.13,1.19-.65.47-.64.5-.9-.27-.3-.94-.16-1.83.36-2.66.27-.43.61-.81,1.01-1.13.86-.68.81-.66,1.1.4.06.23.06.48.08.72h0Z"/>
        <path class="cls-1" d="M80.93,25.26c-.53-.01-1.05-.12-1.55-.29-.1-.04-.21-.07-.31-.12-.28-.15-.63-.21-.81-.53.16-.28.42-.44.68-.61.93-.62,1.94-.81,3.03-.53.56.14,1.08.38,1.56.71.09.06.11.17.06.22-.73.75-1.62,1.11-2.66,1.16h0Z"/>
        <path class="cls-1" d="M84.22,18.86c-.76-.05-1.48-.21-2.16-.57-.1-.05-.13-.14-.07-.21.47-.67,1.1-1.15,1.89-1.37.4-.11.82-.15,1.25-.1.67.08,1.3.26,1.88.59.07.04.1.16.05.23-.7.97-1.65,1.43-2.84,1.43Z"/>
        <path class="cls-1" d="M17.13,47.16c1,0,1.84.38,2.47,1.17.04.05.07.11.11.16.04.06,0,.19-.07.23-.74.36-1.51.61-2.33.65-1.07.05-1.99-.29-2.67-1.17-.04-.05-.07-.11-.09-.17-.01-.04,0-.08.02-.12,0-.02.03-.04.05-.05.68-.38,1.41-.62,2.18-.7.11,0,.22,0,.33,0Z"/>
        <path class="cls-1" d="M42.96,59.75c-.88-.03-1.66-.28-2.34-.82-.07-.05-.07-.18,0-.23.8-.67,1.71-1.1,2.76-1.14.94-.03,1.78.25,2.52.83.08.06.09.16.02.22-.87.69-1.85,1.11-2.96,1.14Z"/>
        <path class="cls-1" d="M82.58,21.87c-.76-.01-1.48-.19-2.15-.55-.06-.03-.08-.11-.05-.17.01-.02.02-.04.03-.06.59-.8,1.35-1.31,2.34-1.46.49-.08.97-.02,1.44.09.43.1.85.24,1.22.48.07.05.09.15.04.23-.71.98-1.66,1.47-2.88,1.45h.01Z"/>
        <path class="cls-1" d="M89.76,20.57c0,.33-.04.66-.14.98-.17.57-.49,1.02-.99,1.35-.41.27-.87.42-1.35.49-.52.08-.56.05-.61-.48-.02-.31-.03-.62.02-.92.09-.64.38-1.16.89-1.56.37-.29.8-.46,1.25-.57.21-.05.43-.06.65-.09.07,0,.19.08.2.15.03.22.05.44.08.65Z"/>
        <path class="cls-1" d="M95.41,20.09c.02-.15.02-.39.08-.63.13-.51.42-.92.85-1.22.42-.29.9-.46,1.41-.53.2-.03.3.04.35.21.12.43.17.86.14,1.31-.05.89-.45,1.55-1.26,1.95-.1.05-.2.1-.3.13-1.11.33-1.1.37-1.25-.8-.01-.11-.01-.22-.02-.42Z"/>
        <path class="cls-1" d="M30.18,81.89c.02-.38.06-.68.15-.98.22-.74.63-1.35,1.26-1.81.54-.4,1.14-.65,1.8-.77.12-.02.23.06.23.17,0,1.01-.28,1.91-1.02,2.63-.63.62-1.41.97-2.27,1.14-.05,0-.13-.06-.14-.12,0-.11-.01-.22-.01-.26Z"/>
        <path class="cls-1" d="M26.72,36.49c-.73-.02-1.44-.22-2.07-.68-.02,0-.03-.03-.05-.04-.1-.08-.11-.21-.02-.28.79-.59,1.65-1.03,2.64-1.13.94-.1,1.79.15,2.52.77.07.06.07.18,0,.23-1.01.77-2.02,1.11-3.02,1.13Z"/>
        <path class="cls-1" d="M84.06,15.88c-.47,0-.92-.07-1.36-.23-.11-.04-.16-.15-.11-.27.36-.92.97-1.57,1.94-1.84.23-.06.48-.1.72-.11.6-.04,1.19.04,1.75.25.08.03.14.14.11.21-.54,1.39-1.67,1.95-2.71,1.98h-.34Z"/>
        <path class="cls-1" d="M38.83,47.99c.02.25-.06.55-.15.84-.13.4-.32.77-.59,1.11-.08.1-.17.12-.28.04-.39-.29-.73-.64-1-1.05-.43-.67-.51-1.4-.31-2.16.12-.45.34-.86.63-1.23.08-.09.19-.11.29-.04.38.27.71.6.97.99.28.43.45.91.44,1.5Z"/>
        <path class="cls-1" d="M22.08,28.4c.28.04.57.05.85.12.84.21,1.44.73,1.79,1.52.04.09,0,.2-.06.23-.86.31-1.73.51-2.64.33-.9-.18-1.56-.67-1.98-1.49-.07-.14-.03-.26.12-.32.62-.23,1.26-.38,1.93-.4h-.01Z"/>
        <path class="cls-1" d="M23.99,33.8c-.84,0-1.56-.21-2.19-.71-.04-.03-.05-.14-.02-.18.02-.02.02-.04.04-.05.73-.56,1.52-.99,2.43-1.15.96-.18,1.84.02,2.63.6.05.04.09.09.14.14.04.04.04.08,0,.12-.03.03-.05.07-.08.1-.5.37-1.03.68-1.62.89-.44.16-.89.25-1.32.24h0Z"/>
        <path class="cls-1" d="M106.48,29.04c.32.05.64.09.97.15.11.02.18.14.16.25-.05.33-.12.65-.26.95-.29.64-.78,1.06-1.46,1.24-.5.13-1,.17-1.51.07-.06-.01-.13-.03-.2-.03-.39-.05-.41-.15-.35-.47.04-.22.09-.43.17-.64.28-.77.83-1.23,1.62-1.41.28-.06.57-.07.86-.11Z"/>
        <path class="cls-1" d="M32.46,44.79c0-.68.24-1.29.65-1.84.05-.07.16-.09.23-.04.49.28.89.65,1.2,1.12.42.65.49,1.36.3,2.1-.1.41-.28.79-.52,1.14-.07.1-.18.12-.28.05-.45-.29-.84-.64-1.14-1.09-.29-.43-.45-.91-.43-1.44h-.01Z"/>
        <path class="cls-1" d="M11.51,65.46c-.39.02-.78-.06-1.16-.17-.09-.03-.15-.14-.1-.2.7-.94,1.58-1.66,2.74-1.95.76-.19,1.52-.19,2.27.1.05.02.08.12.05.17-.45.64-1.01,1.15-1.7,1.53-.65.36-1.34.55-2.1.52Z"/>
        <path class="cls-1" d="M14.66,38.28c-.31,0-.61,0-.92-.09-.93-.27-1.51-.87-1.77-1.79-.02-.07.04-.2.11-.22.77-.21,1.55-.35,2.35-.18.97.21,1.6.79,1.87,1.75,0,.02,0,.04.01.07.02.11-.04.23-.15.26-.34.08-.68.18-1.04.19h-.46Z"/>
        <path class="cls-1" d="M8.02,37.72c.42,0,.84.04,1.24.16.88.27,1.51.81,1.79,1.71.09.28.13.56.09.85,0,.03-.05.07-.08.09-.02,0-.04.02-.06.02-.6.05-1.19,0-1.77-.17-.88-.28-1.49-.84-1.76-1.74-.07-.23-.09-.48-.12-.72-.02-.11.08-.2.21-.21h.46Z"/>
        <path class="cls-1" d="M77.38,68.61c-.03.19-.05.5-.12.8-.18.71-.49,1.37-.93,1.96-.05.07-.18.06-.23,0-.33-.4-.53-.86-.66-1.36-.17-.68-.13-1.36.07-2.03.19-.62.48-1.18.87-1.7.05-.06.18-.06.23.01.52.62.75,1.42.77,2.32Z"/>
        <path class="cls-1" d="M81.24,66.4c-.02.61-.16,1.18-.47,1.7-.37.64-.88,1.16-1.48,1.58-.07.05-.19.02-.23-.06-.22-.49-.3-1.02-.27-1.55.05-.82.35-1.54.89-2.16.3-.35.65-.66,1.04-.92.08-.05.19-.02.22.06.19.43.27.88.29,1.35h.01Z"/>
        <path class="cls-1" d="M29.97,39.14c-.44-.03-.99-.08-1.5-.32-.11-.05-.13-.17-.04-.27.51-.56,1.09-1.04,1.79-1.34.96-.42,1.93-.44,2.9-.07.08.03.16.08.23.12.05.03.07.13.03.18-.25.34-.57.61-.91.86-.71.53-1.51.82-2.51.84h.01Z"/>
        <path class="cls-1" d="M45.2,6.74c0,.29-.04.59-.13.89-.18.55-.47,1.04-.88,1.46-.07.07-.18.08-.23.02-.82-.89-1.14-1.92-.81-3.11.17-.58.48-1.08.89-1.53.06-.07.18-.08.23-.03.38.44.67.93.83,1.49.07.26.11.52.11.81h0Z"/>
        <path class="cls-1" d="M48.48,19.76c0,.25-.03.48-.11.72-.02.06-.09.12-.15.11-.68-.13-1.31-.38-1.85-.83-.59-.49-.91-1.12-.96-1.89-.02-.29,0-.57.05-.86.02-.09.11-.15.2-.13.64.13,1.22.38,1.74.77.62.47,1.03,1.13,1.06,2.11h.02Z"/>
        <path class="cls-1" d="M107.66,60.48c0,.92-.44,1.54-1.27,1.9-.26.11-.54.18-.82.23-.7.13-.69.08-.82-.57-.05-.23-.04-.48-.03-.72.03-.53.26-.97.68-1.31.08-.07.18-.13.27-.19.51-.29,1.06-.41,1.64-.45.09,0,.17.06.2.14.13.31.15.64.15.97Z"/>
        <path class="cls-1" d="M53.06,15.05c0,.11-.03.33-.08.54-.18.73-.57,1.33-1.18,1.77-.54.39-1.15.63-1.81.74-.08.01-.19-.06-.19-.14-.03-1.21.39-2.19,1.41-2.88.5-.34,1.06-.53,1.66-.61.08-.01.19.06.19.14,0,.11,0,.22,0,.44Z"/>
        <path class="cls-1" d="M55.15,4.94c-.06,1.24-.61,2.18-1.72,2.77-.43.23-.89.37-1.37.45-.11.02-.21-.07-.21-.19,0-1.4.59-2.46,1.88-3.07.32-.15.65-.26,1-.31.38-.05.43-.02.42.36h0Z"/>
        <path class="cls-1" d="M59.12,27.93c-.06,1.29-.64,2.25-1.85,2.81-.38.18-.79.29-1.2.36-.15.03-.25-.06-.25-.22,0-.54.11-1.05.34-1.54.12-.26.28-.5.48-.71.62-.66,1.41-.97,2.29-1.07.08,0,.17.07.18.16,0,.07,0,.13.02.22h-.01Z"/>
        <path class="cls-1" d="M104.12,24.44c-.02.38-.04.72-.16,1.06-.2.55-.57.93-1.09,1.17-.49.22-1.01.28-1.55.25-.09,0-.17-.08-.19-.15-.11-.48-.07-.97.07-1.43.17-.58.56-.99,1.11-1.24.51-.23,1.05-.31,1.61-.26.07,0,.16.09.17.17.02.15.03.31.04.43h0Z"/>
        <path class="cls-1" d="M42.29,46.54c.08-1.32.75-2.37,2.11-2.95.28-.12.58-.22.88-.27.15-.03.27.06.27.2,0,1.26-.49,2.27-1.59,2.94-.44.27-.91.45-1.41.55-.16.03-.26-.04-.26-.2,0-.04,0-.09,0-.27Z"/>
        <path class="cls-1" d="M27.74,23.76c0,.56-.08.95-.25,1.31-.14.3-.31.59-.53.84-.64.73-.62.74-1.13-.07-.44-.7-.49-1.45-.2-2.22.16-.42.38-.8.67-1.13.59-.68.56-.7,1.07.12.25.4.37.84.37,1.16h0Z"/>
        <path class="cls-1" d="M35.74,71.36c0,.06-.02.17-.04.28,0,.08-.11.16-.19.15-.57-.08-1.12-.24-1.62-.52-.57-.33-1-.78-1.21-1.42-.13-.4-.18-.81-.11-1.23.02-.12.11-.19.23-.17.44.05.86.15,1.27.33,1.1.49,1.63,1.35,1.66,2.59h0Z"/>
        <path class="cls-1" d="M55.25,46.36c0,.67-.26,1.31-.77,1.84-.32.34-.7.6-1.13.8-.13.06-.25,0-.31-.14-.13-.33-.22-.67-.25-1.02-.06-.64.1-1.23.46-1.75.37-.54.86-.93,1.46-1.2.1-.05.22,0,.27.12.14.35.27.95.27,1.36h0Z"/>
        <path class="cls-1" d="M111.35,59.65c0,.61-.23,1.11-.72,1.48-.28.22-.59.38-.93.48-.15.05-.27,0-.34-.11-.25-.4-.41-.83-.48-1.29-.12-.76.12-1.38.73-1.86.07-.05.14-.11.22-.15.98-.52.94-.51,1.34.48.12.3.2.63.19.97h-.01Z"/>
        <path class="cls-1" d="M24.71,15.97c.02-.41.09-.8.24-1.17.22-.53.53-1.01.94-1.42.09-.09.2-.08.28.02.39.5.61,1.07.67,1.7.04.38-.03.75-.14,1.11-.2.64-.56,1.19-1.04,1.67-.07.07-.18.08-.23.03-.48-.56-.72-1.2-.73-1.93h0Z"/>
        <path class="cls-1" d="M26.22,19.89c-.03.59-.17,1.1-.45,1.55-.37.59-.86,1.05-1.46,1.4-.08.05-.19.02-.22-.05-.35-.7-.4-1.43-.16-2.17.09-.27.22-.53.38-.76.36-.53.83-.96,1.38-1.31.08-.05.19-.02.23.05.21.42.28.87.31,1.28h0Z"/>
        <path class="cls-1" d="M29.32,13.73c0,.05-.02.18-.05.31,0,.03-.06.06-.09.08-.02.01-.04.01-.06.01-.46-.05-.91-.15-1.34-.33-1.32-.55-1.75-1.73-1.67-2.73.01-.13.1-.22.2-.21.48.07.95.16,1.4.36.26.12.51.26.73.45.6.52.89,1.19.89,2.06h-.01Z"/>
        <path class="cls-1" d="M29.14,65.6c-.02-.36.08-.72.24-1.07s.36-.66.63-.93c.71-.72.65-.69,1.09.15.14.27.22.58.26.88.07.45,0,.88-.18,1.29-.25.61-.66,1.09-1.18,1.48-.07.05-.18.04-.24-.02-.37-.45-.67-1.2-.63-1.79h.01Z"/>
        <path class="cls-1" d="M83.26,80.11c0,.35-.09.64-.23.92-.17.34-.4.63-.69.88-.05.04-.12.07-.18.03-.55-.37-.95-.85-1.17-1.48-.19-.51-.13-1,.1-1.47.14-.28.33-.52.54-.75.25-.26.32-.27.6-.02.32.28.6.59.79.97.15.3.25.61.23.92h.01Z"/>
        <path class="cls-1" d="M17.65,76.23c-.68,0-1.25-.13-1.77-.44-.08-.05-.1-.16-.04-.22.02-.02.03-.03.04-.05.35-.34.74-.62,1.17-.85.43-.23.9-.37,1.38-.43.72-.08,1.4.08,2.04.43.14.08.15.19.01.31-.46.41-.97.76-1.55.99-.43.18-.88.27-1.28.26Z"/>
        <path class="cls-1" d="M80.2,77.8c.01.61-.21,1.1-.64,1.49-.28.26-.61.44-.96.58-.18.07-.38.12-.57.17-.05.01-.15-.03-.17-.07-.31-.64-.42-1.3-.15-1.98.1-.25.25-.47.45-.65.43-.4.95-.63,1.52-.75.08-.02.2.04.23.1.17.36.29.74.28,1.12h.01Z"/>
        <path class="cls-1" d="M88.58,81.75c.53.03,1.04.17,1.51.42.65.36,1.08.9,1.25,1.62.05.19.08.39.11.58.04.35-.05.44-.4.39s-.7-.1-1.03-.23c-.29-.11-.57-.24-.81-.43-.48-.36-.78-.83-.92-1.41-.04-.17-.07-.35-.09-.52-.05-.36.03-.45.38-.43h0Z"/>
        <path class="cls-1" d="M36.31,67.57c0-.11.02-.22.03-.33.02-.16.13-.25.27-.22.62.11,1.19.34,1.68.74.79.65,1.06,1.49.88,2.49-.02.12-.13.18-.24.16-.42-.07-.81-.21-1.18-.41-.97-.52-1.44-1.33-1.43-2.43h0Z"/>
        <path class="cls-1" d="M94.38,79.49c-.51.03-.88-.04-1.24-.15-.9-.27-1.53-.84-1.85-1.74-.07-.21-.12-.42-.17-.64-.02-.07.07-.18.15-.19.04,0,.09-.02.13-.02.49-.03.96.04,1.43.2.8.27,1.36.79,1.68,1.57.1.24.16.5.23.75.03.12-.04.21-.17.22-.11,0-.22,0-.2,0h0Z"/>
        <path class="cls-1" d="M86.83,82.49c0,.4-.1.78-.27,1.15-.04.08-.14.13-.22.1-.53-.18-1-.45-1.4-.84-.63-.6-.8-1.34-.61-2.17.04-.19.13-.37.21-.55.03-.08.14-.14.21-.11.57.2,1.08.48,1.49.93.39.42.6.92.58,1.5h.01Z"/>
        <path class="cls-1" d="M90.32,79.13c-.36,0-.7-.07-1.04-.17-.88-.27-1.49-.82-1.81-1.68-.09-.23-.14-.46-.18-.7,0-.05.06-.13.12-.14,1.36-.19,2.87.35,3.39,1.97.06.18.15.37.12.58,0,.05-.02.09-.08.09-.17.02-.35.04-.52.05Z"/>
        <path class="cls-1" d="M56.18,2.74c0,.35-.07.7-.22,1.02-.04.09-.12.13-.21.09-.5-.19-.95-.45-1.34-.83-.65-.63-.91-1.38-.76-2.28.03-.2.06-.39.15-.57.04-.07.14-.12.22-.09.56.22,1.06.53,1.47.98.44.47.66,1.03.69,1.67h0Z"/>
        <path class="cls-1" d="M57.69,17.05c-.49-.03-1.05-.13-1.58-.36-.93-.41-1.51-1.12-1.69-2.13-.02-.12.06-.23.17-.23.6,0,1.19.06,1.75.28,1,.4,1.59,1.14,1.83,2.18.04.16-.04.26-.2.26h-.29.01Z"/>
        <path class="cls-1" d="M56.32,21.91c-.02.65-.21,1.2-.62,1.67-.16.18-.33.36-.53.49-.83.57-.86.62-1.11-.42-.23-.94.05-1.74.71-2.42.29-.3.64-.54,1.02-.72.07-.03.19,0,.23.08.19.43.28.88.31,1.32h-.01Z"/>
        <path class="cls-1" d="M98.27,78.99c-.45,0-.87-.09-1.29-.25-.81-.31-1.36-.88-1.65-1.69-.05-.12-.08-.25-.11-.38-.09-.35-.02-.44.34-.45.47,0,.92.07,1.36.23.74.27,1.28.76,1.6,1.48.1.22.17.45.24.69.08.28,0,.36-.28.36h-.21Z"/>
        <path class="cls-1" d="M68.87,52.09c-.2,0-.4-.03-.59-.05-.11,0-.18-.14-.15-.25.38-1.16,1.13-1.92,2.36-2.15.46-.09.92-.11,1.38,0,.09.02.15.11.13.19-.28,1.01-.9,1.7-1.89,2.05-.4.14-.82.19-1.24.18v.02Z"/>
        <path class="cls-1" d="M66.91,46.92c-.03.35-.06.72-.25,1.05-.02.03-.07.04-.11.05h-.06c-.51-.21-.97-.51-1.36-.91-.72-.75-.9-1.63-.65-2.62.09-.37.17-.39.5-.22.43.23.83.5,1.17.85.47.5.73,1.09.77,1.8h0Z"/>
        <path class="cls-1" d="M58.21,24.56c-.02.98-.57,1.85-1.65,2.37-.3.15-.61.25-.94.31-.08.01-.19-.05-.2-.13-.17-1.29.32-2.34,1.43-2.96.21-.12.43-.23.66-.3.69-.21.7-.27.7.7h0Z"/>
        <path class="cls-1" d="M101.66,77.51c-1.33-.03-2.28-.54-2.97-1.53-.05-.08-.03-.18.06-.21,1.34-.54,2.59-.44,3.73.5.05.04.1.09.15.13.41.39.59.65.5.73-.23.2-.51.23-.79.28-.26.05-.52.08-.67.1h-.01Z"/>
        <path class="cls-1" d="M68.91,30.67c0,.31-.06.57-.15.81-.13.35-.31.68-.6.93-.04.03-.14.05-.18.02-.69-.56-1.16-1.26-1.25-2.17-.03-.33.04-.66.16-.97.08-.2.18-.4.3-.59.32-.51.4-.52.81-.07.24.26.45.54.61.86.19.38.31.85.31,1.16v.02Z"/>
        <path class="cls-1" d="M66.55,11.52c.01.34-.06.66-.19.96-.03.08-.14.13-.22.1-.66-.28-1.23-.69-1.66-1.27-.47-.65-.58-1.38-.41-2.14.11-.5.15-.58.65-.29.33.19.64.39.91.66.18.19.36.39.51.61.28.41.42.87.4,1.37h.01Z"/>
        <path class="cls-1" d="M36.91,7.22c-.03.3-.05.65-.2.98-.03.07-.15.12-.22.1-.43-.12-.83-.29-1.19-.56-.76-.57-1.05-1.34-.9-2.27.03-.19.09-.38.15-.57.03-.12.14-.16.26-.13.29.1.58.21.85.37.17.1.34.21.49.34.52.44.77,1.01.77,1.74h0Z"/>
        <path class="cls-1" d="M72.51,23.86c.05-.71.27-1.29.74-1.77.06-.07.16-.07.23,0,.46.42.84.91,1.05,1.5.35.97.14,1.82-.56,2.56-.06.06-.18.06-.24,0-.55-.5-.98-1.08-1.15-1.81-.04-.17-.05-.35-.07-.48Z"/>
        <path class="cls-1" d="M78.54,40.06v.13c0,.08-.1.17-.17.16-.5-.09-.99-.21-1.45-.44-1.07-.53-1.69-1.38-1.85-2.56v-.07c0-.08.1-.17.18-.15.61.11,1.2.28,1.74.6.67.4,1.16.94,1.41,1.69.07.23.11.47.15.64h-.01Z"/>
        <path class="cls-1" d="M100.77,65.82c.47,0,.82.04,1.16.15.7.22,1.26.62,1.66,1.23.21.31.37.65.47,1.01.04.14-.04.25-.2.26-.49.04-.97-.01-1.43-.16-1.15-.35-1.84-1.15-2.14-2.3-.02-.08.05-.17.15-.17.15-.01.31-.02.35-.02h-.02Z"/>
        <path class="cls-1" d="M107.48,67.9c-.42-.03-.79-.06-1.15-.18-.86-.28-1.5-.81-1.89-1.63-.1-.22-.2-.44-.24-.68-.01-.08.06-.19.14-.19,1.2-.12,2.73.33,3.44,1.93.08.18.14.37.2.56.02.07-.06.17-.14.18-.13,0-.26.02-.35.02h-.01Z"/>
        <path class="cls-1" d="M29.16,47.31c-1.24-.03-2.05-.42-2.62-1.28-.05-.08-.03-.19.04-.23.02,0,.04-.03.06-.03.57-.25,1.17-.4,1.79-.41.96,0,1.76.33,2.33,1.13.04.05.07.11.1.17.04.08,0,.19-.07.22-.48.22-1.3.44-1.63.42h0Z"/>
        <path class="cls-1" d="M20.27,33.15c.01.44-.11.86-.32,1.25-.23.43-.54.8-.91,1.12-.61.51-.64.54-.91-.3-.19-.59-.14-1.17.1-1.74.31-.73.82-1.29,1.48-1.73.07-.05.18-.02.22.06.22.39.34.86.34,1.34Z"/>
        <path class="cls-1" d="M69.36,49.17c-.11,0-.28-.02-.46-.03-.08,0-.14-.11-.13-.19v-.07c.26-1.04.88-1.76,1.91-2.1.53-.17,1.08-.2,1.64-.13.08,0,.16.11.14.19-.3,1.16-1,1.94-2.19,2.25-.28.07-.57.08-.92.09h0Z"/>
        <path class="cls-1" d="M81.4,12.73c0,.65-.25,1.19-.72,1.64-.06.06-.18.07-.24.01-.48-.44-.86-.94-1.06-1.56-.31-.94-.11-1.77.57-2.49.06-.06.18-.07.24,0,.5.48.89,1.03,1.1,1.69.08.23.11.47.11.71Z"/>
        <path class="cls-1" d="M109.13,64.35c.65-.01,1.27.18,1.84.54.39.25.73.56,1.03.92.07.09.03.22-.07.27-.39.16-.79.25-1.21.29-.75.06-1.44-.12-2.08-.51-.42-.25-.77-.58-1.07-.97-.05-.07-.02-.18.06-.22.47-.22.96-.32,1.49-.32h.01Z"/>
        <path class="cls-1" d="M88.71,32.17c.02.63-.23,1.14-.68,1.57-.08.07-.17.15-.25.21-.45.32-.49.28-.74-.17-.18-.33-.32-.67-.4-1.04-.16-.69,0-1.31.44-1.85.12-.15.27-.3.42-.41.48-.36.5-.41.8.18.24.47.42.96.41,1.51Z"/>
        <path class="cls-1" d="M83.53,34.95c.45-.02.82.06,1.18.17.1.03.16.17.12.27-.35.81-.92,1.39-1.79,1.63-.21.06-.43.08-.65.1-.46.03-.92,0-1.37-.14-.15-.05-.2-.16-.12-.3.13-.23.25-.47.4-.68.49-.65,1.16-.99,1.98-1.04h.26-.01Z"/>
        <path class="cls-1" d="M89.18,29.93c-.01-.53.18-1,.56-1.41.17-.18.35-.33.56-.46.24-.15.33-.14.47.12.23.41.41.83.5,1.29.16.83-.08,1.52-.72,2.07-.17.14-.35.27-.56.34-.03.01-.08-.01-.12-.03-.02,0-.04-.03-.05-.04-.37-.56-.64-1.16-.64-1.88Z"/>
        <path class="cls-1" d="M84.26,32.02c.62,0,1.21.17,1.77.45.12.06.16.18.09.27-.38.51-.86.88-1.47,1.08-.34.11-.69.16-1.04.14-.4-.02-.79-.07-1.17-.21-.81-.3-.88-.3-.23-.93.53-.51,1.26-.82,2.05-.8Z"/>
        <path class="cls-1" d="M61.62,1.76c.02-.67.27-1.23.72-1.72.04-.05.14-.06.18-.02.51.44.9.95,1.12,1.6.16.48.15.95-.02,1.42-.13.36-.31.68-.58.95-.07.07-.17.08-.24.02-.38-.31-.69-.68-.91-1.12-.19-.36-.29-.73-.27-1.14h0Z"/>
        <path class="cls-1" d="M92.52,42.32c-.01.62-.23,1.13-.66,1.55-.23.21-.49.38-.77.5-.16.07-.29.02-.38-.14-.19-.37-.32-.77-.38-1.19-.09-.6.06-1.13.43-1.61.28-.35.63-.61,1.05-.77.1-.04.23,0,.28.11.24.5.41,1.02.43,1.56h0Z"/>
        <path class="cls-1" d="M88.77,40.14c-.51.02-1.02-.13-1.5-.34-.43-.18-.79-.38-.73-.5.15-.29.43-.43.69-.59.8-.48,1.66-.56,2.54-.29.42.13.82.31,1.19.57.16.12.14.19,0,.31-.61.55-1.32.86-2.19.83h0Z"/>
        <path class="cls-1" d="M85.92,44.5c.01.64-.23,1.17-.69,1.6-.23.22-.49.38-.77.51-.1.05-.24.02-.29-.07-.26-.47-.42-.97-.44-1.51-.02-.63.2-1.17.64-1.62.25-.25.54-.46.86-.6.08-.04.2,0,.24.05.27.51.46,1.05.45,1.63h0Z"/>
        <path class="cls-1" d="M90.41,37.54c-.8-.03-1.56-.27-2.25-.75-.04-.03-.06-.14-.02-.18.44-.46.98-.74,1.6-.87.58-.11,1.14-.06,1.7.13.4.14.77.32,1.12.56.1.07.1.19,0,.28-.59.55-1.3.82-2.14.83h-.01Z"/>
        <path class="cls-1" d="M91.46,35.13c-.7,0-1.35-.18-1.96-.52-.09-.05-.11-.14-.05-.22.75-.96,1.73-1.31,2.92-1.11.46.08.89.24,1.29.48.11.06.15.18.08.27-.36.46-.82.79-1.38.98-.3.1-.6.11-.9.13h0Z"/>
        <path class="cls-1" d="M10.56,41.59c.19-.02.47.05.74.13.73.22,1.19.71,1.41,1.44.03.11-.03.24-.13.26-.68.19-1.37.32-2.08.16-.82-.18-1.37-.66-1.64-1.46,0-.02,0-.04-.01-.06-.02-.08.04-.18.12-.21.48-.16.98-.25,1.59-.26Z"/>
        <path class="cls-1" d="M96.14,66.53s0-.11.02-.17c.01-.04.05-.07.09-.09.04-.02.09-.03.13-.02.74.08,1.4.35,1.94.89.37.37.59.82.69,1.33.05.26.05.52.07.79,0,.12-.09.19-.22.18-.27-.01-.52-.1-.77-.18-.31-.1-.61-.25-.87-.45-.46-.34-.77-.78-.93-1.33-.09-.29-.14-.6-.14-.93v-.02Z"/>
        <path class="cls-1" d="M83.91,30.73c-.33.01-.84-.12-1.34-.32-.11-.04-.15-.18-.09-.27.67-1.15,1.83-1.51,2.86-1.36.41.06.83.15,1.2.35.08.04.1.13.05.22-.58.91-1.39,1.38-2.69,1.39h0Z"/>
        <path class="cls-1" d="M85.7,73.52c-.18-.01-.29,0-.4-.03-.05-.01-.11-.1-.1-.15.01-.37.16-.68.37-.98.21-.29.48-.52.79-.7.25-.14.52-.25.8-.31.52-.11,1.04-.19,1.58-.15h.07c.08,0,.15.11.15.19,0,.21-.07.39-.15.57-.16.37-.43.67-.76.9-.39.27-.83.43-1.28.51-.37.07-.74.1-1.05.13l-.02.02Z"/>
        <path class="cls-1" d="M85.1,12.14c0-.29.03-.57.12-.84.14-.44.38-.79.76-1.04.49-.33,1.02-.49,1.61-.48.09,0,.17.07.18.15.06.37.04.75-.04,1.11-.13.59-.46,1.04-.99,1.34-.43.24-.9.35-1.39.35-.12,0-.22-.08-.23-.19-.01-.13-.02-.26-.03-.39h0Z"/>
        <path class="cls-1" d="M87.65,50.74c-1.17-.03-2.12-.51-2.86-1.42-.06-.08-.04-.18.05-.21.21-.07.41-.17.62-.21,1.51-.31,2.73.18,3.71,1.34.08.09.03.2-.1.25-.02,0-.04.02-.06.02-.5.17-.85.23-1.37.23h0Z"/>
        <path class="cls-1" d="M84.4,71.01c-.62,0-1.22-.13-1.81-.31-.14-.04-.18-.18-.09-.31.44-.63,1.05-.98,1.8-1.1.53-.08,1.05-.05,1.57.05.3.06.59.16.89.25.11.03.14.16.08.27-.24.41-.6.7-1.03.89-.34.15-.71.24-1.08.26-.11,0-.22,0-.33,0Z"/>
        <path class="cls-1" d="M91.05,49.78c-1.2-.04-2.19-.51-2.94-1.44-.12-.15-.07-.22.1-.29,1.32-.47,2.52-.25,3.61.61.24.19.47.4.65.66.06.08.03.18-.06.21-.44.15-.9.22-1.35.25h-.01Z"/>
        <path class="cls-1" d="M94.45,16.34c-.02.72-.31,1.27-.87,1.66-.07.05-.19.03-.24-.03-.36-.42-.65-.89-.82-1.42-.31-.92-.02-1.8.7-2.38.12-.09.25-.08.34.04.31.4.57.84.75,1.32.1.27.13.56.15.81h0Z"/>
        <path class="cls-1" d="M18.38,61.18c-.79-.04-1.45-.25-1.98-.77-.09-.09-.08-.2.02-.27.54-.35,1.12-.61,1.77-.71.93-.15,1.75.1,2.44.74.02,0,.03.04.04.05.04.05.04.15,0,.18-.71.49-1.5.74-2.3.79h0Z"/>
        <path class="cls-1" d="M92.15,71.65c0,.59-.21,1.05-.6,1.44-.14.14-.3.26-.46.37-.59.36-1.24.56-1.92.63h-.06c-.05,0-.13-.08-.14-.12-.07-.5.06-.96.34-1.38.2-.3.45-.54.76-.72.58-.34,1.21-.52,1.87-.58.11-.01.21.08.21.2,0,.07,0,.13.01.17h-.01Z"/>
        <path class="cls-1" d="M101.43,44.91c.02.94-.4,1.56-1.2,1.92-.73.32-.74.29-.93-.45-.1-.38-.14-.77-.05-1.18.11-.45.33-.81.69-1.09.3-.23.64-.39,1.01-.48.11-.03.2.03.25.15.14.37.23.76.23,1.11v.02Z"/>
        <path class="cls-1" d="M19.2,55.03c0,.36-.08.7-.21,1.03-.07.17-.12.19-.31.13-.36-.11-.69-.28-.99-.51-.69-.54-.96-1.24-.79-2.1.04-.22.09-.43.2-.63.04-.06.15-.11.23-.09.38.11.74.27,1.06.52.55.41.81.97.82,1.65h-.01Z"/>
        <path class="cls-1" d="M99.82,71.59c0,.61-.24,1.11-.7,1.5-.18.15-.39.29-.6.4-.47.24-.99.37-1.51.45-.16.02-.26-.05-.27-.21-.06-.6.11-1.13.52-1.58.16-.18.35-.33.56-.45.54-.31,1.13-.48,1.75-.54.15-.02.24.08.25.23v.2Z"/>
        <path class="cls-1" d="M95.6,71.8c.02.7-.18,1.17-.56,1.58-.23.24-.5.43-.79.59-.37.2-.76.35-1.17.46-.08.02-.18-.04-.21-.12-.12-.37-.11-.74-.02-1.11.09-.35.26-.66.51-.92.54-.56,1.22-.86,1.97-1.01.07-.01.19.07.2.14.03.17.06.35.06.38h0Z"/>
        <path class="cls-1" d="M24.41,44.3c.01.21-.08.55-.23.87-.2.45-.5.83-.87,1.15-.09.08-.22.08-.29,0-.47-.54-.71-1.16-.64-1.88,0-.09.02-.18.04-.26.19-.7.57-1.28,1.13-1.75.04-.04.13-.02.18.03.42.48.67,1.03.67,1.83h.01Z"/>
        <path class="cls-1" d="M101.41,39.39c-.01.58-.23,1.07-.66,1.47-.08.08-.21.08-.29,0-.33-.33-.6-.7-.81-1.12-.11-.22-.19-.44-.25-.68-.16-.78.05-1.44.61-2,.09-.09.19-.09.28,0,.33.36.62.75.84,1.19.17.36.3.74.29,1.15h0Z"/>
        <path class="cls-1" d="M97.18,57.92c-.51,0-.9-.03-1.29-.14-.96-.27-1.69-.83-2.2-1.69-.03-.05-.06-.12-.06-.18,0-.03.03-.1.06-.1.26-.03.52-.08.78-.08,1.44,0,2.54.62,3.31,1.83.02.04.03.08.05.12.03.07-.03.19-.11.2-.22.02-.44.04-.54.05h0Z"/>
        <path class="cls-1" d="M13.64,52.77c0-.38.08-.74.24-1.09.04-.08.14-.14.21-.11.38.11.75.26,1.07.5.64.48.88,1.13.8,1.91-.02.22-.08.43-.15.64-.08.27-.17.31-.44.22-.37-.13-.73-.3-1.04-.57-.46-.39-.69-.9-.7-1.5h0Z"/>
        <path class="cls-1" d="M104.1,51.4c-.63,0-1.22-.15-1.77-.45-.47-.25-.88-.58-1.23-.99-.07-.09-.03-.21.09-.26.93-.34,1.86-.32,2.76.1.57.26,1.06.63,1.47,1.1.11.13.08.23-.09.29-.4.14-.81.21-1.23.21Z"/>
        <path class="cls-1" d="M102.28,58.72c-.52,0-.91-.04-1.29-.15-.81-.23-1.48-.68-1.98-1.35-.14-.18-.33-.35-.31-.62.22-.13.46-.13.7-.13,1.48.02,2.62.64,3.42,1.9.03.05.06.12.06.18,0,.03-.03.08-.06.11-.01,0-.04.02-.06.02-.2.02-.39.03-.47.03h0Z"/>
        <path class="cls-1" d="M10.29,58c-.66-.03-1.26-.21-1.75-.67-.09-.08-.08-.2.02-.28.61-.42,1.26-.73,2-.82.83-.1,1.57.11,2.2.69.07.07.07.17,0,.22-.67.45-1.39.75-2.2.85-.09,0-.18,0-.27,0Z"/>
        <path class="cls-1" d="M107.03,46.63c-.29,0-.74-.11-1.17-.28-.7-.28-.7-.3-.17-.87.57-.61,1.31-.79,2.11-.68.5.06.99.22,1.44.46.14.08.16.18.06.32-.52.71-1.22,1.05-2.27,1.05Z"/>
        <path class="cls-1" d="M105.22,54.72h-.26c-.28,0-.37-.1-.34-.36.03-.24.06-.48.14-.71.14-.43.39-.79.78-1.03.59-.35,1.23-.46,1.9-.36.12.02.19.11.19.23,0,.33-.09.65-.21.96-.22.54-.62.89-1.16,1.1-.34.13-.58.17-1.03.16h-.01Z"/>
        <path class="cls-1" d="M99.49,51.24c1.56,0,2.69.69,3.49,1.96.01.02.02.04.03.06.06.12.01.24-.11.24-.31,0-.62.03-.92,0-1.28-.12-2.3-.7-3.01-1.79-.05-.07-.08-.15-.12-.23-.04-.08,0-.19.09-.2.2-.02.39-.03.55-.04Z"/>
        <path class="cls-1" d="M106.41,57.93c-.74.02-1.45-.26-2.11-.69-.15-.1-.28-.22-.4-.33-.02-.02,0-.08,0-.12,0-.02.02-.04.04-.05.72-.52,1.52-.68,2.38-.51.71.14,1.33.46,1.88.92.1.08.1.2,0,.27-.53.35-1.11.53-1.8.53v-.02Z"/>
        <path class="cls-1" d="M105.59,49.06c-.73,0-1.47-.28-2.14-.74-.07-.05-.07-.17-.01-.23.48-.49,1.07-.76,1.76-.8.68-.04,1.31.16,1.91.46.19.1.37.24.55.35.05.03.05.07.02.11-.04.05-.07.11-.12.15-.56.48-1.16.7-1.96.7h-.01Z"/>
        <path class="cls-1" d="M102.44,43.16c-.01-.79.35-1.35,1.03-1.71.19-.1.41-.17.61-.24.17-.06.3,0,.36.19.17.51.26,1.03.17,1.56-.05.31-.18.59-.39.83-.35.4-.8.62-1.31.71-.08,0-.18-.04-.22-.12-.18-.39-.26-.8-.26-1.22h.01Z"/>
        <path class="cls-1" d="M61.63,27.07c-.63-.02-1.12-.09-1.59-.32-.55-.27-.98-.67-1.29-1.19-.06-.11-.02-.23.09-.26.36-.12.73-.17,1.1-.17.42,0,.84.02,1.23.17.7.27,1.25.72,1.63,1.38.05.08,0,.19-.06.22-.08.03-.17.07-.25.08-.33.04-.65.08-.86.1h0Z"/>
        <path class="cls-1" d="M109.55,41.84c.44,0,.77.03,1.08.15.08.03.14.12.11.21-.05.19-.09.38-.17.57-.27.66-.78,1.06-1.47,1.18-.52.09-1.05.08-1.56-.09-.11-.04-.17-.14-.14-.26.04-.15.07-.3.12-.44.29-.78.86-1.19,1.67-1.3.07,0,.13,0,.2,0,.09,0,.18,0,.15,0h0Z"/>
        <path class="cls-1" d="M27.58,58.47c-.55,0-1.05-.13-1.5-.43-.64-.44-.58-.47.02-.8.43-.23.88-.4,1.38-.45.86-.1,1.61.13,2.26.71.02,0,.03.03.04.05.06.06.05.18-.02.23-.66.43-1.38.69-2.18.7h0Z"/>
        <path class="cls-1" d="M21.73,27.09c-.36-.03-.71-.06-1.04-.19-.42-.17-.76-.44-.99-.84-.34-.58-.35-.67.35-.79.15-.03.3-.05.45-.08.42-.06.84-.02,1.24.11.67.22,1.12.67,1.31,1.36.02.09-.03.18-.11.21-.4.15-.82.16-1.22.21h0Z"/>
        <path class="cls-1" d="M23.08,81.21c-.49-.02-.96-.11-1.39-.35-.08-.04-.1-.15-.03-.22.64-.68,1.41-1.12,2.35-1.22.6-.06,1.18.07,1.71.37.05.03.07.13.03.17-.47.54-1.06.92-1.75,1.12-.29.08-.6.16-.91.12h-.01Z"/>
        <path class="cls-1" d="M27.26,77.41c-.47.02-1.03-.15-1.53-.51-.49-.37-.54-.43.04-.73.4-.2.8-.35,1.25-.42.93-.14,1.74.12,2.43.75.1.09.11.21,0,.27-.63.38-1.3.64-2.2.64h.01Z"/>
        <path class="cls-1" d="M26.83,82.29c-.21,0-.29-.08-.28-.16.02-.11.04-.22.06-.32.24-1.13.92-1.88,1.99-2.27.27-.1.54-.19.83-.17.09,0,.16.08.15.17-.1,1.07-.62,1.86-1.56,2.37-.35.19-.73.31-1.12.38-.06.01-.13,0-.08,0h.01Z"/>
        <path class="cls-1" d="M93.95,48.08c-1.1,0-2-.45-2.71-1.28-.03-.03-.04-.08-.07-.11-.03-.05-.02-.15.04-.17.94-.36,1.85-.31,2.74.16.45.24.84.56,1.16.96.08.1.05.23-.06.26-.36.11-.72.19-1.1.18Z"/>
        <path class="cls-1" d="M55.96,18.11c.59,0,1.08.11,1.54.34.73.36,1.19.95,1.37,1.75,0,.06,0,.13,0,.19,0,.03-.05.06-.08.09,0,.01-.04,0-.06,0-.58,0-1.13-.11-1.66-.35-.65-.3-1.1-.79-1.34-1.46-.05-.14-.06-.3-.07-.45,0-.03.04-.09.07-.09.11-.02.21-.03.24-.03h0Z"/>
        <path class="cls-1" d="M8.8,63.9c-.22-.02-.44-.02-.65-.07-.2-.05-.45-.03-.58-.26.05-.21.22-.32.36-.45.59-.55,1.27-.94,2.08-1.06.56-.09,1.09,0,1.6.23.05.02.07.13.03.17-.07.08-.14.17-.21.25-.36.36-.76.66-1.23.87-.44.2-.91.32-1.4.32Z"/>
        <path class="cls-1" d="M37.49,26.14c.92,0,1.67.36,2.18,1.15.02.04.04.08.06.12.04.07,0,.19-.09.22-.64.21-1.28.32-1.95.19-.71-.13-1.26-.5-1.63-1.13-.08-.13-.03-.25.13-.31.42-.15.85-.22,1.29-.24h0Z"/>
        <path class="cls-1" d="M40.84,21.75c.02.31-.05.61-.18.89-.15.34-.36.66-.63.92-.06.06-.17.06-.24,0-.29-.28-.51-.6-.65-.98-.19-.49-.18-.99,0-1.48.02-.06.05-.12.08-.18.19-.34.35-.71.74-.87.33.21.51.53.68.87.13.26.19.54.18.83h.01Z"/>
        <path class="cls-1" d="M44.27,36.72c0,.23-.04.45-.11.66-.14.43-.38.79-.7,1.1-.06.06-.18.06-.24,0-.29-.28-.5-.61-.65-.98-.24-.59-.18-1.17.11-1.72.17-.33.34-.67.71-.83.3.2.48.5.65.82.16.3.24.61.23.94h0Z"/>
        <path class="cls-1" d="M35.55,25.32c-.38,0-.75-.03-1.1-.19-.48-.21-.86-.53-1.11-1-.04-.09-.02-.17.07-.21.67-.27,1.35-.4,2.07-.24.7.16,1.24.56,1.57,1.21.03.05.02.09-.03.11-.06.03-.11.08-.17.1-.42.14-.85.22-1.3.22Z"/>
        <path class="cls-1" d="M13.12,32.01s.02-.18.05-.31c.02-.1.13-.18.25-.17.37.04.74.11,1.08.27.66.31,1.02.83,1.03,1.56,0,.18-.02.35-.03.53-.02.16-.12.26-.26.23-.26-.04-.53-.07-.78-.15-1.05-.33-1.37-1.1-1.34-1.97h0Z"/>
        <path class="cls-1" d="M41.93,68.2c0,.09-.02.27-.07.44-.2.68-.24.7-.82.32-.24-.16-.46-.34-.64-.56-.45-.55-.61-1.16-.42-1.85.05-.19.13-.37.2-.55.03-.07.15-.1.23-.06.36.17.69.39.96.68.4.42.58.92.55,1.59h0Z"/>
        <path class="cls-1" d="M76.07,45.05c0-.14.01-.21.02-.27,0-.09.09-.17.17-.15.85.18,1.57.57,2.07,1.3.31.45.45.95.41,1.5,0,.09-.09.17-.17.15h-.07c-.63-.16-1.2-.44-1.67-.89-.33-.31-.56-.68-.67-1.12-.05-.19-.07-.39-.09-.51h0Z"/>
        <path class="cls-1" d="M4.68,40.53c-.74,0-1.32-.25-1.73-.84-.03-.04-.04-.08-.06-.12-.04-.08,0-.19.07-.23.52-.25,1.06-.44,1.65-.46.22,0,.44,0,.66.05.45.09.82.33,1.08.71.17.25.25.38-.15.53-.5.19-1,.36-1.51.36h0Z"/>
        <path class="cls-1" d="M40.07,28.82c.71,0,1.32.26,1.81.8.11.12.08.24-.08.31-.5.24-1.02.41-1.59.4-.6,0-1.13-.2-1.58-.57-.43-.36-.42-.43.08-.64.43-.18.88-.29,1.36-.29h0Z"/>
        <path class="cls-1" d="M34.33,65.44c0,.32-.08.61-.22.89-.19.38-.46.7-.8.95-.07.05-.19.04-.24-.02-.5-.67-.63-1.4-.29-2.17.19-.43.49-.78.87-1.06.04-.03.15-.02.18,0,.32.41.49.88.5,1.4h0Z"/>
        <path class="cls-1" d="M37.06,19.85c0-.35.09-.67.26-.96.2-.35.46-.65.78-.88.08-.05.19-.05.24,0,.51.7.62,1.45.21,2.23-.2.4-.49.73-.87.98-.05.03-.14.02-.17-.04-.3-.4-.44-.86-.45-1.34h0Z"/>
        <path class="cls-1" d="M34.96,17.11c.02-.07.04-.27.11-.45.16-.47.45-.88.58-.83.35.13.56.42.75.72.25.41.36.85.23,1.33,0,.04-.02.09-.03.13-.13.39-.24.8-.63,1.04-.37-.18-.6-.5-.81-.85-.17-.29-.23-.62-.2-1.08h0Z"/>
        <path class="cls-1" d="M112.49,62.92c.52-.02,1,.14,1.45.4.29.17.55.36.78.61.07.08.06.17-.02.21-.21.13-.44.2-.68.25-.95.21-1.79-.03-2.54-.63-.1-.08-.2-.18-.29-.27-.09-.09-.07-.21.03-.27.43-.22.79-.31,1.27-.31h0Z"/>
        <path class="cls-1" d="M59.09,22.63c-.8.02-1.46-.26-1.95-.91-.04-.05-.07-.11-.11-.17-.04-.07,0-.2.07-.22.56-.18,1.12-.22,1.69-.03.32.1.61.27.85.5.18.18.4.35.41.64-.21.15-.45.17-.69.19h-.27Z"/>
        <path class="cls-1" d="M47.44,5.09c0,.15-.08.4-.14.66,0,.06-.1.1-.15.08-.02,0-.04-.01-.06-.02-.41-.27-.75-.62-.99-1.05-.23-.42-.33-.87-.29-1.34,0-.16,0-.35.14-.48.17,0,.28.13.4.22.28.22.54.46.74.76.22.32.34.67.36,1.18h0Z"/>
        <path class="cls-1" d="M94.65,45.96c-.26,0-.62-.11-.96-.27-.15-.07-.34-.12-.39-.32.07-.17.23-.26.37-.35.52-.33,1.08-.35,1.65-.2.28.07.54.18.78.34.11.07.14.19.05.27-.4.35-.85.53-1.5.53Z"/>
        <path class="cls-1" d="M22.66,59.09c-.09,0-.18-.02-.26-.05-1.8-.63-3.59-1.32-5.33-2.1-.1-.04-.19-.11-.28-.16,0,0-.01-.04,0-.04.02,0,.04-.02.06-.02.06,0,.13.02.19.04,1.77.72,3.57,1.37,5.39,1.96.08.03.16.08.24.12v.25h0Z"/>
        <path class="cls-1" d="M72.15,30.33c-.11-.01-.23-.02-.34-.03,0-.02.01-.04.03-.06.69-.71,1.39-1.42,2.08-2.13.01-.01.04-.03.06-.02.05.02.06.06.03.1-.01.02-.02.04-.04.05-.56.66-1.11,1.32-1.67,1.97-.04.05-.1.08-.15.12Z"/>
        <path class="cls-1" d="M89.74,104.52v-.19c.48.04.94.19,1.41.28.39.07.77.17,1.15.27.1.03.2.08.3.12.02,0,.04.01.06,0,.07-.02.06-.05-.01-.07-.02,0-.04-.01-.06,0-.55.04-1.09-.07-1.63-.16-.41-.07-.82-.16-1.22-.24h0Z"/>
        <path class="cls-1" d="M47.66,29.02c-.1,0-.2-.02-.3-.03,0-.02,0-.05.02-.06.37-.7.71-1.41,1.02-2.14,0-.02.05-.03.08-.05,0,.02,0,.05,0,.06-.21.76-.44,1.52-.82,2.21h0Z"/>
        <path class="cls-1" d="M94.25,64.86v-.17h.06c.63.06,1.26.11,1.89.17.11.01.21.06.31.09.01,0,.03-.02.05-.03-.01-.01-.02-.04-.03-.04-.54,0-1.09.03-1.63.03-.22,0-.43-.03-.65-.05Z"/>
        <path class="cls-1" d="M101.68,111.55v-.2c.49.12.95.32,1.4.52.22.1.43.21.58.41v.05s-.04.03-.06.02c-.06-.02-.12-.05-.18-.07-.56-.29-1.14-.53-1.75-.72h0Z"/>
        <path class="cls-1" d="M62.83,24.35c-.05.06-.1.11-.15.17-.07-.08-.16-.15-.22-.23-.32-.44-.64-.89-.89-1.38v-.06s.04-.04.08.01c.37.46.75.92,1.12,1.38.03.03.04.08.06.12h0Z"/>
        <path class="cls-1" d="M96.36,55.04c0-.06,0-.11.01-.17.31.02.6.11.91.18.09.02.17.06.26.06.25.02.47.1.68.23.09.06.21.08.32.04.03,0,.08-.06.08-.09s-.05-.08-.08-.09c-.13,0-.26-.02-.39,0-.6.04-1.19-.04-1.77-.17h-.02Z"/>
        <path class="cls-1" d="M66.63,24.22h-.19c.1-.58.25-1.14.41-1.7.02-.07.05-.08.06-.03.01.06.02.13.01.19-.09.51-.14,1.03-.29,1.54Z"/>
        <path class="cls-1" d="M22.12,47.56s-.09.1-.14.16c-.08-.1-.18-.19-.24-.3-.22-.35-.42-.71-.63-1.07v-.06s.05-.05.09,0c.31.42.64.82.91,1.27h0Z"/>
        <path class="cls-1" d="M83.38,48.32v-.2c.5-.07,1-.16,1.51-.17.06,0,.1.02.08.05s-.06.06-.09.07c-.49.11-.98.25-1.49.25h-.01Z"/>
        <path class="cls-1" d="M42.25,21.04h-.19c-.08-.52-.15-1.05-.13-1.67.13.61.3,1.13.33,1.67h-.01Z"/>
        <path class="cls-1" d="M84.39,78.2c.06-.05.12-.1.18-.15.42.23.79.53,1.14.85v.05s-.04.03-.06.03-.04,0-.06-.01c-.41-.23-.85-.44-1.2-.77Z"/>
        <path class="cls-1" d="M85.81,37.63c-.11,0-.22-.02-.33-.02.23-.38.56-.67.88-.97.01,0,.05-.03.06-.02.05.02.05.06.02.1-.2.31-.38.64-.64.91h.01Z"/>
        <path class="cls-1" d="M28.54,31.4c-.02.09-.03.17-.05.26-.38-.27-.69-.61-.97-.98-.01-.01.03-.07.05-.1h-.01c.36.24.68.52.97.82h.01Z"/>
        <path class="cls-1" d="M38.73,24.21s-.1.09-.15.13c-.36-.25-.62-.59-.89-.93,0-.01,0-.04,0-.05.02-.05.06-.06.1-.02.33.28.67.54.95.87h0Z"/>
        <path class="cls-1" d="M77.55,72.35c0-.07-.01-.14-.02-.21.38-.18.77-.32,1.17-.44h.06s-.02.04-.04.05c-.38.22-.73.49-1.16.6h0Z"/>
        <path class="cls-1" d="M32.87,76.74l.14.12c-.34.25-.74.33-1.12.47.29-.26.62-.46.98-.6h0Z"/>
        <path class="cls-1" d="M39.1,52.71c-.33-.18-.62-.41-.88-.68v-.05s.04-.03.06-.03c.35.18.7.36,1,.63-.06.04-.11.08-.17.12h-.01Z"/>
        <path class="cls-1" d="M102.47,47.14c-.06-.05-.11-.09-.17-.14.2-.21.47-.31.71-.47.03-.02.08,0,.12,0,0,.02,0,.05-.02.06-.2.2-.38.43-.64.56h0Z"/>
        <path class="cls-1" d="M79.88,38.01h-.18c0-.15,0-.3.02-.45.04-.25.09-.51.14-.76.08.43.08.58.02,1.21Z"/>
        <path class="cls-1" d="M32.2,73.7c0,.07,0,.14.02.21-.37.06-.74.1-1.11.04-.01,0-.04-.02-.04-.03,0-.02.02-.05.03-.05.36-.08.72-.17,1.09-.16h.01Z"/>
        <path class="cls-1" d="M23.85,61.9v.17c-.28.09-.56.08-.85.07-.02,0-.04,0-.06-.02.09.02-.07-.03.02-.05.29-.08.58-.17.89-.17Z"/>
        <path class="cls-1" d="M21.6,107.23v.21c-.22.07-.44.17-.68.18-.02,0-.06-.01-.06-.02,0-.03,0-.09.02-.1.22-.13.45-.23.71-.27h.01Z"/>
        <path class="cls-1" d="M105.26,108.37v-.04c.08,0,.17-.02.25,0,.23.04.46.1.68.15.03,0,.05.06.08.09h.01c-.34-.06-.68-.13-1.02-.2Z"/>
        <path class="cls-1" d="M22.66,59.09v-.25c.23,0,.42.11.63.19.04,0,.07.05.09.09.01.03.02.09,0,.12s-.07.07-.1.07c-.22-.04-.43-.07-.61-.21h0Z"/>
        <path class="cls-1" d="M74.51,27.55c-.1.11-.19.22-.29.33-.01-.02-.04-.04-.03-.05.09-.11.16-.25.32-.27h0Z"/>
        <path class="cls-1" d="M92.12,109.34s.09-.07.14-.11c.05,0,.1-.02.15-.03h-.02s0,.08.03.11l.27.27h0c-.06-.01-.13.01-.18-.01-.14-.06-.28-.11-.38-.23h-.01Z"/>
        <path class="cls-1" d="M66.81,52.12s0,.07-.02.09c-.02.04-.05.07-.07.1-.02-.03-.05-.07-.06-.1v-.06c.02-.06.05-.11.08-.17.03.06.05.11.07.15h0Z"/>
        <path class="cls-1" d="M106.27,108.56s.07.03.1.05c.05.02.07,0,.07-.04,0-.01-.03-.02-.05-.02-.04,0-.07.01-.11.02h-.01,0Z"/>
        <path class="cls-1" d="M31.39,77.51l-.09.05s.03.02.05.02c.05,0,.06-.03.05-.08h0Z"/>
        <path class="cls-1" d="M31.4,77.5s.06.04.09.01,0-.07-.04-.07c-.02,0-.04.04-.06.07h.01Z"/>
        <path class="cls-1" d="M112.39,122.07s-.07.04-.11.06v-.04s.09,0,.13-.01h-.01s0,0,0,0Z"/>
        <polygon class="cls-1" points="26.9 29.91 26.88 29.9 26.89 29.92 26.9 29.91"/>
        <path class="cls-1" d="M27.04,30.03c-.01-.08-.05-.13-.14-.11h0c0,.09.07.11.14.12h0Z"/>
        <path class="cls-1" d="M27.2,30.15s-.1-.08-.15-.12c0,0,0,.01,0,0,.02.07.08.11.15.12h0Z"/>
        <path class="cls-1" d="M27.33,30.29s.09.09.13.14h.01c-.09,0-.14-.05-.13-.15.01-.15-.01.01-.01.01Z"/>
        <path class="cls-1" d="M27.46,30.42s.07.11.1.16h.01s-.09.01-.11-.01c-.07-.05-.02-.11.02-.16h-.02Z"/>
        <path class="cls-1" d="M39.1,52.71c.06-.04.11-.08.17-.12,0,.05.06.1-.02.16-.08.05-.11-.02-.16-.03h.01Z"/>
        <path class="cls-1" d="M27.19,30.16c.02.07.07.11.14.13h.01c-.08-.01-.13-.05-.15-.14-.03-.13,0,.01,0,.01Z"/>
        <polygon class="cls-1" points="86.71 36.28 86.68 36.3 86.7 36.29 86.71 36.28"/>
        <polygon class="cls-1" points="86.7 36.29 86.71 36.26 86.71 36.28 86.7 36.29"/>
        <path class="cls-1" d="M21.04,46.04s-.03.02-.04.03c-.01,0-.03-.03-.03-.04s.02-.03.03-.04c.01,0,.02.03.03.05h.01Z"/>
        <polygon class="cls-1" points="92.69 109.58 92.67 109.6 92.68 109.57 92.69 109.58"/>
      </g>
    </g>
  </g>
</svg>